Mailpile-Bold.ufo
<glyph name="exclam" format="1">
  <advance width="575"/>
  <unicode hex="0021"/>
  <outline>
    <contour>
      <point x="188" y="309" type="line"/>
      <point x="396" y="309" type="line"/>
      <point x="434" y="1546" type="line"/>
      <point x="160" y="1546" type="line"/>
    </contour>
    <contour>
      <point x="286" y="252" type="curve" smooth="yes"/>
      <point x="200.0" y="252.0"/>
      <point x="126.0" y="178.0"/>
      <point x="126" y="90" type="curve"/>
      <point x="126.0" y="4.68719850055"/>
      <point x="201.317881681" y="-68.0"/>
      <point x="286" y="-68" type="curve" smooth="yes"/>
      <point x="374.0" y="-68.0"/>
      <point x="446.0" y="4.0"/>
      <point x="446" y="90" type="curve" smooth="yes"/>
      <point x="446.0" y="177.385677392"/>
      <point x="372.626363078" y="252.0"/>
    </contour>
  </outline>
</glyph>
<glyph name="quotedbl" format="1">
  <advance width="811"/>
  <unicode hex="0022"/>
  <outline>
    <contour>
      <point x="21" y="1033" type="line"/>
      <point x="261" y="1033" type="line"/>
      <point x="461" y="1546" type="line"/>
      <point x="218" y="1546" type="line"/>
    </contour>
    <contour>
      <point x="307" y="1034" type="line"/>
      <point x="549" y="1034" type="line"/>
      <point x="747" y="1546" type="line"/>
      <point x="505" y="1546" type="line"/>
    </contour>
  </outline>
</glyph>
<glyph name="numbersign" format="1">
  <advance width="1632"/>
  <unicode hex="0023"/>
  <outline>
    <contour>
      <point x="1006" y="949" type="line"/>
      <point x="925" y="536" type="line"/>
      <point x="625" y="536" type="line"/>
      <point x="708" y="949" type="line"/>
    </contour>
    <contour>
      <point x="260" y="-51" type="line"/>
      <point x="502" y="-51" type="line"/>
      <point x="581" y="314" type="line"/>
      <point x="882" y="314" type="line"/>
      <point x="810" y="-51" type="line"/>
      <point x="1052" y="-51" type="line"/>
      <point x="1120" y="314" type="line"/>
      <point x="1431" y="314" type="line"/>
      <point x="1474" y="536" type="line"/>
      <point x="1164" y="536" type="line"/>
      <point x="1245" y="949" type="line"/>
      <point x="1545" y="949" type="line"/>
      <point x="1582" y="1171" type="line"/>
      <point x="1288" y="1171" type="line"/>
      <point x="1364" y="1547" type="line"/>
      <point x="1122" y="1547" type="line"/>
      <point x="1050" y="1171" type="line"/>
      <point x="750" y="1171" type="line"/>
      <point x="824" y="1547" type="line"/>
      <point x="582" y="1547" type="line"/>
      <point x="509" y="1171" type="line"/>
      <point x="198" y="1171" type="line"/>
      <point x="159" y="949" type="line"/>
      <point x="466" y="949" type="line"/>
      <point x="383" y="536" type="line"/>
      <point x="88" y="536" type="line"/>
      <point x="47" y="314" type="line"/>
      <point x="339" y="314" type="line"/>
    </contour>
  </outline>
</glyph>
<glyph name="dollar" format="1">
  <advance width="1116"/>
  <unicode hex="0024"/>
  <outline>
    <contour>
      <point x="266" y="1159" type="curve" smooth="yes"/>
      <point x="266" y="1267"/>
      <point x="347" y="1319"/>
      <point x="452" y="1336" type="curve"/>
      <point x="452" y="947" type="line"/>
      <point x="343" y="995"/>
      <point x="266" y="1051"/>
    </contour>
    <contour>
      <point x="832" y="371" type="curve" smooth="yes"/>
      <point x="832" y="285"/>
      <point x="770" y="225"/>
      <point x="692" y="193" type="curve"/>
      <point x="692" y="579" type="line"/>
      <point x="771" y="536"/>
      <point x="832" y="474"/>
    </contour>
    <contour>
      <point x="452" y="-185" type="line"/>
      <point x="692" y="-185" type="line"/>
      <point x="692" y="-54" type="line"/>
      <point x="915" y="-3"/>
      <point x="1083" y="164"/>
      <point x="1083" y="398" type="curve" smooth="yes"/>
      <point x="1083" y="673"/>
      <point x="894" y="774"/>
      <point x="692" y="853" type="curve"/>
      <point x="692" y="1327" type="line"/>
      <point x="727" y="1319"/>
      <point x="760" y="1308"/>
      <point x="787" y="1295" type="curve" smooth="yes"/>
      <point x="815" y="1281"/>
      <point x="821" y="1264"/>
      <point x="821" y="1231" type="curve" smooth="yes"/>
      <point x="821" y="1122" type="line"/>
      <point x="1052" y="1117" type="line"/>
      <point x="1050" y="1266" type="line" smooth="yes"/>
      <point x="1049" y="1394"/>
      <point x="989" y="1457"/>
      <point x="911" y="1502" type="curve" smooth="yes"/>
      <point x="847" y="1539"/>
      <point x="767" y="1560"/>
      <point x="692" y="1570" type="curve"/>
      <point x="692" y="1674" type="line"/>
      <point x="452" y="1674" type="line"/>
      <point x="452" y="1575" type="line"/>
      <point x="176" y="1545"/>
      <point x="14" y="1388"/>
      <point x="14" y="1151" type="curve" smooth="yes"/>
      <point x="14" y="885"/>
      <point x="213" y="768"/>
      <point x="452" y="676" type="curve"/>
      <point x="452" y="178" type="line"/>
      <point x="320" y="212"/>
      <point x="235" y="310"/>
      <point x="186" y="401" type="curve" smooth="yes"/>
      <point x="161" y="445" type="line"/>
      <point x="-54" y="330" type="line"/>
      <point x="-33" y="286" type="line" smooth="yes"/>
      <point x="56" y="100"/>
      <point x="218" y="-38"/>
      <point x="452" y="-66" type="curve"/>
    </contour>
  </outline>
</glyph>
<glyph name="percent" format="1">
  <advance width="1825"/>
  <unicode hex="0025"/>
  <outline>
    <contour>
      <point x="490" y="677" type="line"/>
      <point x="502" y="677" type="line" smooth="yes"/>
      <point x="618" y="677"/>
      <point x="722" y="721"/>
      <point x="814" y="811" type="curve" smooth="yes"/>
      <point x="905" y="900"/>
      <point x="951" y="1005"/>
      <point x="951" y="1125" type="curve" smooth="yes"/>
      <point x="951.0" y="1362.30382782"/>
      <point x="732.732278501" y="1574.0"/>
      <point x="502" y="1574" type="curve" smooth="yes"/>
      <point x="256.696015498" y="1574.0"/>
      <point x="53.0" y="1354.64875864"/>
      <point x="53" y="1126" type="curve"/>
      <point x="53.0" y="896.591442541"/>
      <point x="252.349341694" y="684.068551508"/>
      <point x="487" y="678" type="curve"/>
    </contour>
    <contour>
      <point x="725" y="1125" type="curve" smooth="yes"/>
      <point x="725.0" y="1008.36617752"/>
      <point x="617.362219196" y="898.0"/>
      <point x="500" y="898" type="curve" smooth="yes"/>
      <point x="384.0" y="898.0"/>
      <point x="273.0" y="1009.0"/>
      <point x="273" y="1125" type="curve" smooth="yes"/>
      <point x="273.0" y="1243.0"/>
      <point x="384.0" y="1352.0"/>
      <point x="500" y="1352" type="curve" smooth="yes"/>
      <point x="617.362219196" y="1352.0"/>
      <point x="725.0" y="1243.64475046"/>
    </contour>
    <contour>
      <point x="872" y="367" type="curve" smooth="yes"/>
      <point x="872.0" y="133.0"/>
      <point x="1085.0" y="-80.0"/>
      <point x="1319" y="-80" type="curve" smooth="yes"/>
      <point x="1562.35191335" y="-80.0"/>
      <point x="1768.0" y="134.292777998"/>
      <point x="1768" y="367" type="curve" smooth="yes"/>
      <point x="1768.0" y="609.681589458"/>
      <point x="1555.33903266" y="816.0"/>
      <point x="1320" y="816" type="curve" smooth="yes"/>
      <point x="1269" y="816" type="line"/>
      <point x="1269" y="812" type="line"/>
      <point x="1175" y="801"/>
      <point x="1088" y="759"/>
      <point x="1010" y="683" type="curve"/>
      <point x="1756" y="1537" type="line"/>
      <point x="1575" y="1680" type="line"/>
      <point x="141" y="36" type="line"/>
      <point x="300" y="-130" type="line"/>
      <point x="953" y="618" type="line"/>
      <point x="899" y="544"/>
      <point x="872" y="460"/>
    </contour>
    <contour>
      <point x="1094" y="368" type="curve" smooth="yes"/>
      <point x="1094.0" y="483.252597618"/>
      <point x="1203.26866891" y="594.0"/>
      <point x="1320" y="594" type="curve" smooth="yes"/>
      <point x="1437.3622192" y="594.0"/>
      <point x="1545.0" y="483.633822482"/>
      <point x="1545" y="367" type="curve" smooth="yes"/>
      <point x="1545.0" y="249.0"/>
      <point x="1438.0" y="142.0"/>
      <point x="1320" y="142" type="curve" smooth="yes"/>
      <point x="1203.26866891" y="142.0"/>
      <point x="1094.0" y="250.725426986"/>
    </contour>
  </outline>
</glyph>
<glyph name="ampersand" format="1">
  <advance width="1362"/>
  <unicode hex="0026"/>
  <outline>
    <contour>
      <point x="590" y="987" type="curve" smooth="yes"/>
      <point x="572" y="1006"/>
      <point x="558" y="1022"/>
      <point x="550" y="1033" type="curve" smooth="yes"/>
      <point x="503.90439848" y="1090.15854588"/>
      <point x="455.0" y="1167.00280858"/>
      <point x="455" y="1226" type="curve" smooth="yes"/>
      <point x="455.0" y="1288.90902343"/>
      <point x="515" y="1330"/>
      <point x="560" y="1346" type="curve" smooth="yes"/>
      <point x="648" y="1377"/>
      <point x="736.893040735" y="1321.64004207"/>
      <point x="743" y="1228" type="curve" smooth="yes"/>
      <point x="746" y="1170"/>
      <point x="729" y="1117"/>
      <point x="694" y="1071" type="curve" smooth="yes"/>
      <point x="665" y="1033"/>
      <point x="634" y="1001"/>
      <point x="600" y="976" type="curve"/>
      <point x="597" y="979"/>
      <point x="594" y="983"/>
    </contour>
    <contour>
      <point x="551" y="132" type="curve" smooth="yes"/>
      <point x="472" y="132"/>
      <point x="402" y="150"/>
      <point x="342" y="187" type="curve" smooth="yes"/>
      <point x="287" y="221"/>
      <point x="264" y="280"/>
      <point x="264" y="361" type="curve" smooth="yes"/>
      <point x="264.0" y="480.935556854"/>
      <point x="404.580263104" y="613.544590614"/>
      <point x="535" y="686" type="curve"/>
      <point x="851" y="285" type="line"/>
      <point x="773.069385044" y="196.245688522"/>
      <point x="677.38216307" y="132.0"/>
    </contour>
    <contour>
      <point x="725.66321275" y="-86.0"/>
      <point x="865.629719194" y="-31.4153921375"/>
      <point x="990" y="102" type="curve"/>
      <point x="1107" y="-52" type="line"/>
      <point x="1385" y="-52" type="line"/>
      <point x="1390" y="-41" type="line"/>
      <point x="1122" y="299" type="line"/>
      <point x="1151" y="351"/>
      <point x="1170" y="401"/>
      <point x="1182" y="447" type="curve" smooth="yes"/>
      <point x="1196" y="500"/>
      <point x="1207" y="563"/>
      <point x="1217" y="638" type="curve" smooth="yes"/>
      <point x="1222" y="679" type="line"/>
      <point x="1011" y="749" type="line"/>
      <point x="1003" y="687" type="line" smooth="yes"/>
      <point x="997" y="633"/>
      <point x="990" y="584"/>
      <point x="982" y="541" type="curve" smooth="yes"/>
      <point x="979" y="526"/>
      <point x="976" y="512"/>
      <point x="971" y="497" type="curve"/>
      <point x="744" y="804" type="line"/>
      <point x="802" y="847"/>
      <point x="850" y="893"/>
      <point x="889" y="943" type="curve" smooth="yes"/>
      <point x="940" y="1008"/>
      <point x="968" y="1104"/>
      <point x="968" y="1231" type="curve" smooth="yes"/>
      <point x="968.0" y="1389.6675945"/>
      <point x="855.213785648" y="1531.98693422"/>
      <point x="676" y="1565" type="curve" smooth="yes"/>
      <point x="603" y="1579"/>
      <point x="533" y="1574"/>
      <point x="466" y="1551" type="curve" smooth="yes"/>
      <point x="332.171069709" y="1509.05361886"/>
      <point x="232.0" y="1393.21502447"/>
      <point x="232" y="1225" type="curve" smooth="yes"/>
      <point x="232" y="1151"/>
      <point x="255" y="1073"/>
      <point x="304" y="994" type="curve" smooth="yes"/>
      <point x="334" y="944"/>
      <point x="364" y="900"/>
      <point x="392" y="861" type="curve"/>
      <point x="312" y="815"/>
      <point x="237" y="755"/>
      <point x="166" y="682" type="curve" smooth="yes"/>
      <point x="74" y="587"/>
      <point x="29" y="481"/>
      <point x="29" y="369" type="curve" smooth="yes"/>
      <point x="29" y="217"/>
      <point x="82" y="103"/>
      <point x="185" y="26" type="curve" smooth="yes"/>
      <point x="285" y="-48"/>
      <point x="403" y="-86"/>
      <point x="541" y="-86" type="curve" smooth="yes"/>
    </contour>
  </outline>
</glyph>
<glyph name="quotesingle" format="1">
  <advance width="325"/>
  <unicode hex="0027"/>
  <outline>
    <contour>
      <point x="152" y="1546" type="line"/>
      <point x="-45" y="1033" type="line"/>
      <point x="200" y="1033" type="line"/>
      <point x="400" y="1546" type="line"/>
    </contour>
  </outline>
</glyph>
<glyph name="parenleft" format="1">
  <advance width="650"/>
  <unicode hex="0028"/>
  <outline>
    <contour>
      <point x="468" y="-226" type="line"/>
      <point x="609" y="-38" type="line"/>
      <point x="572" y="-7" type="line" smooth="yes"/>
      <point x="397.236751945" y="138.308768046"/>
      <point x="281.113221643" y="385.923771837"/>
      <point x="275" y="714" type="curve"/>
      <point x="277" y="715" type="line"/>
      <point x="277" y="747" type="line" smooth="yes"/>
      <point x="277.0" y="1088.46227404"/>
      <point x="387.602682189" y="1335.03366067"/>
      <point x="568" y="1483" type="curve" smooth="yes"/>
      <point x="599" y="1509" type="line"/>
      <point x="495" y="1713" type="line"/>
      <point x="447" y="1683" type="line" smooth="yes"/>
      <point x="221.88420339" y="1536.8722022"/>
      <point x="54.0" y="1224.09983294"/>
      <point x="54" y="748" type="curve"/>
      <point x="54.0" y="275.287176165"/>
      <point x="197.312401813" y="11.8473688423"/>
      <point x="426" y="-189" type="curve" smooth="yes"/>
    </contour>
  </outline>
</glyph>
<glyph name="parenright" format="1">
  <advance width="600"/>
  <unicode hex="0029"/>
  <outline>
    <contour>
      <point x="126" y="-221" type="line"/>
      <point x="168" y="-192" type="line" smooth="yes"/>
      <point x="301.591178001" y="-100.49919315"/>
      <point x="516.952041467" y="251.317562998"/>
      <point x="539" y="657" type="curve"/>
      <point x="541" y="657" type="line"/>
      <point x="541" y="736" type="line"/>
      <point x="541" y="740"/>
      <point x="541" y="745"/>
      <point x="541" y="750" type="curve" smooth="yes"/>
      <point x="541" y="841" type="line"/>
      <point x="539" y="841" type="line"/>
      <point x="517.333333333" y="1263.5"/>
      <point x="345.428571429" y="1533.28571429"/>
      <point x="156" y="1680" type="curve" smooth="yes"/>
      <point x="107" y="1719" type="line"/>
      <point x="4" y="1508" type="line"/>
      <point x="34" y="1483" type="line" smooth="yes"/>
      <point x="211.50631283" y="1335.75044504"/>
      <point x="319.0" y="1092.08856156"/>
      <point x="319" y="749" type="curve" smooth="yes"/>
      <point x="319.0" y="404.104673985"/>
      <point x="212.644047492" y="142.193357579"/>
      <point x="34" y="-6" type="curve" smooth="yes"/>
      <point x="-1" y="-35" type="line"/>
    </contour>
  </outline>
</glyph>
<glyph name="asterisk" format="1">
  <advance width="934"/>
  <unicode hex="002A"/>
  <outline>
    <contour>
      <point x="626" y="724" type="line"/>
      <point x="799" y="848" type="line"/>
      <point x="645" y="1067" type="line"/>
      <point x="896" y="1146" type="line"/>
      <point x="834" y="1361" type="line"/>
      <point x="575" y="1271" type="line"/>
      <point x="575" y="1546" type="line"/>
      <point x="355" y="1546" type="line"/>
      <point x="355" y="1272" type="line"/>
      <point x="109" y="1357" type="line"/>
      <point x="42" y="1145" type="line"/>
      <point x="302" y="1062" type="line"/>
      <point x="146" y="849" type="line"/>
      <point x="321" y="711" type="line"/>
      <point x="479" y="939" type="line"/>
    </contour>
  </outline>
</glyph>
<glyph name="plus" format="1">
  <advance width="1196"/>
  <unicode hex="002B"/>
  <outline>
    <contour>
      <point x="479" y="294" type="line"/>
      <point x="715" y="294" type="line"/>
      <point x="715" y="648" type="line"/>
      <point x="1064" y="648" type="line"/>
      <point x="1064" y="881" type="line"/>
      <point x="715" y="881" type="line"/>
      <point x="715" y="1233" type="line"/>
      <point x="479" y="1233" type="line"/>
      <point x="479" y="881" type="line"/>
      <point x="130" y="881" type="line"/>
      <point x="130" y="648" type="line"/>
      <point x="479" y="648" type="line"/>
    </contour>
  </outline>
</glyph>
<glyph name="comma" format="1">
  <advance width="537"/>
  <unicode hex="002C"/>
  <outline>
    <contour>
      <point x="343" y="-145" type="curve" smooth="yes"/>
      <point x="404" y="-55"/>
      <point x="421" y="15"/>
      <point x="421" y="76" type="curve" smooth="yes"/>
      <point x="421" y="233"/>
      <point x="321" y="260"/>
      <point x="260" y="260" type="curve" smooth="yes"/>
      <point x="177" y="260"/>
      <point x="97" y="216"/>
      <point x="97" y="98" type="curve" smooth="yes"/>
      <point x="97" y="16"/>
      <point x="141" y="-18"/>
      <point x="141" y="-69" type="curve" smooth="yes"/>
      <point x="141" y="-109"/>
      <point x="107" y="-140"/>
      <point x="62" y="-181" type="curve" smooth="yes"/>
      <point x="23" y="-216" type="line"/>
      <point x="142" y="-341" type="line"/>
      <point x="178" y="-313" type="line" smooth="yes"/>
      <point x="242" y="-264"/>
      <point x="288" y="-225"/>
    </contour>
  </outline>
</glyph>
<glyph name="hyphen" format="1">
  <advance width="992"/>
  <unicode hex="002D"/>
  <outline>
    <contour>
      <point x="84" y="537" type="line"/>
      <point x="907" y="537" type="line"/>
      <point x="907" y="764" type="line"/>
      <point x="84" y="764" type="line"/>
    </contour>
  </outline>
</glyph>
<glyph name="period" format="1">
  <advance width="537"/>
  <unicode hex="002E"/>
  <outline>
    <contour>
      <point x="268" y="-68" type="curve" smooth="yes"/>
      <point x="312" y="-68"/>
      <point x="351" y="-52"/>
      <point x="384" y="-21" type="curve" smooth="yes"/>
      <point x="418" y="12"/>
      <point x="434" y="50"/>
      <point x="434" y="94" type="curve" smooth="yes"/>
      <point x="434" y="115" type="line"/>
      <point x="431" y="118" type="line"/>
      <point x="426" y="153"/>
      <point x="411" y="184"/>
      <point x="383" y="211" type="curve" smooth="yes"/>
      <point x="350" y="245"/>
      <point x="312" y="260"/>
      <point x="268" y="260" type="curve" smooth="yes"/>
      <point x="224" y="260"/>
      <point x="186" y="244"/>
      <point x="153" y="210" type="curve" smooth="yes"/>
      <point x="122" y="177"/>
      <point x="106" y="138"/>
      <point x="106" y="94" type="curve"/>
      <point x="106" y="50"/>
      <point x="122" y="12"/>
      <point x="154" y="-20" type="curve" smooth="yes"/>
      <point x="186" y="-52"/>
      <point x="224" y="-68"/>
    </contour>
  </outline>
</glyph>
<glyph name="slash" format="1">
  <advance width="658"/>
  <unicode hex="002F"/>
  <outline>
    <contour>
      <point x="-48" y="-128" type="line"/>
      <point x="185" y="-128" type="line"/>
      <point x="706" y="1628" type="line"/>
      <point x="474" y="1628" type="line"/>
    </contour>
  </outline>
</glyph>
<glyph name="zero" format="1">
  <advance width="1369"/>
  <unicode hex="0030"/>
  <outline>
    <contour>
      <point x="686" y="1581" type="curve" smooth="yes"/>
      <point x="287" y="1581"/>
      <point x="93" y="1231"/>
      <point x="93" y="767" type="curve"/>
      <point x="93" y="305"/>
      <point x="268" y="-70"/>
      <point x="686" y="-71" type="curve" smooth="yes"/>
      <point x="1103" y="-72"/>
      <point x="1279" y="272"/>
      <point x="1279" y="767" type="curve" smooth="yes"/>
      <point x="1279" y="1197"/>
      <point x="1080" y="1581"/>
    </contour>
    <contour>
      <point x="686" y="1344" type="curve" smooth="yes"/>
      <point x="951" y="1344"/>
      <point x="1037" y="1065"/>
      <point x="1037" y="767" type="curve" smooth="yes"/>
      <point x="1037" y="449"/>
      <point x="959" y="156"/>
      <point x="686" y="157" type="curve" smooth="yes"/>
      <point x="412" y="158"/>
      <point x="335" y="449"/>
      <point x="335" y="767" type="curve" smooth="yes"/>
      <point x="335" y="1066"/>
      <point x="437" y="1344"/>
    </contour>
  </outline>
</glyph>
<glyph name="one" format="1">
  <advance width="897"/>
  <unicode hex="0031"/>
  <outline>
    <contour>
      <point x="49" y="-51" type="line"/>
      <point x="893" y="-51" type="line"/>
      <point x="893" y="181" type="line"/>
      <point x="599" y="181" type="line"/>
      <point x="599" y="1416" type="line" smooth="yes"/>
      <point x="599" y="1554"/>
      <point x="515" y="1614"/>
      <point x="385" y="1567" type="curve" smooth="yes"/>
      <point x="81" y="1458" type="line"/>
      <point x="26" y="1438" type="line"/>
      <point x="138" y="1221" type="line"/>
      <point x="354" y="1298" type="line"/>
      <point x="354" y="181" type="line"/>
      <point x="49" y="181" type="line"/>
    </contour>
  </outline>
</glyph>
<glyph name="two" format="1">
  <advance width="1258"/>
  <unicode hex="0032"/>
  <outline>
    <contour>
      <point x="210" y="-54" type="curve" smooth="yes"/>
      <point x="1173" y="-54" type="line"/>
      <point x="1173" y="308" type="line"/>
      <point x="935" y="308" type="line"/>
      <point x="935" y="178" type="line"/>
      <point x="451" y="180" type="line"/>
      <point x="849" y="618" type="line" smooth="yes"/>
      <point x="1011" y="796"/>
      <point x="1133" y="949"/>
      <point x="1133" y="1156" type="curve" smooth="yes"/>
      <point x="1133" y="1432"/>
      <point x="932" y="1583"/>
      <point x="625" y="1583" type="curve" smooth="yes"/>
      <point x="369" y="1583"/>
      <point x="148" y="1442"/>
      <point x="113" y="1221" type="curve" smooth="yes"/>
      <point x="106" y="1180"/>
      <point x="108" y="1141"/>
      <point x="108" y="1100" type="curve"/>
      <point x="108" y="1049" type="line"/>
      <point x="346" y="1049" type="line"/>
      <point x="346" y="1100" type="line" smooth="yes"/>
      <point x="346" y="1124"/>
      <point x="347" y="1148"/>
      <point x="351" y="1171" type="curve" smooth="yes"/>
      <point x="376" y="1297"/>
      <point x="499" y="1354"/>
      <point x="626" y="1354" type="curve" smooth="yes"/>
      <point x="770" y="1354"/>
      <point x="901" y="1293"/>
      <point x="901" y="1155" type="curve" smooth="yes"/>
      <point x="901" y="1011"/>
      <point x="812" y="908"/>
      <point x="686" y="778" type="curve" smooth="yes"/>
      <point x="686" y="778"/>
      <point x="176" y="230"/>
      <point x="157" y="211" type="curve" smooth="yes"/>
      <point x="95" y="150"/>
      <point x="78" y="92"/>
      <point x="89" y="42" type="curve" smooth="yes"/>
      <point x="103" y="-21"/>
      <point x="143" y="-54"/>
    </contour>
  </outline>
</glyph>
<glyph name="three" format="1">
  <advance width="1227"/>
  <unicode hex="0033"/>
  <outline>
    <contour>
      <point x="1136" y="420" type="curve" smooth="yes"/>
      <point x="1136" y="682"/>
      <point x="958" y="852"/>
      <point x="724" y="897" type="curve"/>
      <point x="1140" y="1366" type="line"/>
      <point x="1140" y="1546" type="line"/>
      <point x="308" y="1546" type="line" smooth="yes"/>
      <point x="178" y="1546"/>
      <point x="127" y="1492"/>
      <point x="127" y="1361" type="curve" smooth="yes"/>
      <point x="127" y="1183" type="line"/>
      <point x="365" y="1183" type="line"/>
      <point x="365" y="1313" type="line"/>
      <point x="791" y="1313" type="line"/>
      <point x="369" y="836" type="line"/>
      <point x="420" y="684" type="line"/>
      <point x="549" y="684" type="line" smooth="yes"/>
      <point x="742" y="684"/>
      <point x="910" y="601"/>
      <point x="912" y="416" type="curve" smooth="yes"/>
      <point x="914" y="248"/>
      <point x="785" y="156"/>
      <point x="603" y="156" type="curve" smooth="yes"/>
      <point x="462" y="156"/>
      <point x="363" y="230"/>
      <point x="276" y="334" type="curve" smooth="yes"/>
      <point x="241" y="376" type="line"/>
      <point x="69" y="208" type="line"/>
      <point x="97" y="172" type="line" smooth="yes"/>
      <point x="179" y="65"/>
      <point x="341" y="-68"/>
      <point x="595" y="-71" type="curve" smooth="yes"/>
      <point x="926" y="-74"/>
      <point x="1136" y="130"/>
    </contour>
  </outline>
</glyph>
<glyph name="four" format="1">
  <advance width="1237"/>
  <unicode hex="0034"/>
  <outline>
    <contour>
      <point x="725" y="-51" type="line"/>
      <point x="963" y="-51" type="line"/>
      <point x="963" y="276" type="line"/>
      <point x="1144" y="276" type="line"/>
      <point x="1144" y="508" type="line"/>
      <point x="963" y="508" type="line"/>
      <point x="963" y="1546" type="line"/>
      <point x="678" y="1546" type="line"/>
      <point x="-8" y="464" type="line"/>
      <point x="-8" y="276" type="line"/>
      <point x="725" y="276" type="line"/>
    </contour>
    <contour>
      <point x="725" y="508" type="line"/>
      <point x="282" y="508" type="line"/>
      <point x="725" y="1179" type="line"/>
    </contour>
  </outline>
</glyph>
<glyph name="five" format="1">
  <advance width="1245"/>
  <unicode hex="0035"/>
  <outline>
    <contour>
      <point x="632" y="-71" type="curve" smooth="yes"/>
      <point x="872" y="-71"/>
      <point x="1181" y="50"/>
      <point x="1181" y="467" type="curve" smooth="yes"/>
      <point x="1181" y="824"/>
      <point x="944" y="1004"/>
      <point x="662" y="1004" type="curve" smooth="yes"/>
      <point x="593" y="1004"/>
      <point x="519" y="993"/>
      <point x="437" y="965" type="curve"/>
      <point x="490" y="1314" type="line"/>
      <point x="865" y="1314" type="line"/>
      <point x="863" y="1184" type="line"/>
      <point x="1102" y="1184" type="line"/>
      <point x="1102" y="1546" type="line"/>
      <point x="279" y="1546" type="line"/>
      <point x="168" y="771" type="line"/>
      <point x="301" y="659" type="line"/>
      <point x="332" y="677" type="line" smooth="yes"/>
      <point x="448" y="744"/>
      <point x="549" y="776"/>
      <point x="643" y="776" type="curve" smooth="yes"/>
      <point x="805" y="776"/>
      <point x="941" y="676"/>
      <point x="941" y="466" type="curve" smooth="yes"/>
      <point x="941" y="229"/>
      <point x="761" y="156"/>
      <point x="632" y="156" type="curve" smooth="yes"/>
      <point x="476" y="156"/>
      <point x="354" y="254"/>
      <point x="315" y="417" type="curve" smooth="yes"/>
      <point x="300" y="478" type="line"/>
      <point x="86" y="377" type="line"/>
      <point x="98" y="335" type="line" smooth="yes"/>
      <point x="171" y="74"/>
      <point x="367" y="-71"/>
    </contour>
  </outline>
</glyph>
<glyph name="six" format="1">
  <advance width="1288"/>
  <unicode hex="0036"/>
  <outline>
    <contour>
      <point x="1215" y="479" type="curve" smooth="yes"/>
      <point x="1215" y="805"/>
      <point x="995" y="995"/>
      <point x="695" y="995" type="curve" smooth="yes"/>
      <point x="569" y="995"/>
      <point x="450" y="961"/>
      <point x="348" y="896" type="curve"/>
      <point x="369" y="1151"/>
      <point x="468" y="1349"/>
      <point x="700" y="1349" type="curve" smooth="yes"/>
      <point x="861" y="1349"/>
      <point x="950" y="1272"/>
      <point x="967" y="1107" type="curve" smooth="yes"/>
      <point x="977" y="1016" type="line"/>
      <point x="1069" y="1021" type="line"/>
      <point x="1069" y="1072" type="line"/>
      <point x="1199" y="1104" type="line"/>
      <point x="1194" y="1149" type="line" smooth="yes"/>
      <point x="1163" y="1423"/>
      <point x="983" y="1581"/>
      <point x="681" y="1581" type="curve" smooth="yes"/>
      <point x="281" y="1581"/>
      <point x="96" y="1170"/>
      <point x="96" y="726" type="curve"/>
      <point x="96" y="262"/>
      <point x="260" y="-71"/>
      <point x="654" y="-71" type="curve" smooth="yes"/>
      <point x="996" y="-71"/>
      <point x="1215" y="158"/>
    </contour>
    <contour>
      <point x="658" y="149" type="curve" smooth="yes"/>
      <point x="434" y="149"/>
      <point x="346" y="367"/>
      <point x="339" y="623" type="curve"/>
      <point x="430" y="713"/>
      <point x="554" y="766"/>
      <point x="684" y="766" type="curve" smooth="yes"/>
      <point x="853" y="766"/>
      <point x="978" y="671"/>
      <point x="978" y="480" type="curve" smooth="yes"/>
      <point x="978" y="289"/>
      <point x="855" y="149"/>
    </contour>
  </outline>
</glyph>
<glyph name="seven" format="1">
  <advance width="1050"/>
  <unicode hex="0037"/>
  <outline>
    <contour>
      <point x="139" y="-51" type="line"/>
      <point x="397" y="-51" type="line"/>
      <point x="1021" y="1363" type="line"/>
      <point x="1021" y="1546" type="line"/>
      <point x="23" y="1546" type="line"/>
      <point x="23" y="1184" type="line"/>
      <point x="253" y="1184" type="line"/>
      <point x="253" y="1314" type="line"/>
      <point x="744" y="1314" type="line"/>
    </contour>
  </outline>
</glyph>
<glyph name="eight" format="1">
  <advance width="1284"/>
  <unicode hex="0038"/>
  <outline>
    <contour>
      <point x="634" y="-72" type="curve" smooth="yes"/>
      <point x="950" y="-72"/>
      <point x="1179" y="103"/>
      <point x="1179" y="387" type="curve" smooth="yes"/>
      <point x="1179" y="579"/>
      <point x="1078" y="709"/>
      <point x="896" y="817" type="curve"/>
      <point x="1037" y="887"/>
      <point x="1143" y="1003"/>
      <point x="1143" y="1157" type="curve" smooth="yes"/>
      <point x="1143" y="1424"/>
      <point x="934" y="1580"/>
      <point x="634" y="1581" type="curve" smooth="yes"/>
      <point x="340" y="1581"/>
      <point x="111" y="1422"/>
      <point x="111" y="1172" type="curve"/>
      <point x="111" y="1011"/>
      <point x="205" y="908"/>
      <point x="341" y="826" type="curve"/>
      <point x="185" y="727"/>
      <point x="78" y="588"/>
      <point x="78" y="394" type="curve"/>
      <point x="78" y="101"/>
      <point x="318" y="-72"/>
    </contour>
    <contour>
      <point x="354" y="1179" type="curve" smooth="yes"/>
      <point x="351" y="1301"/>
      <point x="489" y="1354"/>
      <point x="633" y="1354" type="curve" smooth="yes"/>
      <point x="774" y="1354"/>
      <point x="916" y="1297"/>
      <point x="916" y="1162" type="curve" smooth="yes"/>
      <point x="916" y="1047"/>
      <point x="759" y="982"/>
      <point x="636" y="941" type="curve"/>
      <point x="496" y="997"/>
      <point x="357" y="1054"/>
    </contour>
    <contour>
      <point x="631" y="155" type="curve" smooth="yes"/>
      <point x="467" y="158"/>
      <point x="315" y="239"/>
      <point x="315" y="405" type="curve" smooth="yes"/>
      <point x="315" y="553"/>
      <point x="433" y="646"/>
      <point x="572" y="712" type="curve"/>
      <point x="792" y="612"/>
      <point x="937" y="539"/>
      <point x="937" y="379" type="curve" smooth="yes"/>
      <point x="937" y="228"/>
      <point x="800" y="155"/>
    </contour>
  </outline>
</glyph>
<glyph name="nine" format="1">
  <advance width="1282"/>
  <unicode hex="0039"/>
  <outline>
    <contour>
      <point x="599" y="763" type="curve" smooth="yes"/>
      <point x="443" y="763"/>
      <point x="327" y="871"/>
      <point x="326" y="1051" type="curve" smooth="yes"/>
      <point x="326" y="1228"/>
      <point x="436" y="1344"/>
      <point x="623" y="1344" type="curve" smooth="yes"/>
      <point x="828" y="1344"/>
      <point x="930" y="1136"/>
      <point x="936" y="918" type="curve"/>
      <point x="844" y="831"/>
      <point x="723" y="763"/>
    </contour>
    <contour>
      <point x="553" y="-72" type="curve" smooth="yes"/>
      <point x="947" y="-72"/>
      <point x="1190" y="200"/>
      <point x="1189" y="823" type="curve" smooth="yes"/>
      <point x="1189" y="1263"/>
      <point x="1015" y="1581"/>
      <point x="619" y="1581" type="curve" smooth="yes"/>
      <point x="318" y="1581"/>
      <point x="73" y="1384"/>
      <point x="73" y="1054" type="curve"/>
      <point x="73" y="741"/>
      <point x="296" y="526"/>
      <point x="586" y="526" type="curve" smooth="yes"/>
      <point x="717" y="526"/>
      <point x="838" y="571"/>
      <point x="941" y="643" type="curve"/>
      <point x="916" y="345"/>
      <point x="775" y="165"/>
      <point x="545" y="165" type="curve" smooth="yes"/>
      <point x="452" y="165"/>
      <point x="356" y="201"/>
      <point x="254" y="270" type="curve" smooth="yes"/>
      <point x="209" y="300" type="line"/>
      <point x="83" y="94" type="line"/>
      <point x="126" y="67" type="line" smooth="yes"/>
      <point x="272" y="-26"/>
      <point x="414" y="-72"/>
    </contour>
  </outline>
</glyph>
<glyph name="colon" format="1">
  <advance width="537"/>
  <unicode hex="003A"/>
  <outline>
    <contour>
      <point x="268" y="833" type="curve" smooth="yes"/>
      <point x="358.045152813" y="833.0"/>
      <point x="434.0" y="908.954314803"/>
      <point x="434" y="995" type="curve" smooth="yes"/>
      <point x="434" y="1016" type="line"/>
      <point x="431" y="1019" type="line"/>
      <point x="419.909419145" y="1096.63406598"/>
      <point x="348.121349547" y="1161.0"/>
      <point x="268" y="1161" type="curve" smooth="yes"/>
      <point x="181.954314803" y="1161.0"/>
      <point x="106.0" y="1085.04515281"/>
      <point x="106" y="995" type="curve"/>
      <point x="106.0" y="907.0"/>
      <point x="180.0" y="833.0"/>
    </contour>
    <contour>
      <point x="270" y="-70" type="curve" smooth="yes"/>
      <point x="360.045152813" y="-70.0"/>
      <point x="436.0" y="5.95431480339"/>
      <point x="436" y="92" type="curve" smooth="yes"/>
      <point x="436" y="113" type="line"/>
      <point x="433" y="116" type="line"/>
      <point x="421.909419145" y="193.634065984"/>
      <point x="350.121349547" y="258.0"/>
      <point x="270" y="258" type="curve" smooth="yes"/>
      <point x="183.954314803" y="258.0"/>
      <point x="108.0" y="182.045152813"/>
      <point x="108" y="92" type="curve"/>
      <point x="108.0" y="4.0"/>
      <point x="182.0" y="-70.0"/>
    </contour>
  </outline>
</glyph>
<glyph name="semicolon" format="1">
  <advance width="537"/>
  <unicode hex="003B"/>
  <outline>
    <contour>
      <point x="268" y="833" type="curve" smooth="yes"/>
      <point x="358.045152813" y="833.0"/>
      <point x="434.0" y="908.954314803"/>
      <point x="434" y="995" type="curve" smooth="yes"/>
      <point x="434" y="1016" type="line"/>
      <point x="431" y="1019" type="line"/>
      <point x="419.909419145" y="1096.63406598"/>
      <point x="348.121349547" y="1161.0"/>
      <point x="268" y="1161" type="curve" smooth="yes"/>
      <point x="181.954314803" y="1161.0"/>
      <point x="106.0" y="1085.04515281"/>
      <point x="106" y="995" type="curve"/>
      <point x="106.0" y="907.0"/>
      <point x="180.0" y="833.0"/>
    </contour>
    <contour>
      <point x="143" y="-351" type="line"/>
      <point x="180" y="-325" type="line" smooth="yes"/>
      <point x="192" y="-317"/>
      <point x="206" y="-305"/>
      <point x="221" y="-291" type="curve" smooth="yes"/>
      <point x="234" y="-279"/>
      <point x="250" y="-264"/>
      <point x="267" y="-246" type="curve"/>
      <point x="333" y="-165" type="line"/>
      <point x="335" y="-163" type="line"/>
      <point x="337" y="-160" type="line" smooth="yes"/>
      <point x="343" y="-151"/>
      <point x="348" y="-143"/>
      <point x="354" y="-133" type="curve" smooth="yes"/>
      <point x="369" y="-106" type="line"/>
      <point x="386" y="-70" type="line"/>
      <point x="397" y="-41"/>
      <point x="405" y="-15"/>
      <point x="411" y="10" type="curve" smooth="yes"/>
      <point x="416" y="35"/>
      <point x="421" y="59"/>
      <point x="423" y="82" type="curve" smooth="yes"/>
      <point x="423" y="116" type="line"/>
      <point x="421" y="122" type="line" smooth="yes"/>
      <point x="421" y="129" type="line" smooth="yes"/>
      <point x="421" y="144"/>
      <point x="414" y="168"/>
      <point x="389" y="200" type="curve"/>
      <point x="371" y="221" type="line"/>
      <point x="367" y="225" type="line"/>
      <point x="339" y="245" type="line"/>
      <point x="336" y="245" type="line"/>
      <point x="334" y="246" type="line"/>
      <point x="310" y="253" type="line" smooth="yes"/>
      <point x="303" y="255"/>
      <point x="298" y="256"/>
      <point x="292" y="257" type="curve" smooth="yes"/>
      <point x="284" y="259"/>
      <point x="276" y="259"/>
      <point x="266" y="259" type="curve"/>
      <point x="263" y="259" type="line"/>
      <point x="171" y="236" type="line"/>
      <point x="171" y="222" type="line"/>
      <point x="169" y="220"/>
      <point x="167" y="219"/>
      <point x="165" y="217" type="curve" smooth="yes"/>
      <point x="155" y="210"/>
      <point x="145" y="201"/>
      <point x="138" y="192" type="curve" smooth="yes"/>
      <point x="121.521918148" y="171.860122181"/>
      <point x="110.0" y="148.477378012"/>
      <point x="110" y="100" type="curve" smooth="yes"/>
      <point x="110" y="88" type="line"/>
      <point x="110" y="54"/>
      <point x="116" y="23"/>
      <point x="126" y="-2" type="curve" smooth="yes"/>
      <point x="131" y="-17"/>
      <point x="136" y="-29"/>
      <point x="138" y="-40" type="curve"/>
      <point x="138" y="-48" type="line" smooth="yes"/>
      <point x="138" y="-67"/>
      <point x="133" y="-86"/>
      <point x="123" y="-106" type="curve" smooth="yes"/>
      <point x="111" y="-128"/>
      <point x="98" y="-149"/>
      <point x="85" y="-167" type="curve"/>
      <point x="28" y="-222" type="line"/>
    </contour>
    <contour>
      <point x="177.44698362" y="233.564442669"/>
      <point x="201.019992006" y="277.039984013"/>
      <point x="175" y="225" type="curve"/>
    </contour>
    <contour>
      <point x="354" y="232" type="curve"/>
      <point x="350.759652654" y="236.860521019"/>
      <point x="346.162645351" y="239.837354649"/>
    </contour>
  </outline>
</glyph>
<glyph name="less" format="1">
  <advance width="1196"/>
  <unicode hex="003C"/>
  <outline>
    <contour>
      <point x="1052" y="238" type="line"/>
      <point x="1052" y="497" type="line"/>
      <point x="452" y="745" type="line"/>
      <point x="1052" y="994" type="line"/>
      <point x="1052" y="1253" type="line"/>
      <point x="144" y="863" type="line"/>
      <point x="144" y="628" type="line"/>
    </contour>
  </outline>
</glyph>
<glyph name="equal" format="1">
  <advance width="1196"/>
  <unicode hex="003D"/>
  <outline>
    <contour>
      <point x="144" y="820" type="line"/>
      <point x="1052" y="820" type="line"/>
      <point x="1052" y="1055" type="line"/>
      <point x="144" y="1055" type="line"/>
    </contour>
    <contour>
      <point x="144" y="404" type="line"/>
      <point x="1052" y="404" type="line"/>
      <point x="1052" y="639" type="line"/>
      <point x="144" y="639" type="line"/>
    </contour>
  </outline>
</glyph>
<glyph name="greater" format="1">
  <advance width="1196"/>
  <unicode hex="003E"/>
  <outline>
    <contour>
      <point x="144" y="238" type="line"/>
      <point x="1052" y="628" type="line"/>
      <point x="1052" y="863" type="line"/>
      <point x="144" y="1253" type="line"/>
      <point x="144" y="994" type="line"/>
      <point x="744" y="745" type="line"/>
      <point x="144" y="497" type="line"/>
    </contour>
  </outline>
</glyph>
<glyph name="question" format="1">
  <advance width="936"/>
  <unicode hex="003F"/>
  <outline>
    <contour>
      <point x="291" y="284" type="line"/>
      <point x="523" y="284" type="line"/>
      <point x="523" y="335" type="line" smooth="yes"/>
      <point x="523" y="390"/>
      <point x="532" y="445"/>
      <point x="551" y="502" type="curve" smooth="yes"/>
      <point x="570" y="557"/>
      <point x="598.441284669" y="607.488789122"/>
      <point x="746" y="774" type="curve" smooth="yes"/>
      <point x="889.590945124" y="935.539813265"/>
      <point x="922.516193593" y="1141.9062773"/>
      <point x="861" y="1308" type="curve" smooth="yes"/>
      <point x="798.764936157" y="1470.99659578"/>
      <point x="654.292351079" y="1573.0"/>
      <point x="439" y="1573" type="curve" smooth="yes"/>
      <point x="300.429429476" y="1573.0"/>
      <point x="187.542978749" y="1524.61582981"/>
      <point x="109" y="1450" type="curve" smooth="yes"/>
      <point x="30.511536789" y="1371.51153679"/>
      <point x="-13.0" y="1263.59198263"/>
      <point x="-13" y="1129" type="curve" smooth="yes"/>
      <point x="-13" y="1078" type="line"/>
      <point x="230" y="1078" type="line"/>
      <point x="230" y="1129" type="line" smooth="yes"/>
      <point x="230.0" y="1253.8081895"/>
      <point x="306.745631589" y="1349.0"/>
      <point x="434" y="1349" type="curve" smooth="yes"/>
      <point x="458" y="1349" type="line"/>
      <point x="559.75167341" y="1339.74984787"/>
      <point x="638.0" y="1258.46803953"/>
      <point x="638" y="1134" type="curve" smooth="yes"/>
      <point x="638.0" y="1040.67520718"/>
      <point x="598" y="957"/>
      <point x="527" y="876" type="curve" smooth="yes"/>
      <point x="413.395876398" y="746.617525898"/>
      <point x="342.630229755" y="650.950181416"/>
      <point x="308" y="498" type="curve" smooth="yes"/>
      <point x="296" y="446"/>
      <point x="291" y="391"/>
      <point x="291" y="335" type="curve" smooth="yes"/>
    </contour>
    <contour>
      <point x="411" y="251" type="curve" smooth="yes"/>
      <point x="325.0" y="251.0"/>
      <point x="251.0" y="177.0"/>
      <point x="251" y="89" type="curve" smooth="yes"/>
      <point x="251.0" y="3.68719850055"/>
      <point x="326.317881681" y="-69.0"/>
      <point x="411" y="-69" type="curve" smooth="yes"/>
      <point x="499.0" y="-69.0"/>
      <point x="571.0" y="3.0"/>
      <point x="571" y="89" type="curve" smooth="yes"/>
      <point x="571.0" y="176.385677392"/>
      <point x="497.626363078" y="251.0"/>
    </contour>
  </outline>
</glyph>
<glyph name="at" format="1">
  <advance width="2137"/>
  <unicode hex="0040"/>
  <outline>
    <contour>
      <point x="1041" y="-525" type="curve" smooth="yes"/>
      <point x="1185" y="-525"/>
      <point x="1302" y="-509"/>
      <point x="1390" y="-477" type="curve" smooth="yes"/>
      <point x="1478" y="-445"/>
      <point x="1570" y="-395"/>
      <point x="1664" y="-325" type="curve" smooth="yes"/>
      <point x="1705" y="-294" type="line"/>
      <point x="1561" y="-101" type="line"/>
      <point x="1520" y="-133" type="line" smooth="yes"/>
      <point x="1444" y="-192"/>
      <point x="1374" y="-233"/>
      <point x="1310" y="-256" type="curve" smooth="yes"/>
      <point x="1246" y="-278"/>
      <point x="1159" y="-289"/>
      <point x="1049" y="-289" type="curve" smooth="yes"/>
      <point x="835" y="-297"/>
      <point x="652" y="-224"/>
      <point x="499" y="-74" type="curve" smooth="yes"/>
      <point x="345" y="78"/>
      <point x="268" y="266"/>
      <point x="268" y="489" type="curve" smooth="yes"/>
      <point x="268" y="731"/>
      <point x="348" y="944"/>
      <point x="507" y="1126" type="curve" smooth="yes"/>
      <point x="666" y="1307"/>
      <point x="874" y="1397"/>
      <point x="1131" y="1397" type="curve" smooth="yes"/>
      <point x="1390" y="1397"/>
      <point x="1586" y="1317"/>
      <point x="1717" y="1153" type="curve" smooth="yes"/>
      <point x="1849" y="988"/>
      <point x="1916" y="805"/>
      <point x="1916" y="606" type="curve" smooth="yes"/>
      <point x="1916" y="478"/>
      <point x="1887" y="371"/>
      <point x="1827" y="289" type="curve" smooth="yes"/>
      <point x="1763.40625" y="202.28125"/>
      <point x="1651.4" y="132.2"/>
      <point x="1570" y="184" type="curve" smooth="yes"/>
      <point x="1564" y="189"/>
      <point x="1566" y="200"/>
      <point x="1566" y="210" type="curve" smooth="yes"/>
      <point x="1566" y="746" type="line" smooth="yes"/>
      <point x="1566" y="906"/>
      <point x="1524" y="1013"/>
      <point x="1453" y="1073" type="curve" smooth="yes"/>
      <point x="1383" y="1132"/>
      <point x="1272" y="1165"/>
      <point x="1117" y="1165" type="curve" smooth="yes"/>
      <point x="933" y="1165"/>
      <point x="813" y="1137"/>
      <point x="750" y="1090" type="curve" smooth="yes"/>
      <point x="675" y="1033"/>
      <point x="644" y="975"/>
      <point x="644" y="920" type="curve" smooth="yes"/>
      <point x="644" y="776" type="line"/>
      <point x="884" y="776" type="line"/>
      <point x="884" y="878" type="line" smooth="yes"/>
      <point x="884" y="898"/>
      <point x="891" y="914"/>
      <point x="908" y="925" type="curve" smooth="yes"/>
      <point x="936" y="942"/>
      <point x="1007" y="947"/>
      <point x="1116" y="947" type="curve" smooth="yes"/>
      <point x="1214" y="947"/>
      <point x="1293" y="938"/>
      <point x="1307" y="884" type="curve" smooth="yes"/>
      <point x="1319" y="836"/>
      <point x="1326" y="787"/>
      <point x="1329" y="736" type="curve"/>
      <point x="1238" y="736" type="line" smooth="yes"/>
      <point x="1031" y="736"/>
      <point x="871" y="708"/>
      <point x="756" y="653" type="curve" smooth="yes"/>
      <point x="628" y="592"/>
      <point x="562" y="485"/>
      <point x="562" y="328" type="curve" smooth="yes"/>
      <point x="562" y="165"/>
      <point x="609" y="56"/>
      <point x="693" y="-6" type="curve" smooth="yes"/>
      <point x="773" y="-66"/>
      <point x="888" y="-94"/>
      <point x="1038" y="-85" type="curve" smooth="yes"/>
      <point x="1229.31731433" y="-73.4050112527"/>
      <point x="1321.11790639" y="-7.09925825741"/>
      <point x="1375" y="53" type="curve"/>
      <point x="1377" y="48" type="line" smooth="yes"/>
      <point x="1399" y="-13"/>
      <point x="1454" y="-54"/>
      <point x="1574" y="-54" type="curve"/>
      <point x="1574" y="-56" type="line"/>
      <point x="1596" y="-54" type="line"/>
      <point x="1832.80306455" y="-27.0224356842"/>
      <point x="1950" y="52"/>
      <point x="2030" y="172" type="curve" smooth="yes"/>
      <point x="2115" y="298"/>
      <point x="2158" y="443"/>
      <point x="2158" y="607" type="curve" smooth="yes"/>
      <point x="2158" y="868"/>
      <point x="2075" y="1102"/>
      <point x="1909" y="1311" type="curve" smooth="yes"/>
      <point x="1741" y="1521"/>
      <point x="1484" y="1629"/>
      <point x="1134" y="1629" type="curve" smooth="yes"/>
      <point x="1083" y="1629" type="line"/>
      <point x="1083" y="1627" type="line"/>
      <point x="749" y="1616"/>
      <point x="492" y="1498"/>
      <point x="310" y="1277" type="curve" smooth="yes"/>
      <point x="120" y="1047"/>
      <point x="25" y="785"/>
      <point x="25" y="493" type="curve" smooth="yes"/>
      <point x="25" y="230"/>
      <point x="113" y="-5"/>
      <point x="289" y="-212" type="curve" smooth="yes"/>
      <point x="466" y="-420"/>
      <point x="717" y="-525"/>
    </contour>
    <contour>
      <point x="1031" y="144" type="curve" smooth="yes"/>
      <point x="979" y="144"/>
      <point x="933" y="147"/>
      <point x="897" y="156" type="curve" smooth="yes"/>
      <point x="844.216661123" y="166.920690802"/>
      <point x="815.316045947" y="186.393839185"/>
      <point x="802" y="233" type="curve" smooth="yes"/>
      <point x="794" y="260"/>
      <point x="791" y="293"/>
      <point x="792" y="332" type="curve"/>
      <point x="789" y="403"/>
      <point x="822" y="449"/>
      <point x="888" y="474" type="curve" smooth="yes"/>
      <point x="973" y="507"/>
      <point x="1090" y="520"/>
      <point x="1239" y="516" type="curve" smooth="yes"/>
      <point x="1331" y="516" type="line"/>
      <point x="1331" y="489" type="line"/>
      <point x="1331.0" y="429.399115451"/>
      <point x="1303.48286569" y="346.698141045"/>
      <point x="1247" y="261" type="curve" smooth="yes"/>
      <point x="1196.17044666" y="179.672714649"/>
      <point x="1123.49052724" y="145.967883558"/>
    </contour>
  </outline>
</glyph>
<glyph name="A" format="1">
  <advance width="1307"/>
  <unicode hex="0041"/>
  <outline>
    <contour>
      <point x="835" y="657" type="line"/>
      <point x="483" y="657" type="line"/>
      <point x="656" y="1215" type="line"/>
    </contour>
    <contour>
      <point x="-60" y="-51" type="line"/>
      <point x="155" y="-51" type="line" smooth="yes"/>
      <point x="185" y="-51"/>
      <point x="210" y="-44"/>
      <point x="232" y="-30" type="curve" smooth="yes"/>
      <point x="255" y="-15"/>
      <point x="272" y="7"/>
      <point x="282" y="37" type="curve" smooth="yes"/>
      <point x="411" y="425" type="line"/>
      <point x="900" y="425" type="line"/>
      <point x="1034" y="36" type="line" smooth="yes"/>
      <point x="1044" y="8"/>
      <point x="1061" y="-14"/>
      <point x="1084" y="-29" type="curve" smooth="yes"/>
      <point x="1106" y="-43"/>
      <point x="1131" y="-51"/>
      <point x="1161" y="-51" type="curve" smooth="yes"/>
      <point x="1367" y="-51" type="line"/>
      <point x="1367" y="181" type="line"/>
      <point x="1237" y="181" type="line"/>
      <point x="795" y="1546" type="line"/>
      <point x="520" y="1546" type="line"/>
      <point x="80" y="181" type="line"/>
      <point x="-60" y="181" type="line"/>
    </contour>
  </outline>
</glyph>
<glyph name="B" format="1">
  <advance width="1243"/>
  <unicode hex="0042"/>
  <outline>
    <contour>
      <point x="186" y="-51" type="line"/>
      <point x="698" y="-51" type="line" smooth="yes"/>
      <point x="1030" y="-51"/>
      <point x="1197" y="174"/>
      <point x="1197" y="420" type="curve" smooth="yes"/>
      <point x="1197" y="594"/>
      <point x="1110" y="717"/>
      <point x="991" y="783" type="curve"/>
      <point x="1086" y="863"/>
      <point x="1131" y="986"/>
      <point x="1131" y="1101" type="curve" smooth="yes"/>
      <point x="1131" y="1407"/>
      <point x="941" y="1546"/>
      <point x="626" y="1546" type="curve" smooth="yes"/>
      <point x="49" y="1546" type="line"/>
      <point x="49" y="1314" type="line"/>
      <point x="186" y="1314" type="line"/>
    </contour>
    <contour>
      <point x="616" y="1314" type="line" smooth="yes"/>
      <point x="791" y="1314"/>
      <point x="885" y="1248"/>
      <point x="885" y="1102" type="curve" smooth="yes"/>
      <point x="885" y="972"/>
      <point x="795" y="875"/>
      <point x="658" y="875" type="curve" smooth="yes"/>
      <point x="433" y="875" type="line"/>
      <point x="433" y="1314" type="line"/>
    </contour>
    <contour>
      <point x="658" y="643" type="line" smooth="yes"/>
      <point x="828" y="643"/>
      <point x="953" y="592"/>
      <point x="953" y="423" type="curve" smooth="yes"/>
      <point x="953" y="266"/>
      <point x="856" y="180"/>
      <point x="695" y="180" type="curve" smooth="yes"/>
      <point x="434" y="180" type="line"/>
      <point x="434" y="643" type="line"/>
    </contour>
  </outline>
</glyph>
<glyph name="C" format="1">
  <advance width="1400"/>
  <unicode hex="0043"/>
  <outline>
    <contour>
      <point x="1483" y="272" type="curve" smooth="yes"/>
      <point x="1513" y="313" type="line"/>
      <point x="1315" y="459" type="line"/>
      <point x="1285" y="416" type="line" smooth="yes"/>
      <point x="1171" y="251"/>
      <point x="982" y="172"/>
      <point x="821" y="172" type="curve" smooth="yes"/>
      <point x="464" y="172"/>
      <point x="237" y="421"/>
      <point x="237" y="790" type="curve" smooth="yes"/>
      <point x="237" y="1105"/>
      <point x="481" y="1340"/>
      <point x="833" y="1340" type="curve" smooth="yes"/>
      <point x="934" y="1340"/>
      <point x="1058" y="1317"/>
      <point x="1142" y="1268" type="curve" smooth="yes"/>
      <point x="1191" y="1240"/>
      <point x="1230" y="1204"/>
      <point x="1230" y="1139" type="curve" smooth="yes"/>
      <point x="1230" y="1054" type="line"/>
      <point x="1471" y="1054" type="line"/>
      <point x="1471" y="1152" type="line" smooth="yes"/>
      <point x="1472" y="1318"/>
      <point x="1401" y="1417"/>
      <point x="1253" y="1492" type="curve" smooth="yes"/>
      <point x="1167" y="1536"/>
      <point x="1025" y="1585"/>
      <point x="832" y="1585" type="curve" smooth="yes"/>
      <point x="331" y="1585"/>
      <point x="-10" y="1258"/>
      <point x="-10" y="767" type="curve" smooth="yes"/>
      <point x="-10" y="270"/>
      <point x="317" y="-73"/>
      <point x="815" y="-73" type="curve" smooth="yes"/>
      <point x="1083" y="-73"/>
      <point x="1314" y="41"/>
    </contour>
  </outline>
</glyph>
<glyph name="D" format="1">
  <advance width="1414"/>
  <unicode hex="0044"/>
  <outline>
    <contour>
      <point x="151" y="-51" type="line"/>
      <point x="602" y="-51" type="line" smooth="yes"/>
      <point x="1101" y="-51"/>
      <point x="1396" y="287"/>
      <point x="1396" y="749" type="curve" smooth="yes"/>
      <point x="1396" y="1207"/>
      <point x="1099" y="1548"/>
      <point x="602" y="1548" type="curve" smooth="yes"/>
      <point x="15" y="1548" type="line"/>
      <point x="15" y="1314" type="line"/>
      <point x="151" y="1314" type="line"/>
    </contour>
    <contour>
      <point x="610" y="1315" type="line" smooth="yes"/>
      <point x="942" y="1315"/>
      <point x="1143" y="1064"/>
      <point x="1143" y="750" type="curve" smooth="yes"/>
      <point x="1143" y="438"/>
      <point x="946" y="182"/>
      <point x="610" y="182" type="curve" smooth="yes"/>
      <point x="399" y="182" type="line"/>
      <point x="399" y="1315" type="line"/>
    </contour>
  </outline>
</glyph>
<glyph name="E" format="1">
  <advance width="1167"/>
  <unicode hex="0045"/>
  <outline>
    <contour>
      <point x="183" y="-51" type="line"/>
      <point x="1006" y="-51" type="line" smooth="yes"/>
      <point x="1044" y="-51"/>
      <point x="1071" y="-39"/>
      <point x="1090" y="-20" type="curve" smooth="yes"/>
      <point x="1109" y="-1"/>
      <point x="1121" y="26"/>
      <point x="1121" y="64" type="curve" smooth="yes"/>
      <point x="1121" y="312" type="line"/>
      <point x="881" y="312" type="line"/>
      <point x="881" y="182" type="line"/>
      <point x="424" y="182" type="line"/>
      <point x="424" y="644" type="line"/>
      <point x="1006" y="644" type="line"/>
      <point x="1006" y="876" type="line"/>
      <point x="424" y="876" type="line"/>
      <point x="424" y="1315" type="line"/>
      <point x="881" y="1315" type="line"/>
      <point x="881" y="1185" type="line"/>
      <point x="1121" y="1185" type="line"/>
      <point x="1121" y="1433" type="line" smooth="yes"/>
      <point x="1121" y="1471"/>
      <point x="1109" y="1498"/>
      <point x="1091" y="1516" type="curve" smooth="yes"/>
      <point x="1073" y="1534"/>
      <point x="1048" y="1546"/>
      <point x="1009" y="1546" type="curve" smooth="yes"/>
      <point x="47" y="1546" type="line"/>
      <point x="47" y="1315" type="line"/>
      <point x="183" y="1315" type="line"/>
    </contour>
  </outline>
</glyph>
<glyph name="F" format="1">
  <advance width="1156"/>
  <unicode hex="0046"/>
  <outline>
    <contour>
      <point x="204" y="-52" type="line"/>
      <point x="452" y="-52" type="line"/>
      <point x="452" y="643" type="line"/>
      <point x="998" y="643" type="line"/>
      <point x="998" y="875" type="line"/>
      <point x="451" y="875" type="line"/>
      <point x="451" y="1314" type="line"/>
      <point x="864" y="1314" type="line"/>
      <point x="864" y="1184" type="line"/>
      <point x="1104" y="1184" type="line"/>
      <point x="1104" y="1432" type="line" smooth="yes"/>
      <point x="1104" y="1470"/>
      <point x="1092" y="1497"/>
      <point x="1074" y="1515" type="curve" smooth="yes"/>
      <point x="1056" y="1533"/>
      <point x="1029" y="1545"/>
      <point x="991" y="1545" type="curve" smooth="yes"/>
      <point x="68" y="1545" type="line"/>
      <point x="68" y="1314" type="line"/>
      <point x="204" y="1314" type="line"/>
    </contour>
  </outline>
</glyph>
<glyph name="G" format="1">
  <advance width="1426"/>
  <unicode hex="0047"/>
  <outline>
    <contour>
      <point x="1359" y="167" type="curve" smooth="yes"/>
      <point x="1420" y="229"/>
      <point x="1447" y="290"/>
      <point x="1447" y="345" type="curve" smooth="yes"/>
      <point x="1447" y="634" type="line" smooth="yes"/>
      <point x="1447" y="759"/>
      <point x="1393" y="816"/>
      <point x="1265" y="816" type="curve" smooth="yes"/>
      <point x="791" y="816" type="line"/>
      <point x="791" y="581" type="line"/>
      <point x="1204" y="581" type="line"/>
      <point x="1204" y="360" type="line"/>
      <point x="1171" y="293"/>
      <point x="978" y="165"/>
      <point x="789" y="165" type="curve" smooth="yes"/>
      <point x="473" y="165"/>
      <point x="229" y="429"/>
      <point x="229" y="758" type="curve" smooth="yes"/>
      <point x="229" y="1081"/>
      <point x="461" y="1343"/>
      <point x="778" y="1343" type="curve" smooth="yes"/>
      <point x="930" y="1343"/>
      <point x="1083" y="1273"/>
      <point x="1172" y="1198" type="curve" smooth="yes"/>
      <point x="1192" y="1181"/>
      <point x="1202" y="1173"/>
      <point x="1202" y="1173" type="curve" smooth="yes"/>
      <point x="1242" y="1141" type="line"/>
      <point x="1398" y="1338" type="line"/>
      <point x="1357" y="1369" type="line" smooth="yes"/>
      <point x="1357" y="1369"/>
      <point x="1344" y="1380"/>
      <point x="1317" y="1399" type="curve" smooth="yes"/>
      <point x="1168" y="1508"/>
      <point x="1024" y="1581"/>
      <point x="779" y="1581" type="curve" smooth="yes"/>
      <point x="330" y="1581"/>
      <point x="-23" y="1215"/>
      <point x="-23" y="757" type="curve" smooth="yes"/>
      <point x="-23" y="291"/>
      <point x="336" y="-73"/>
      <point x="787" y="-73" type="curve" smooth="yes"/>
      <point x="1028" y="-73"/>
      <point x="1239" y="40"/>
    </contour>
    <contour>
      <point x="1206" y="365" type="line" smooth="yes"/>
      <point x="1206" y="364"/>
      <point x="1205" y="363"/>
      <point x="1205" y="362" type="curve"/>
      <point x="1207" y="368"/>
      <point x="1206" y="367"/>
      <point x="1206" y="366" type="curve"/>
    </contour>
  </outline>
</glyph>
<glyph name="H" format="1">
  <advance width="1551"/>
  <unicode hex="0048"/>
  <outline>
    <contour>
      <point x="194" y="-51" type="line"/>
      <point x="443" y="-51" type="line"/>
      <point x="443" y="644" type="line"/>
      <point x="1106" y="644" type="line"/>
      <point x="1106" y="-51" type="line"/>
      <point x="1353" y="-51" type="line"/>
      <point x="1353" y="1314" type="line"/>
      <point x="1480" y="1314" type="line"/>
      <point x="1480" y="1546" type="line"/>
      <point x="1220" y="1546" type="line" smooth="yes"/>
      <point x="1142" y="1546"/>
      <point x="1105" y="1510"/>
      <point x="1105" y="1433" type="curve" smooth="yes"/>
      <point x="1105" y="876" type="line"/>
      <point x="442" y="876" type="line"/>
      <point x="442" y="1433" type="line" smooth="yes"/>
      <point x="442" y="1511"/>
      <point x="407" y="1546"/>
      <point x="329" y="1546" type="curve" smooth="yes"/>
      <point x="68" y="1546" type="line"/>
      <point x="68" y="1314" type="line"/>
      <point x="194" y="1314" type="line"/>
    </contour>
  </outline>
</glyph>
<glyph name="I" format="1">
  <advance width="698"/>
  <unicode hex="0049"/>
  <outline>
    <contour>
      <point x="89" y="-51" type="line"/>
      <point x="609" y="-51" type="line"/>
      <point x="609" y="181" type="line"/>
      <point x="473" y="181" type="line"/>
      <point x="473" y="1314" type="line"/>
      <point x="609" y="1314" type="line"/>
      <point x="609" y="1546" type="line"/>
      <point x="89" y="1546" type="line"/>
      <point x="89" y="1314" type="line"/>
      <point x="225" y="1314" type="line"/>
      <point x="225" y="181" type="line"/>
      <point x="89" y="181" type="line"/>
    </contour>
  </outline>
</glyph>
<glyph name="J" format="1">
  <advance width="1090"/>
  <unicode hex="004A"/>
  <outline>
    <contour>
      <point x="560" y="-53" type="curve" smooth="yes"/>
      <point x="874" y="-53"/>
      <point x="1054" y="123"/>
      <point x="1054" y="446" type="curve" smooth="yes"/>
      <point x="1054" y="1431" type="line" smooth="yes"/>
      <point x="1054" y="1470"/>
      <point x="1040" y="1498"/>
      <point x="1020" y="1516" type="curve" smooth="yes"/>
      <point x="1008" y="1527"/>
      <point x="991" y="1536"/>
      <point x="969" y="1541" type="curve"/>
      <point x="966" y="1546" type="line"/>
      <point x="422" y="1546" type="line"/>
      <point x="422" y="1314" type="line"/>
      <point x="805" y="1314" type="line"/>
      <point x="805" y="453" type="line" smooth="yes"/>
      <point x="805" y="267"/>
      <point x="721" y="180"/>
      <point x="557" y="180" type="curve" smooth="yes"/>
      <point x="400" y="180"/>
      <point x="276" y="281"/>
      <point x="276" y="452" type="curve" smooth="yes"/>
      <point x="276" y="558" type="line"/>
      <point x="27" y="558" type="line"/>
      <point x="27" y="446" type="line"/>
      <point x="27" y="125"/>
      <point x="247" y="-53"/>
    </contour>
  </outline>
</glyph>
<glyph name="K" format="1">
  <advance width="1343"/>
  <unicode hex="004B"/>
  <outline>
    <contour>
      <point x="221" y="-52" type="line"/>
      <point x="470" y="-52" type="line"/>
      <point x="470" y="653" type="line"/>
      <point x="577" y="653" type="line"/>
      <point x="976" y="22" type="line" smooth="yes"/>
      <point x="1003" y="-21"/>
      <point x="1058" y="-52"/>
      <point x="1105" y="-52" type="curve"/>
      <point x="1316" y="-52" type="line"/>
      <point x="1316" y="181" type="line"/>
      <point x="1158" y="181" type="line"/>
      <point x="792" y="762" type="line"/>
      <point x="1358" y="1538" type="line"/>
      <point x="1354" y="1546" type="line"/>
      <point x="1071" y="1546" type="line"/>
      <point x="586" y="885" type="line"/>
      <point x="469" y="885" type="line"/>
      <point x="469" y="1426" type="line" smooth="yes"/>
      <point x="469" y="1501"/>
      <point x="425" y="1545"/>
      <point x="350" y="1545" type="curve" smooth="yes"/>
      <point x="86" y="1545" type="line"/>
      <point x="86" y="1313" type="line"/>
      <point x="221" y="1313" type="line"/>
    </contour>
  </outline>
</glyph>
<glyph name="L" format="1">
  <advance width="1027"/>
  <unicode hex="004C"/>
  <outline>
    <contour>
      <point x="221" y="-51" type="line"/>
      <point x="943" y="-51" type="line" smooth="yes"/>
      <point x="1020" y="-51"/>
      <point x="1056" y="-14"/>
      <point x="1056" y="64" type="curve" smooth="yes"/>
      <point x="1056" y="312" type="line"/>
      <point x="830" y="312" type="line"/>
      <point x="830" y="182" type="line"/>
      <point x="468" y="182" type="line"/>
      <point x="469" y="1546" type="line"/>
      <point x="85" y="1546" type="line"/>
      <point x="85" y="1314" type="line"/>
      <point x="221" y="1314" type="line"/>
    </contour>
  </outline>
</glyph>
<glyph name="M" format="1">
  <advance width="1971"/>
  <unicode hex="004D"/>
  <outline>
    <contour>
      <point x="390" y="-51" type="line" smooth="yes"/>
      <point x="427" y="-51"/>
      <point x="453" y="-40"/>
      <point x="472" y="-23" type="curve" smooth="yes"/>
      <point x="492" y="-5"/>
      <point x="505" y="21"/>
      <point x="507" y="56" type="curve" smooth="yes"/>
      <point x="567" y="1027" type="line"/>
      <point x="887" y="160" type="line"/>
      <point x="1111" y="160" type="line"/>
      <point x="1454" y="1039" type="line"/>
      <point x="1517" y="56" type="line" smooth="yes"/>
      <point x="1519" y="21"/>
      <point x="1532" y="-5"/>
      <point x="1552" y="-23" type="curve" smooth="yes"/>
      <point x="1571" y="-40"/>
      <point x="1598" y="-51"/>
      <point x="1633" y="-51" type="curve" smooth="yes"/>
      <point x="1891" y="-51" type="line"/>
      <point x="1890" y="181" type="line"/>
      <point x="1751" y="181" type="line"/>
      <point x="1666" y="1546" type="line"/>
      <point x="1464" y="1546" type="line" smooth="yes"/>
      <point x="1436" y="1546"/>
      <point x="1411" y="1539"/>
      <point x="1392" y="1525" type="curve" smooth="yes"/>
      <point x="1372" y="1512"/>
      <point x="1355" y="1491"/>
      <point x="1345" y="1462" type="curve" smooth="yes"/>
      <point x="998" y="556" type="line"/>
      <point x="675" y="1462" type="line" smooth="yes"/>
      <point x="665" y="1491"/>
      <point x="648" y="1512"/>
      <point x="628" y="1525" type="curve" smooth="yes"/>
      <point x="609" y="1539"/>
      <point x="584" y="1546"/>
      <point x="556" y="1546" type="curve" smooth="yes"/>
      <point x="345" y="1546" type="line"/>
      <point x="271" y="181" type="line"/>
      <point x="132" y="181" type="line"/>
      <point x="132" y="-51" type="line"/>
    </contour>
  </outline>
</glyph>
<glyph name="N" format="1">
  <advance width="1584"/>
  <unicode hex="004E"/>
  <outline>
    <contour>
      <point x="354" y="-50" type="line" smooth="yes"/>
      <point x="393" y="-50"/>
      <point x="421" y="-37"/>
      <point x="439" y="-17" type="curve" smooth="yes"/>
      <point x="456" y="2"/>
      <point x="467" y="28"/>
      <point x="467" y="65" type="curve" smooth="yes"/>
      <point x="467" y="1081" type="line"/>
      <point x="1068" y="18" type="line" smooth="yes"/>
      <point x="1079" y="-3"/>
      <point x="1096" y="-20"/>
      <point x="1118" y="-32" type="curve" smooth="yes"/>
      <point x="1138" y="-43"/>
      <point x="1161" y="-49"/>
      <point x="1187" y="-49" type="curve" smooth="yes"/>
      <point x="1377" y="-49" type="line"/>
      <point x="1380" y="1314" type="line"/>
      <point x="1515" y="1314" type="line"/>
      <point x="1515" y="1546" type="line"/>
      <point x="1244" y="1546" type="line" smooth="yes"/>
      <point x="1206" y="1546"/>
      <point x="1179" y="1534"/>
      <point x="1161" y="1516" type="curve" smooth="yes"/>
      <point x="1143" y="1498"/>
      <point x="1131" y="1471"/>
      <point x="1131" y="1433" type="curve" smooth="yes"/>
      <point x="1131" y="417" type="line"/>
      <point x="531" y="1480" type="line" smooth="yes"/>
      <point x="517" y="1504"/>
      <point x="498" y="1522"/>
      <point x="474" y="1532" type="curve" smooth="yes"/>
      <point x="455" y="1540"/>
      <point x="435" y="1545"/>
      <point x="414" y="1547" type="curve"/>
      <point x="219" y="1547" type="line"/>
      <point x="219" y="182" type="line"/>
      <point x="84" y="182" type="line"/>
      <point x="84" y="-50" type="line"/>
    </contour>
  </outline>
</glyph>
<glyph name="O" format="1">
  <advance width="1633"/>
  <unicode hex="004F"/>
  <outline>
    <contour>
      <point x="815" y="-71" type="curve" smooth="yes"/>
      <point x="1278" y="-71"/>
      <point x="1641" y="242"/>
      <point x="1641" y="753" type="curve" smooth="yes"/>
      <point x="1641" y="1216"/>
      <point x="1326" y="1581"/>
      <point x="815" y="1581" type="curve" smooth="yes"/>
      <point x="353" y="1581"/>
      <point x="-11" y="1266"/>
      <point x="-11" y="753" type="curve" smooth="yes"/>
      <point x="-11" y="293"/>
      <point x="302" y="-71"/>
    </contour>
    <contour>
      <point x="814" y="1343" type="curve" smooth="yes"/>
      <point x="1140" y="1343"/>
      <point x="1389" y="1119"/>
      <point x="1389" y="754" type="curve" smooth="yes"/>
      <point x="1389" y="424"/>
      <point x="1173" y="167"/>
      <point x="814" y="167" type="curve" smooth="yes"/>
      <point x="488" y="167"/>
      <point x="241" y="389"/>
      <point x="241" y="754" type="curve" smooth="yes"/>
      <point x="241" y="1090"/>
      <point x="456" y="1343"/>
    </contour>
  </outline>
</glyph>
<glyph name="P" format="1">
  <advance width="1252"/>
  <unicode hex="0050"/>
  <outline>
    <contour>
      <point x="195" y="-49" type="line"/>
      <point x="443" y="-49" type="line"/>
      <point x="443" y="580" type="line"/>
      <point x="642" y="580" type="line" smooth="yes"/>
      <point x="955" y="580"/>
      <point x="1207" y="742"/>
      <point x="1207" y="1065" type="curve" smooth="yes"/>
      <point x="1207" y="1375"/>
      <point x="975" y="1548"/>
      <point x="642" y="1548" type="curve" smooth="yes"/>
      <point x="59" y="1548" type="line"/>
      <point x="59" y="1316" type="line"/>
      <point x="195" y="1316" type="line"/>
    </contour>
    <contour>
      <point x="642" y="1316" type="line" smooth="yes"/>
      <point x="816" y="1316"/>
      <point x="955" y="1251"/>
      <point x="955" y="1066" type="curve" smooth="yes"/>
      <point x="955" y="886"/>
      <point x="825" y="812"/>
      <point x="642" y="812" type="curve" smooth="yes"/>
      <point x="444" y="812" type="line"/>
      <point x="444" y="1316" type="line"/>
    </contour>
  </outline>
</glyph>
<glyph name="Q" format="1">
  <advance width="1678"/>
  <unicode hex="0051"/>
  <outline>
    <contour>
      <point x="1505" y="-96" type="line"/>
      <point x="1671" y="70" type="line"/>
      <point x="1506" y="236" type="line"/>
      <point x="1608" y="370"/>
      <point x="1668" y="545"/>
      <point x="1668" y="753" type="curve" smooth="yes"/>
      <point x="1668" y="1216"/>
      <point x="1353" y="1581"/>
      <point x="842" y="1581" type="curve" smooth="yes"/>
      <point x="380" y="1581"/>
      <point x="16" y="1266"/>
      <point x="16" y="753" type="curve" smooth="yes"/>
      <point x="16" y="293"/>
      <point x="329" y="-71"/>
      <point x="842" y="-71" type="curve" smooth="yes"/>
      <point x="1028" y="-71"/>
      <point x="1199" y="-20"/>
      <point x="1336" y="74" type="curve"/>
    </contour>
    <contour>
      <point x="841" y="167" type="curve" smooth="yes"/>
      <point x="515" y="167"/>
      <point x="268" y="389"/>
      <point x="268" y="754" type="curve" smooth="yes"/>
      <point x="268" y="1090"/>
      <point x="483" y="1343"/>
      <point x="841" y="1343" type="curve" smooth="yes"/>
      <point x="1167" y="1343"/>
      <point x="1416" y="1119"/>
      <point x="1416" y="754" type="curve" smooth="yes"/>
      <point x="1416" y="628"/>
      <point x="1384" y="512"/>
      <point x="1325" y="417" type="curve"/>
      <point x="1159" y="584" type="line"/>
      <point x="993" y="417" type="line"/>
      <point x="1158" y="251" type="line"/>
      <point x="1072" y="198"/>
      <point x="965" y="167"/>
    </contour>
  </outline>
</glyph>
<glyph name="R" format="1">
  <advance width="1391"/>
  <unicode hex="0052"/>
  <outline>
    <contour>
      <point x="1114" y="-51" type="curve" smooth="yes"/>
      <point x="1372" y="-51" type="line"/>
      <point x="1372" y="181" type="line"/>
      <point x="1195" y="181" type="line"/>
      <point x="1060" y="508" type="line" smooth="yes"/>
      <point x="1038" y="563"/>
      <point x="1001" y="624"/>
      <point x="955" y="670" type="curve"/>
      <point x="1101" y="742"/>
      <point x="1197" y="867"/>
      <point x="1197" y="1065" type="curve" smooth="yes"/>
      <point x="1197" y="1375"/>
      <point x="965" y="1548"/>
      <point x="632" y="1548" type="curve" smooth="yes"/>
      <point x="49" y="1548" type="line"/>
      <point x="49" y="1316" type="line"/>
      <point x="185" y="1316" type="line"/>
      <point x="185" y="-49" type="line"/>
      <point x="433" y="-49" type="line"/>
      <point x="433" y="580" type="line"/>
      <point x="580" y="580" type="line" smooth="yes"/>
      <point x="697" y="579"/>
      <point x="724" y="567"/>
      <point x="742" y="555" type="curve" smooth="yes"/>
      <point x="771" y="535"/>
      <point x="793" y="497"/>
      <point x="815" y="447" type="curve" smooth="yes"/>
      <point x="993" y="27" type="line" smooth="yes"/>
      <point x="1005" y="1"/>
      <point x="1021" y="-18"/>
      <point x="1041" y="-30" type="curve" smooth="yes"/>
      <point x="1060" y="-43"/>
      <point x="1084" y="-51"/>
    </contour>
    <contour>
      <point x="632" y="1316" type="line" smooth="yes"/>
      <point x="806" y="1316"/>
      <point x="945" y="1251"/>
      <point x="945" y="1066" type="curve" smooth="yes"/>
      <point x="945" y="886"/>
      <point x="815" y="812"/>
      <point x="632" y="812" type="curve" smooth="yes"/>
      <point x="434" y="812" type="line"/>
      <point x="434" y="1316" type="line"/>
    </contour>
  </outline>
</glyph>
<glyph name="S" format="1">
  <advance width="1185"/>
  <unicode hex="0053"/>
  <outline>
    <contour>
      <point x="609" y="-71" type="curve" smooth="yes"/>
      <point x="903" y="-71"/>
      <point x="1151" y="113"/>
      <point x="1151" y="398" type="curve" smooth="yes"/>
      <point x="1151" y="721"/>
      <point x="890" y="804"/>
      <point x="653" y="894" type="curve" smooth="yes"/>
      <point x="480" y="960"/>
      <point x="334" y="1010"/>
      <point x="334" y="1159" type="curve" smooth="yes"/>
      <point x="334" y="1297"/>
      <point x="465" y="1343"/>
      <point x="610" y="1343" type="curve" smooth="yes"/>
      <point x="703" y="1343"/>
      <point x="792" y="1326"/>
      <point x="855" y="1295" type="curve" smooth="yes"/>
      <point x="883" y="1281"/>
      <point x="889" y="1264"/>
      <point x="889" y="1231" type="curve" smooth="yes"/>
      <point x="889" y="1122" type="line"/>
      <point x="1120" y="1117" type="line"/>
      <point x="1118" y="1266" type="line" smooth="yes"/>
      <point x="1117" y="1394"/>
      <point x="1057" y="1457"/>
      <point x="979" y="1502" type="curve" smooth="yes"/>
      <point x="871" y="1565"/>
      <point x="715" y="1580"/>
      <point x="620" y="1580" type="curve" smooth="yes"/>
      <point x="284" y="1580"/>
      <point x="82" y="1415"/>
      <point x="82" y="1151" type="curve"/>
      <point x="82" y="866"/>
      <point x="311" y="752"/>
      <point x="572" y="656" type="curve" smooth="yes"/>
      <point x="715" y="604"/>
      <point x="900" y="551"/>
      <point x="900" y="371" type="curve" smooth="yes"/>
      <point x="900" y="237"/>
      <point x="749" y="166"/>
      <point x="620" y="166" type="curve" smooth="yes"/>
      <point x="430" y="166"/>
      <point x="315" y="289"/>
      <point x="254" y="401" type="curve" smooth="yes"/>
      <point x="229" y="445" type="line"/>
      <point x="14" y="330" type="line"/>
      <point x="35" y="286" type="line" smooth="yes"/>
      <point x="135" y="77"/>
      <point x="327" y="-71"/>
    </contour>
  </outline>
</glyph>
<glyph name="T" format="1">
  <advance width="1123"/>
  <unicode hex="0054"/>
  <outline>
    <contour>
      <point x="437" y="-51" type="line"/>
      <point x="685" y="-51" type="line"/>
      <point x="685" y="1314" type="line"/>
      <point x="897" y="1314" type="line"/>
      <point x="897" y="1184" type="line"/>
      <point x="1135" y="1184" type="line"/>
      <point x="1135" y="1432" type="line" smooth="yes"/>
      <point x="1135" y="1509"/>
      <point x="1098" y="1545"/>
      <point x="1020" y="1545" type="curve" smooth="yes"/>
      <point x="102" y="1545" type="line" smooth="yes"/>
      <point x="24" y="1545"/>
      <point x="-13" y="1509"/>
      <point x="-13" y="1432" type="curve" smooth="yes"/>
      <point x="-13" y="1381" type="line"/>
      <point x="-12" y="1381" type="line"/>
      <point x="-12" y="1184" type="line"/>
      <point x="226" y="1184" type="line"/>
      <point x="226" y="1314" type="line"/>
      <point x="437" y="1314" type="line"/>
    </contour>
  </outline>
</glyph>
<glyph name="U" format="1">
  <advance width="1460"/>
  <unicode hex="0055"/>
  <outline>
    <contour>
      <point x="725" y="-71" type="curve" smooth="yes"/>
      <point x="1106" y="-71"/>
      <point x="1295" y="153"/>
      <point x="1295" y="554" type="curve" smooth="yes"/>
      <point x="1296" y="1314" type="line"/>
      <point x="1432" y="1314" type="line"/>
      <point x="1432" y="1546" type="line"/>
      <point x="1166" y="1546" type="line" smooth="yes"/>
      <point x="1086" y="1546"/>
      <point x="1048" y="1509"/>
      <point x="1048" y="1433" type="curve" smooth="yes"/>
      <point x="1048" y="561" type="line" smooth="yes"/>
      <point x="1048" y="319"/>
      <point x="959" y="177"/>
      <point x="727" y="177" type="curve" smooth="yes"/>
      <point x="496" y="177"/>
      <point x="411" y="320"/>
      <point x="411" y="561" type="curve" smooth="yes"/>
      <point x="411" y="1433" type="line" smooth="yes"/>
      <point x="411" y="1524"/>
      <point x="394" y="1546"/>
      <point x="310" y="1546" type="curve" smooth="yes"/>
      <point x="27" y="1546" type="line"/>
      <point x="27" y="1314" type="line"/>
      <point x="163" y="1314" type="line"/>
      <point x="163" y="554" type="line" smooth="yes"/>
      <point x="163" y="158"/>
      <point x="346" y="-71"/>
    </contour>
  </outline>
</glyph>
<glyph name="V" format="1">
  <advance width="1436"/>
  <unicode hex="0056"/>
  <outline>
    <contour>
      <point x="573" y="-51" type="line"/>
      <point x="860" y="-51" type="line"/>
      <point x="1298" y="1314" type="line"/>
      <point x="1447" y="1314" type="line"/>
      <point x="1447" y="1546" type="line"/>
      <point x="1203" y="1546" type="line" smooth="yes"/>
      <point x="1140" y="1546"/>
      <point x="1105" y="1519"/>
      <point x="1085" y="1458" type="curve" smooth="yes"/>
      <point x="718" y="303" type="line"/>
      <point x="351" y="1457" type="line" smooth="yes"/>
      <point x="334" y="1518"/>
      <point x="296" y="1546"/>
      <point x="231" y="1546" type="curve" smooth="yes"/>
      <point x="-13" y="1546" type="line"/>
      <point x="-13" y="1314" type="line"/>
      <point x="136" y="1314" type="line"/>
    </contour>
  </outline>
</glyph>
<glyph name="W" format="1">
  <advance width="2005"/>
  <unicode hex="0057"/>
  <outline>
    <contour>
      <point x="740" y="-51" type="line"/>
      <point x="1002" y="1112" type="line"/>
      <point x="1265" y="-51" type="line"/>
      <point x="1572" y="-51" type="line"/>
      <point x="1871" y="1314" type="line"/>
      <point x="2017" y="1314" type="line"/>
      <point x="2017" y="1546" type="line"/>
      <point x="1773" y="1546" type="line" smooth="yes"/>
      <point x="1740" y="1546"/>
      <point x="1714" y="1538"/>
      <point x="1694" y="1523" type="curve" smooth="yes"/>
      <point x="1684" y="1515"/>
      <point x="1675" y="1505"/>
      <point x="1667" y="1493" type="curve"/>
      <point x="1660" y="1493" type="line"/>
      <point x="1423" y="361" type="line"/>
      <point x="1163" y="1442" type="line" smooth="yes"/>
      <point x="1155" y="1473"/>
      <point x="1143" y="1496"/>
      <point x="1129" y="1512" type="curve" smooth="yes"/>
      <point x="1111" y="1532"/>
      <point x="1083" y="1546"/>
      <point x="1043" y="1546" type="curve" smooth="yes"/>
      <point x="961" y="1546" type="line" smooth="yes"/>
      <point x="922" y="1546"/>
      <point x="894" y="1532"/>
      <point x="876" y="1512" type="curve" smooth="yes"/>
      <point x="862" y="1496"/>
      <point x="850" y="1473"/>
      <point x="842" y="1442" type="curve" smooth="yes"/>
      <point x="582" y="355" type="line"/>
      <point x="352" y="1452" type="line" smooth="yes"/>
      <point x="345" y="1485"/>
      <point x="330" y="1507"/>
      <point x="309" y="1523" type="curve" smooth="yes"/>
      <point x="289" y="1538"/>
      <point x="264" y="1546"/>
      <point x="232" y="1546" type="curve" smooth="yes"/>
      <point x="-12" y="1546" type="line"/>
      <point x="-12" y="1314" type="line"/>
      <point x="134" y="1314" type="line"/>
      <point x="433" y="-51" type="line"/>
    </contour>
  </outline>
</glyph>
<glyph name="X" format="1">
  <advance width="1367"/>
  <unicode hex="0058"/>
  <outline>
    <contour>
      <point x="299" y="-51" type="line"/>
      <point x="688" y="586" type="line"/>
      <point x="1072" y="-51" type="line"/>
      <point x="1355" y="-51" type="line"/>
      <point x="851" y="777" type="line"/>
      <point x="1177" y="1314" type="line"/>
      <point x="1338" y="1314" type="line"/>
      <point x="1338" y="1546" type="line"/>
      <point x="1124" y="1546" type="line" smooth="yes"/>
      <point x="1112" y="1546"/>
      <point x="1101" y="1545"/>
      <point x="1090" y="1542" type="curve"/>
      <point x="1078" y="1552" type="line"/>
      <point x="1054" y="1528" type="line"/>
      <point x="1034" y="1516"/>
      <point x="1018" y="1499"/>
      <point x="1005" y="1477" type="curve" smooth="yes"/>
      <point x="990" y="1451" type="line"/>
      <point x="691" y="968" type="line"/>
      <point x="362" y="1480" type="line" smooth="yes"/>
      <point x="334" y="1523"/>
      <point x="293" y="1546"/>
      <point x="243" y="1546" type="curve" smooth="yes"/>
      <point x="29" y="1546" type="line"/>
      <point x="29" y="1314" type="line"/>
      <point x="188" y="1314" type="line"/>
      <point x="520" y="777" type="line"/>
      <point x="16" y="-51" type="line"/>
    </contour>
  </outline>
</glyph>
<glyph name="Y" format="1">
  <advance width="1299"/>
  <unicode hex="0059"/>
  <outline>
    <contour>
      <point x="536" y="-52" type="line"/>
      <point x="784" y="-52" type="line"/>
      <point x="784" y="528" type="line"/>
      <point x="1156" y="1314" type="line"/>
      <point x="1311" y="1314" type="line"/>
      <point x="1311" y="1546" type="line"/>
      <point x="1077" y="1546" type="line" smooth="yes"/>
      <point x="1015" y="1546"/>
      <point x="979" y="1522"/>
      <point x="954" y="1468" type="curve" smooth="yes"/>
      <point x="658" y="797" type="line"/>
      <point x="344" y="1469" type="line" smooth="yes"/>
      <point x="318" y="1522"/>
      <point x="283" y="1545"/>
      <point x="222" y="1545" type="curve" smooth="yes"/>
      <point x="-12" y="1545" type="line"/>
      <point x="-12" y="1313" type="line"/>
      <point x="143" y="1313" type="line"/>
      <point x="536" y="525" type="line"/>
    </contour>
  </outline>
</glyph>
<glyph name="Z" format="1">
  <advance width="1097"/>
  <unicode hex="005A"/>
  <outline>
    <contour>
      <point x="28" y="-50" type="line"/>
      <point x="983" y="-50" type="line" smooth="yes"/>
      <point x="1060" y="-50"/>
      <point x="1096" y="-13"/>
      <point x="1096" y="65" type="curve" smooth="yes"/>
      <point x="1096" y="314" type="line"/>
      <point x="860" y="310" type="line"/>
      <point x="860" y="181" type="line"/>
      <point x="346" y="181" type="line"/>
      <point x="1075" y="1365" type="line"/>
      <point x="1075" y="1546" type="line"/>
      <point x="154" y="1546" type="line" smooth="yes"/>
      <point x="76" y="1546"/>
      <point x="39" y="1510"/>
      <point x="39" y="1433" type="curve" smooth="yes"/>
      <point x="39" y="1185" type="line"/>
      <point x="277" y="1185" type="line"/>
      <point x="277" y="1315" type="line"/>
      <point x="768" y="1315" type="line"/>
      <point x="28" y="125" type="line"/>
    </contour>
  </outline>
</glyph>
<glyph name="bracketleft" format="1">
  <advance width="606"/>
  <unicode hex="005B"/>
  <outline>
    <contour>
      <point x="122" y="-181" type="line"/>
      <point x="609" y="-181" type="line"/>
      <point x="609" y="51" type="line"/>
      <point x="362" y="51" type="line"/>
      <point x="362" y="1444" type="line"/>
      <point x="609" y="1444" type="line"/>
      <point x="609" y="1676" type="line"/>
      <point x="122" y="1676" type="line"/>
    </contour>
  </outline>
</glyph>
<glyph name="backslash" format="1">
  <advance width="743"/>
  <unicode hex="005C"/>
  <outline>
    <contour>
      <point x="507" y="-128" type="line"/>
      <point x="744" y="-128" type="line"/>
      <point x="223" y="1628" type="line"/>
      <point x="-15" y="1628" type="line"/>
    </contour>
  </outline>
</glyph>
<glyph name="bracketright" format="1">
  <advance width="608"/>
  <unicode hex="005D"/>
  <outline>
    <contour>
      <point x="-3" y="-181" type="line"/>
      <point x="485" y="-181" type="line"/>
      <point x="485" y="1676" type="line"/>
      <point x="-3" y="1676" type="line"/>
      <point x="-3" y="1444" type="line"/>
      <point x="245" y="1444" type="line"/>
      <point x="245" y="51" type="line"/>
      <point x="-3" y="51" type="line"/>
    </contour>
  </outline>
</glyph>
<glyph name="asciicircum" format="1">
  <advance width="1196"/>
  <unicode hex="005E"/>
  <outline>
    <contour>
      <point x="369" y="825" type="line"/>
      <point x="604" y="1278" type="line"/>
      <point x="830" y="825" type="line"/>
      <point x="1082" y="825" type="line"/>
      <point x="723" y="1546" type="line"/>
      <point x="472" y="1546" type="line"/>
      <point x="118" y="825" type="line"/>
    </contour>
  </outline>
</glyph>
<glyph name="underscore" format="1">
  <advance width="1174"/>
  <unicode hex="005F"/>
  <outline>
    <contour>
      <point x="84" y="-51" type="line"/>
      <point x="1087" y="-51" type="line"/>
      <point x="1087" y="181" type="line"/>
      <point x="84" y="181" type="line"/>
    </contour>
  </outline>
</glyph>
<glyph name="grave" format="1">
  <advance width="559"/>
  <unicode hex="0060"/>
  <outline>
    <contour>
      <point x="210" y="1714" type="line"/>
      <point x="45" y="1518" type="line"/>
      <point x="533" y="1206" type="line"/>
      <point x="655" y="1367" type="line"/>
    </contour>
  </outline>
</glyph>
<glyph name="a" format="1">
  <advance width="1192"/>
  <unicode hex="0061"/>
  <outline>
    <contour>
      <point x="474" y="159" type="curve" smooth="yes"/>
      <point x="410" y="159"/>
      <point x="254" y="165"/>
      <point x="254" y="335" type="curve" smooth="yes"/>
      <point x="254" y="515"/>
      <point x="453" y="515"/>
      <point x="702" y="515" type="curve" smooth="yes"/>
      <point x="791" y="515" type="line"/>
      <point x="777" y="282"/>
      <point x="665" y="159"/>
    </contour>
    <contour>
      <point x="1035" y="-53" type="curve" smooth="yes"/>
      <point x="1215" y="-53" type="line"/>
      <point x="1215" y="172" type="line"/>
      <point x="1075" y="174" type="line" smooth="yes"/>
      <point x="1039" y="174"/>
      <point x="1031" y="197"/>
      <point x="1031" y="239" type="curve" smooth="yes"/>
      <point x="1031" y="745" type="line" smooth="yes"/>
      <point x="1031" y="895"/>
      <point x="990" y="1003"/>
      <point x="917" y="1063" type="curve" smooth="yes"/>
      <point x="846" y="1122"/>
      <point x="728" y="1155"/>
      <point x="573" y="1155" type="curve" smooth="yes"/>
      <point x="300" y="1155"/>
      <point x="116" y="1047"/>
      <point x="106" y="882" type="curve" smooth="yes"/>
      <point x="102" y="820" type="line"/>
      <point x="99" y="766" type="line"/>
      <point x="337" y="766" type="line"/>
      <point x="346" y="849" type="line" smooth="yes"/>
      <point x="354" y="920"/>
      <point x="448" y="933"/>
      <point x="562" y="933" type="curve" smooth="yes"/>
      <point x="664" y="933"/>
      <point x="722" y="922"/>
      <point x="750" y="892" type="curve" smooth="yes"/>
      <point x="780" y="862"/>
      <point x="788" y="813"/>
      <point x="791" y="743" type="curve"/>
      <point x="700" y="743" type="line" smooth="yes"/>
      <point x="178" y="743"/>
      <point x="14" y="609"/>
      <point x="14" y="329" type="curve" smooth="yes"/>
      <point x="14" y="42"/>
      <point x="210" y="-70"/>
      <point x="469" y="-70" type="curve" smooth="yes"/>
      <point x="630" y="-70"/>
      <point x="751" y="-18"/>
      <point x="831" y="75" type="curve"/>
      <point x="859" y="0"/>
      <point x="961" y="-53"/>
    </contour>
  </outline>
</glyph>
<glyph name="b" format="1">
  <advance width="1279"/>
  <unicode hex="0062"/>
  <outline>
    <contour>
      <point x="687" y="-71" type="curve" smooth="yes"/>
      <point x="1052" y="-71"/>
      <point x="1250" y="170"/>
      <point x="1250" y="548" type="curve" smooth="yes"/>
      <point x="1250" y="942"/>
      <point x="1052" y="1155"/>
      <point x="681" y="1155" type="curve" smooth="yes"/>
      <point x="566" y="1155"/>
      <point x="451" y="1123"/>
      <point x="356" y="1051" type="curve"/>
      <point x="357" y="1421" type="line" smooth="yes"/>
      <point x="357" y="1510"/>
      <point x="319" y="1546"/>
      <point x="243" y="1546" type="curve" smooth="yes"/>
      <point x="-15" y="1546" type="line"/>
      <point x="-11" y="1320" type="line"/>
      <point x="118" y="1320" type="line"/>
      <point x="118" y="-51" type="line"/>
      <point x="356" y="-51" type="line"/>
      <point x="356" y="22" type="line"/>
      <point x="446" y="-49"/>
      <point x="555" y="-71"/>
    </contour>
    <contour>
      <point x="680" y="928" type="curve" smooth="yes"/>
      <point x="911" y="928"/>
      <point x="1010" y="787"/>
      <point x="1010" y="546" type="curve" smooth="yes"/>
      <point x="1010" y="314"/>
      <point x="904" y="156"/>
      <point x="686" y="156" type="curve" smooth="yes"/>
      <point x="521" y="156"/>
      <point x="356" y="261"/>
      <point x="356" y="437" type="curve" smooth="yes"/>
      <point x="356" y="605" type="line" smooth="yes"/>
      <point x="356" y="793"/>
      <point x="511" y="928"/>
    </contour>
  </outline>
</glyph>
<glyph name="c" format="1">
  <advance width="1155"/>
  <unicode hex="0063"/>
  <outline>
    <contour>
      <point x="1157" y="131" type="curve" smooth="yes"/>
      <point x="1192" y="162" type="line"/>
      <point x="1060" y="341" type="line"/>
      <point x="1018" y="301" type="line" smooth="yes"/>
      <point x="917" y="204"/>
      <point x="773" y="156"/>
      <point x="657" y="156" type="curve" smooth="yes"/>
      <point x="428" y="156"/>
      <point x="284" y="329"/>
      <point x="284" y="565" type="curve" smooth="yes"/>
      <point x="284" y="782"/>
      <point x="453" y="928"/>
      <point x="665" y="928" type="curve" smooth="yes"/>
      <point x="735" y="928"/>
      <point x="805" y="915"/>
      <point x="864" y="881" type="curve" smooth="yes"/>
      <point x="893" y="864"/>
      <point x="913" y="846"/>
      <point x="913" y="806" type="curve" smooth="yes"/>
      <point x="913" y="743" type="line"/>
      <point x="1143" y="743" type="line"/>
      <point x="1143" y="828" type="line" smooth="yes"/>
      <point x="1144" y="954"/>
      <point x="1090" y="1029"/>
      <point x="978" y="1086" type="curve" smooth="yes"/>
      <point x="914" y="1119"/>
      <point x="810" y="1155"/>
      <point x="667" y="1155" type="curve" smooth="yes"/>
      <point x="297" y="1155"/>
      <point x="45" y="913"/>
      <point x="45" y="550" type="curve"/>
      <point x="45" y="182"/>
      <point x="287" y="-71"/>
      <point x="655" y="-71" type="curve" smooth="yes"/>
      <point x="850" y="-71"/>
      <point x="998" y="-10"/>
    </contour>
  </outline>
</glyph>
<glyph name="d" format="1">
  <advance width="1270"/>
  <unicode hex="0064"/>
  <outline>
    <contour>
      <point x="605" y="165" type="curve" smooth="yes"/>
      <point x="396" y="165"/>
      <point x="263" y="314"/>
      <point x="268" y="546" type="curve" smooth="yes"/>
      <point x="273" y="777"/>
      <point x="389" y="927"/>
      <point x="603" y="927" type="curve" smooth="yes"/>
      <point x="706" y="927"/>
      <point x="807" y="889"/>
      <point x="895" y="842" type="curve"/>
      <point x="895" y="429" type="line"/>
      <point x="891" y="429" type="line"/>
      <point x="895" y="386" type="line"/>
      <point x="870" y="259"/>
      <point x="731" y="165"/>
    </contour>
    <contour>
      <point x="956" y="3" type="curve" smooth="yes"/>
      <point x="986" y="-31"/>
      <point x="1038" y="-53"/>
      <point x="1117" y="-53" type="curve" smooth="yes"/>
      <point x="1311" y="-53" type="line"/>
      <point x="1311" y="173" type="line"/>
      <point x="1170" y="173" type="line" smooth="yes"/>
      <point x="1154" y="173"/>
      <point x="1141" y="174"/>
      <point x="1132" y="179" type="curve" smooth="yes"/>
      <point x="1126" y="183"/>
      <point x="1133" y="198"/>
      <point x="1133" y="208" type="curve" smooth="yes"/>
      <point x="1133" y="1432" type="line" smooth="yes"/>
      <point x="1133" y="1471"/>
      <point x="1122" y="1497"/>
      <point x="1107" y="1514" type="curve" smooth="yes"/>
      <point x="1091" y="1532"/>
      <point x="1064" y="1546"/>
      <point x="1021" y="1546" type="curve" smooth="yes"/>
      <point x="763" y="1546" type="line"/>
      <point x="764" y="1320" type="line"/>
      <point x="894" y="1320" type="line"/>
      <point x="894" y="1097" type="line"/>
      <point x="806" y="1136"/>
      <point x="724" y="1154"/>
      <point x="603" y="1154" type="curve" smooth="yes"/>
      <point x="240" y="1154"/>
      <point x="26" y="902"/>
      <point x="28" y="550" type="curve" smooth="yes"/>
      <point x="30" y="161"/>
      <point x="240" y="-71"/>
      <point x="604" y="-71" type="curve" smooth="yes"/>
      <point x="731" y="-71"/>
      <point x="839" y="-25"/>
      <point x="927" y="54" type="curve"/>
      <point x="934" y="33"/>
      <point x="944" y="16"/>
    </contour>
  </outline>
</glyph>
<glyph name="e" format="1">
  <advance width="1180"/>
  <unicode hex="0065"/>
  <outline>
    <contour>
      <point x="632" y="-71" type="curve" smooth="yes"/>
      <point x="728" y="-71"/>
      <point x="818" y="-53"/>
      <point x="904" y="-17" type="curve" smooth="yes"/>
      <point x="985" y="17"/>
      <point x="1058" y="53"/>
      <point x="1126" y="91" type="curve" smooth="yes"/>
      <point x="1169" y="115" type="line"/>
      <point x="1064" y="315" type="line"/>
      <point x="1017" y="286" type="line" smooth="yes"/>
      <point x="972" y="258"/>
      <point x="912" y="229"/>
      <point x="838" y="197" type="curve" smooth="yes"/>
      <point x="768" y="167"/>
      <point x="698" y="151"/>
      <point x="630" y="151" type="curve" smooth="yes"/>
      <point x="428" y="151"/>
      <point x="289" y="262"/>
      <point x="247" y="448" type="curve"/>
      <point x="1184" y="448" type="line"/>
      <point x="1181" y="617" type="line" smooth="yes"/>
      <point x="1181" y="932"/>
      <point x="949" y="1155"/>
      <point x="617" y="1155" type="curve" smooth="yes"/>
      <point x="217" y="1155"/>
      <point x="0" y="906"/>
      <point x="0" y="550" type="curve" smooth="yes"/>
      <point x="0" y="179"/>
      <point x="223" y="-71"/>
    </contour>
    <contour>
      <point x="617" y="928" type="curve" smooth="yes"/>
      <point x="787" y="928"/>
      <point x="916" y="830"/>
      <point x="937" y="670" type="curve"/>
      <point x="249" y="670" type="line"/>
      <point x="275" y="822"/>
      <point x="418" y="928"/>
    </contour>
  </outline>
</glyph>
<glyph name="f" format="1">
  <advance width="762"/>
  <unicode hex="0066"/>
  <outline>
    <contour>
      <point x="228" y="-51" type="line"/>
      <point x="464" y="-51" type="line"/>
      <point x="465" y="908" type="line"/>
      <point x="722" y="908" type="line"/>
      <point x="722" y="1135" type="line"/>
      <point x="466" y="1135" type="line"/>
      <point x="469" y="1251"/>
      <point x="490" y="1319"/>
      <point x="602" y="1319" type="curve" smooth="yes"/>
      <point x="735" y="1319" type="line"/>
      <point x="735" y="1545" type="line"/>
      <point x="609" y="1545" type="line" smooth="yes"/>
      <point x="334" y="1545"/>
      <point x="238" y="1411"/>
      <point x="228" y="1135" type="curve"/>
      <point x="26" y="1135" type="line"/>
      <point x="26" y="908" type="line"/>
      <point x="228" y="908" type="line"/>
    </contour>
  </outline>
</glyph>
<glyph name="g" format="1">
  <advance width="1268"/>
  <unicode hex="0067"/>
  <outline>
    <contour>
      <point x="585" y="151" type="curve" smooth="yes"/>
      <point x="395" y="151"/>
      <point x="255" y="320"/>
      <point x="255" y="553" type="curve" smooth="yes"/>
      <point x="255" y="747"/>
      <point x="387" y="932"/>
      <point x="584" y="932" type="curve" smooth="yes"/>
      <point x="698" y="932"/>
      <point x="783" y="894"/>
      <point x="878" y="799" type="curve" smooth="yes"/>
      <point x="895" y="782"/>
      <point x="902" y="758"/>
      <point x="902" y="730" type="curve"/>
      <point x="900" y="450" type="line"/>
      <point x="898" y="242"/>
      <point x="774" y="151"/>
    </contour>
    <contour>
      <point x="592" y="-535" type="curve" smooth="yes"/>
      <point x="871" y="-535"/>
      <point x="1139" y="-373"/>
      <point x="1139" y="7" type="curve" smooth="yes"/>
      <point x="1139" y="910" type="line"/>
      <point x="1256" y="910" type="line"/>
      <point x="1256" y="1135" type="line"/>
      <point x="907" y="1135" type="line"/>
      <point x="907" y="1068" type="line"/>
      <point x="815" y="1126"/>
      <point x="710" y="1156"/>
      <point x="590" y="1156" type="curve" smooth="yes"/>
      <point x="246" y="1156"/>
      <point x="16" y="892"/>
      <point x="16" y="555" type="curve" smooth="yes"/>
      <point x="16" y="185"/>
      <point x="259" y="-71"/>
      <point x="587" y="-71" type="curve" smooth="yes"/>
      <point x="707" y="-71"/>
      <point x="812" y="-47"/>
      <point x="902" y="7" type="curve"/>
      <point x="892" y="-208"/>
      <point x="770" y="-308"/>
      <point x="598" y="-308" type="curve" smooth="yes"/>
      <point x="521" y="-308"/>
      <point x="438" y="-287"/>
      <point x="348" y="-256" type="curve" smooth="yes"/>
      <point x="318" y="-246"/>
      <point x="265" y="-225"/>
      <point x="244" y="-214" type="curve" smooth="yes"/>
      <point x="195" y="-187" type="line"/>
      <point x="101" y="-411" type="line"/>
      <point x="148" y="-431" type="line" smooth="yes"/>
      <point x="168" y="-439"/>
      <point x="245" y="-468"/>
      <point x="274" y="-478" type="curve" smooth="yes"/>
      <point x="391" y="-520"/>
      <point x="503" y="-535"/>
    </contour>
  </outline>
</glyph>
<glyph name="h" format="1">
  <advance width="1287"/>
  <unicode hex="0068"/>
  <outline>
    <contour>
      <point x="1016" y="-51" type="line"/>
      <point x="1310" y="-51" type="line"/>
      <point x="1310" y="175" type="line"/>
      <point x="1168" y="175" type="line" smooth="yes"/>
      <point x="1152" y="175"/>
      <point x="1139" y="176"/>
      <point x="1130" y="181" type="curve" smooth="yes"/>
      <point x="1128" y="183"/>
      <point x="1127" y="186"/>
      <point x="1128" y="189" type="curve"/>
      <point x="1131" y="189" type="line"/>
      <point x="1131" y="717" type="line" smooth="yes"/>
      <point x="1131" y="1018"/>
      <point x="899" y="1155"/>
      <point x="660" y="1155" type="curve" smooth="yes"/>
      <point x="549" y="1155"/>
      <point x="458" y="1126"/>
      <point x="382" y="1076" type="curve"/>
      <point x="382" y="1435" type="line" smooth="yes"/>
      <point x="382" y="1477"/>
      <point x="364" y="1506"/>
      <point x="327" y="1526" type="curve" smooth="yes"/>
      <point x="300" y="1540"/>
      <point x="272" y="1547"/>
      <point x="243" y="1547" type="curve" smooth="yes"/>
      <point x="12" y="1547" type="line"/>
      <point x="12" y="1321" type="line"/>
      <point x="144" y="1321" type="line"/>
      <point x="144" y="-50" type="line"/>
      <point x="382" y="-50" type="line"/>
      <point x="382" y="788" type="line"/>
      <point x="447" y="866"/>
      <point x="536" y="928"/>
      <point x="652" y="928" type="curve" smooth="yes"/>
      <point x="764" y="928"/>
      <point x="893" y="868"/>
      <point x="893" y="694" type="curve" smooth="yes"/>
      <point x="893" y="189" type="line"/>
      <point x="893" y="189" type="line"/>
      <point x="896" y="99"/>
      <point x="915" y="41"/>
      <point x="943" y="9" type="curve" smooth="yes"/>
      <point x="959" y="-9"/>
      <point x="981" y="-25"/>
      <point x="1010" y="-35" type="curve"/>
    </contour>
  </outline>
</glyph>
<glyph name="i" format="1">
  <advance width="595"/>
  <unicode hex="0069"/>
  <outline>
    <contour>
      <point x="281" y="1532" type="curve" smooth="yes"/>
      <point x="206.225806452" y="1532.0"/>
      <point x="132.0" y="1464.36666667"/>
      <point x="132" y="1381" type="curve" smooth="yes"/>
      <point x="132.0" y="1304.27833915"/>
      <point x="203.712228285" y="1235.0"/>
      <point x="281" y="1235" type="curve" smooth="yes"/>
      <point x="363.0" y="1235.0"/>
      <point x="429.0" y="1303.0"/>
      <point x="429" y="1381" type="curve" smooth="yes"/>
      <point x="429.0" y="1464.41214197"/>
      <point x="361.634876289" y="1532.0"/>
    </contour>
    <contour>
      <point x="386" y="-51" type="curve" smooth="yes"/>
      <point x="567" y="-51" type="line"/>
      <point x="567" y="175" type="line"/>
      <point x="446" y="175" type="line" smooth="yes"/>
      <point x="417" y="175"/>
      <point x="411" y="188"/>
      <point x="411" y="217" type="curve" smooth="yes"/>
      <point x="411" y="1019" type="line" smooth="yes"/>
      <point x="411" y="1056"/>
      <point x="398" y="1084"/>
      <point x="379" y="1103" type="curve" smooth="yes"/>
      <point x="360" y="1122"/>
      <point x="332" y="1135"/>
      <point x="295" y="1135" type="curve" smooth="yes"/>
      <point x="41" y="1135" type="line"/>
      <point x="41" y="909" type="line"/>
      <point x="173" y="909" type="line"/>
      <point x="173" y="206" type="line" smooth="yes"/>
      <point x="173" y="30"/>
      <point x="235" y="-51"/>
    </contour>
  </outline>
</glyph>
<glyph name="j" format="1">
  <advance width="621"/>
  <unicode hex="006A"/>
  <outline>
    <contour>
      <point x="231" y="1375" type="curve" smooth="yes"/>
      <point x="231" y="1299"/>
      <point x="303" y="1229"/>
      <point x="380" y="1229" type="curve" smooth="yes"/>
      <point x="461" y="1229"/>
      <point x="528" y="1296"/>
      <point x="528" y="1375" type="curve" smooth="yes"/>
      <point x="528" y="1459"/>
      <point x="463" y="1526"/>
      <point x="380" y="1526" type="curve" smooth="yes"/>
      <point x="308" y="1526"/>
      <point x="231" y="1459"/>
    </contour>
    <contour>
      <point x="145" y="-529" type="curve" smooth="yes"/>
      <point x="336" y="-529"/>
      <point x="509" y="-393"/>
      <point x="509" y="-137" type="curve" smooth="yes"/>
      <point x="509" y="1018" type="line" smooth="yes"/>
      <point x="509" y="1055"/>
      <point x="498" y="1081"/>
      <point x="481" y="1100" type="curve" smooth="yes"/>
      <point x="463" y="1120"/>
      <point x="435" y="1135"/>
      <point x="395" y="1135" type="curve" smooth="yes"/>
      <point x="94" y="1135" type="line"/>
      <point x="94" y="909" type="line"/>
      <point x="271" y="909" type="line"/>
      <point x="271" y="-102" type="line" smooth="yes"/>
      <point x="271" y="-215"/>
      <point x="238" y="-302"/>
      <point x="127" y="-302" type="curve" smooth="yes"/>
      <point x="76" y="-302"/>
      <point x="26" y="-294"/>
      <point x="-23" y="-280" type="curve" smooth="yes"/>
      <point x="-74" y="-266" type="line"/>
      <point x="-129" y="-484" type="line"/>
      <point x="-80" y="-497" type="line" smooth="yes"/>
      <point x="-12" y="-515"/>
      <point x="56" y="-529"/>
    </contour>
  </outline>
</glyph>
<glyph name="k" format="1">
  <advance width="1153"/>
  <unicode hex="006B"/>
  <outline>
    <contour>
      <point x="207" y="-51" type="line"/>
      <point x="445" y="-51" type="line"/>
      <point x="445" y="440" type="line"/>
      <point x="531" y="440" type="line"/>
      <point x="535" y="438" type="line"/>
      <point x="756" y="63" type="line" smooth="yes"/>
      <point x="778" y="26"/>
      <point x="802" y="2"/>
      <point x="823" y="-16" type="curve" smooth="yes"/>
      <point x="849" y="-37"/>
      <point x="886" y="-51"/>
      <point x="937" y="-51" type="curve" smooth="yes"/>
      <point x="1135" y="-51" type="line"/>
      <point x="1135" y="175" type="line"/>
      <point x="998" y="175" type="line"/>
      <point x="989" y="176"/>
      <point x="978" y="178"/>
      <point x="967" y="183" type="curve" smooth="yes"/>
      <point x="959" y="186"/>
      <point x="950" y="193"/>
      <point x="944" y="203" type="curve" smooth="yes"/>
      <point x="714" y="594" type="line"/>
      <point x="1184" y="1118" type="line"/>
      <point x="1176" y="1135" type="line"/>
      <point x="890" y="1135" type="line"/>
      <point x="481" y="672" type="line"/>
      <point x="445" y="672" type="line"/>
      <point x="445" y="1431" type="line" smooth="yes"/>
      <point x="445" y="1469"/>
      <point x="433" y="1496"/>
      <point x="414" y="1515" type="curve" smooth="yes"/>
      <point x="395" y="1534"/>
      <point x="368" y="1546"/>
      <point x="330" y="1546" type="curve" smooth="yes"/>
      <point x="75" y="1546" type="line"/>
      <point x="75" y="1320" type="line"/>
      <point x="207" y="1320" type="line"/>
    </contour>
  </outline>
</glyph>
<glyph name="m" format="1">
  <advance width="2002"/>
  <unicode hex="006D"/>
  <outline>
    <contour>
      <point x="434" y="-51" type="line"/>
      <point x="434" y="790" type="line"/>
      <point x="490" y="867"/>
      <point x="565" y="928"/>
      <point x="665" y="928" type="curve" smooth="yes"/>
      <point x="764" y="928"/>
      <point x="870" y="863"/>
      <point x="870" y="694" type="curve" smooth="yes"/>
      <point x="870" y="-51" type="line"/>
      <point x="1108" y="-51" type="line"/>
      <point x="1108" y="711" type="line" smooth="yes"/>
      <point x="1109" y="829"/>
      <point x="1203" y="928"/>
      <point x="1334" y="928" type="curve" smooth="yes"/>
      <point x="1433" y="928"/>
      <point x="1539" y="863"/>
      <point x="1539" y="694" type="curve" smooth="yes"/>
      <point x="1539" y="210" type="line" smooth="yes"/>
      <point x="1539" y="107"/>
      <point x="1559" y="42"/>
      <point x="1589" y="8" type="curve" smooth="yes"/>
      <point x="1621" y="-28"/>
      <point x="1674" y="-51"/>
      <point x="1754" y="-51" type="curve" smooth="yes"/>
      <point x="1955" y="-51" type="line"/>
      <point x="1955" y="175" type="line"/>
      <point x="1814" y="175" type="line" smooth="yes"/>
      <point x="1798" y="175"/>
      <point x="1785" y="176"/>
      <point x="1776" y="181" type="curve" smooth="yes"/>
      <point x="1770" y="186"/>
      <point x="1777" y="201"/>
      <point x="1777" y="211" type="curve" smooth="yes"/>
      <point x="1777" y="717" type="line" smooth="yes"/>
      <point x="1777" y="1021"/>
      <point x="1561" y="1155"/>
      <point x="1346" y="1155" type="curve" smooth="yes"/>
      <point x="1203" y="1155"/>
      <point x="1094" y="1102"/>
      <point x="1014" y="1008" type="curve"/>
      <point x="931" y="1108"/>
      <point x="804" y="1155"/>
      <point x="677" y="1155" type="curve" smooth="yes"/>
      <point x="569" y="1155"/>
      <point x="483" y="1123"/>
      <point x="410" y="1066" type="curve"/>
      <point x="396" y="1112"/>
      <point x="357" y="1135"/>
      <point x="295" y="1135" type="curve" smooth="yes"/>
      <point x="64" y="1135" type="line"/>
      <point x="64" y="909" type="line"/>
      <point x="196" y="909" type="line"/>
      <point x="196" y="-51" type="line"/>
    </contour>
  </outline>
</glyph>
<glyph name="n" format="1">
  <advance width="1292"/>
  <unicode hex="006E"/>
  <outline>
    <contour>
      <point x="374" y="-51" type="line"/>
      <point x="374" y="788" type="line"/>
      <point x="440" y="866"/>
      <point x="529" y="928"/>
      <point x="644" y="928" type="curve" smooth="yes"/>
      <point x="756" y="928"/>
      <point x="885" y="868"/>
      <point x="885" y="694" type="curve" smooth="yes"/>
      <point x="885" y="189" type="line"/>
      <point x="885" y="189" type="line"/>
      <point x="888" y="99"/>
      <point x="907" y="41"/>
      <point x="935" y="9" type="curve" smooth="yes"/>
      <point x="951" y="-9"/>
      <point x="973" y="-25"/>
      <point x="1002" y="-35" type="curve"/>
      <point x="1008" y="-51" type="line"/>
      <point x="1302" y="-51" type="line"/>
      <point x="1302" y="175" type="line"/>
      <point x="1160" y="175" type="line" smooth="yes"/>
      <point x="1144" y="175"/>
      <point x="1131" y="176"/>
      <point x="1122" y="181" type="curve" smooth="yes"/>
      <point x="1120" y="183"/>
      <point x="1119" y="186"/>
      <point x="1120" y="189" type="curve"/>
      <point x="1123" y="189" type="line"/>
      <point x="1123" y="717" type="line" smooth="yes"/>
      <point x="1123" y="1018"/>
      <point x="891" y="1155"/>
      <point x="652" y="1155" type="curve" smooth="yes"/>
      <point x="529" y="1155"/>
      <point x="433" y="1121"/>
      <point x="352" y="1060" type="curve"/>
      <point x="339" y="1110"/>
      <point x="299" y="1135"/>
      <point x="235" y="1135" type="curve" smooth="yes"/>
      <point x="4" y="1135" type="line"/>
      <point x="4" y="909" type="line"/>
      <point x="136" y="909" type="line"/>
      <point x="136" y="-51" type="line"/>
    </contour>
  </outline>
</glyph>
<glyph name="o" format="1">
  <advance width="1251"/>
  <unicode hex="006F"/>
  <outline>
    <contour>
      <point x="626" y="-70" type="curve" smooth="yes"/>
      <point x="973" y="-70"/>
      <point x="1245" y="158"/>
      <point x="1245" y="541" type="curve" smooth="yes"/>
      <point x="1245" y="888"/>
      <point x="1010" y="1155"/>
      <point x="626" y="1155" type="curve" smooth="yes"/>
      <point x="279" y="1155"/>
      <point x="7" y="925"/>
      <point x="7" y="541" type="curve" smooth="yes"/>
      <point x="7" y="196"/>
      <point x="242" y="-70"/>
    </contour>
    <contour>
      <point x="626" y="928" type="curve" smooth="yes"/>
      <point x="840" y="928"/>
      <point x="1005" y="783"/>
      <point x="1005" y="541" type="curve" smooth="yes"/>
      <point x="1005" y="322"/>
      <point x="862" y="157"/>
      <point x="626" y="157" type="curve" smooth="yes"/>
      <point x="412" y="157"/>
      <point x="247" y="299"/>
      <point x="247" y="541" type="curve" smooth="yes"/>
      <point x="247" y="765"/>
      <point x="390" y="928"/>
    </contour>
  </outline>
</glyph>
<glyph name="p" format="1">
  <advance width="1319"/>
  <unicode hex="0070"/>
  <outline>
    <contour>
      <point x="716" y="928" type="curve" smooth="yes"/>
      <point x="947" y="928"/>
      <point x="1046" y="787"/>
      <point x="1046" y="546" type="curve" smooth="yes"/>
      <point x="1046" y="314"/>
      <point x="940" y="156"/>
      <point x="722" y="156" type="curve" smooth="yes"/>
      <point x="557" y="156"/>
      <point x="391" y="261"/>
      <point x="391" y="437" type="curve" smooth="yes"/>
      <point x="391" y="605" type="line" smooth="yes"/>
      <point x="391" y="793"/>
      <point x="547" y="928"/>
    </contour>
    <contour>
      <point x="391" y="-528" type="line"/>
      <point x="391" y="22" type="line"/>
      <point x="481" y="-49"/>
      <point x="591" y="-71"/>
      <point x="723" y="-71" type="curve" smooth="yes"/>
      <point x="1088" y="-71"/>
      <point x="1286" y="170"/>
      <point x="1286" y="548" type="curve" smooth="yes"/>
      <point x="1286" y="942"/>
      <point x="1088" y="1155"/>
      <point x="717" y="1155" type="curve" smooth="yes"/>
      <point x="592" y="1155"/>
      <point x="467" y="1117"/>
      <point x="367" y="1031" type="curve"/>
      <point x="362" y="1116"/>
      <point x="327" y="1133"/>
      <point x="249" y="1133" type="curve" smooth="yes"/>
      <point x="23" y="1133" type="line"/>
      <point x="23" y="909" type="line"/>
      <point x="153" y="909" type="line"/>
      <point x="153" y="-528" type="line"/>
    </contour>
  </outline>
</glyph>
<glyph name="q" format="1">
  <advance width="1263"/>
  <unicode hex="0071"/>
  <outline>
    <contour>
      <point x="929" y="-528" type="line"/>
      <point x="1167" y="-528" type="line"/>
      <point x="1167" y="1136" type="line"/>
      <point x="948" y="1136" type="line"/>
      <point x="948" y="1035" type="line"/>
      <point x="849" y="1119"/>
      <point x="726" y="1155"/>
      <point x="603" y="1155" type="curve" smooth="yes"/>
      <point x="232" y="1155"/>
      <point x="34" y="942"/>
      <point x="34" y="548" type="curve"/>
      <point x="34" y="170"/>
      <point x="232" y="-71"/>
      <point x="597" y="-71" type="curve" smooth="yes"/>
      <point x="729" y="-71"/>
      <point x="839" y="-49"/>
      <point x="929" y="22" type="curve"/>
    </contour>
    <contour>
      <point x="274" y="546" type="curve" smooth="yes"/>
      <point x="274" y="787"/>
      <point x="373" y="928"/>
      <point x="604" y="928" type="curve" smooth="yes"/>
      <point x="773" y="928"/>
      <point x="929" y="793"/>
      <point x="929" y="605" type="curve" smooth="yes"/>
      <point x="929" y="437" type="line" smooth="yes"/>
      <point x="929" y="261"/>
      <point x="763" y="156"/>
      <point x="598" y="156" type="curve" smooth="yes"/>
      <point x="380" y="156"/>
      <point x="274" y="314"/>
    </contour>
  </outline>
</glyph>
<glyph name="r" format="1">
  <advance width="834"/>
  <unicode hex="0072"/>
  <outline>
    <contour>
      <point x="194" y="-52" type="line"/>
      <point x="434" y="-52" type="line"/>
      <point x="434" y="430" type="line"/>
      <point x="437" y="430" type="line"/>
      <point x="434" y="521" type="line" smooth="yes"/>
      <point x="434" y="552" type="line"/>
      <point x="434" y="556" type="line"/>
      <point x="440" y="766"/>
      <point x="575" y="909"/>
      <point x="810" y="909" type="curve" smooth="yes"/>
      <point x="861" y="909" type="line"/>
      <point x="861" y="1135" type="line"/>
      <point x="810" y="1135" type="line" smooth="yes"/>
      <point x="641" y="1135"/>
      <point x="509" y="1084"/>
      <point x="420" y="988" type="curve"/>
      <point x="420" y="1021" type="line" smooth="yes"/>
      <point x="420" y="1060"/>
      <point x="407" y="1088"/>
      <point x="387" y="1106" type="curve" smooth="yes"/>
      <point x="368" y="1123"/>
      <point x="342" y="1134"/>
      <point x="305" y="1134" type="curve" smooth="yes"/>
      <point x="64" y="1134" type="line"/>
      <point x="64" y="908" type="line"/>
      <point x="194" y="908" type="line"/>
    </contour>
  </outline>
</glyph>
<glyph name="s" format="1">
  <advance width="916"/>
  <unicode hex="0073"/>
  <outline>
    <contour>
      <point x="467" y="-71" type="curve" smooth="yes"/>
      <point x="701" y="-71"/>
      <point x="896" y="51"/>
      <point x="896" y="278" type="curve" smooth="yes"/>
      <point x="896" y="530"/>
      <point x="647" y="617"/>
      <point x="495" y="669" type="curve" smooth="yes"/>
      <point x="417" y="696"/>
      <point x="272" y="732"/>
      <point x="272" y="829" type="curve" smooth="yes"/>
      <point x="272" y="907"/>
      <point x="364" y="928"/>
      <point x="470" y="928" type="curve" smooth="yes"/>
      <point x="526" y="928"/>
      <point x="574" y="918"/>
      <point x="605" y="904" type="curve" smooth="yes"/>
      <point x="624" y="897"/>
      <point x="634" y="878"/>
      <point x="633" y="856" type="curve" smooth="yes"/>
      <point x="633" y="775" type="line"/>
      <point x="863" y="775" type="line"/>
      <point x="863" y="873" type="line" smooth="yes"/>
      <point x="862" y="1015"/>
      <point x="795" y="1089"/>
      <point x="686" y="1123" type="curve" smooth="yes"/>
      <point x="637" y="1138"/>
      <point x="562" y="1155"/>
      <point x="458" y="1155" type="curve" smooth="yes"/>
      <point x="190" y="1155"/>
      <point x="32" y="1013"/>
      <point x="32" y="822" type="curve"/>
      <point x="32" y="602"/>
      <point x="185" y="534"/>
      <point x="392" y="453" type="curve" smooth="yes"/>
      <point x="482" y="418"/>
      <point x="656" y="395"/>
      <point x="656" y="278" type="curve" smooth="yes"/>
      <point x="656" y="191"/>
      <point x="571" y="156"/>
      <point x="472" y="156" type="curve" smooth="yes"/>
      <point x="332" y="156"/>
      <point x="246" y="220"/>
      <point x="216" y="349" type="curve" smooth="yes"/>
      <point x="204" y="400" type="line"/>
      <point x="-18" y="339" type="line"/>
      <point x="-7" y="292" type="line" smooth="yes"/>
      <point x="49" y="50"/>
      <point x="214" y="-71"/>
    </contour>
  </outline>
</glyph>
<glyph name="t" format="1">
  <advance width="675"/>
  <unicode hex="0074"/>
  <outline>
    <contour>
      <point x="346" y="-51" type="line"/>
      <point x="600" y="-51" type="line"/>
      <point x="600" y="175" type="line"/>
      <point x="459" y="175" type="line" smooth="yes"/>
      <point x="444" y="175"/>
      <point x="432" y="176"/>
      <point x="423" y="180" type="curve"/>
      <point x="423" y="910" type="line"/>
      <point x="646" y="910" type="line"/>
      <point x="646" y="1136" type="line"/>
      <point x="423" y="1136" type="line"/>
      <point x="423" y="1370" type="line"/>
      <point x="182" y="1370" type="line"/>
      <point x="182" y="1136" type="line"/>
      <point x="4" y="1136" type="line"/>
      <point x="4" y="910" type="line"/>
      <point x="182" y="910" type="line"/>
      <point x="182" y="211" type="line" smooth="yes"/>
      <point x="182" y="108"/>
      <point x="202" y="43"/>
      <point x="232" y="9" type="curve" smooth="yes"/>
      <point x="257" y="-19"/>
      <point x="294" y="-39"/>
      <point x="346" y="-46" type="curve"/>
    </contour>
  </outline>
</glyph>
<glyph name="u" format="1">
  <advance width="1304"/>
  <unicode hex="0075"/>
  <outline>
    <contour>
      <point x="967" y="3" type="curve" smooth="yes"/>
      <point x="997" y="-31"/>
      <point x="1049" y="-53"/>
      <point x="1128" y="-53" type="curve" smooth="yes"/>
      <point x="1322" y="-53" type="line"/>
      <point x="1322" y="173" type="line"/>
      <point x="1181" y="173" type="line" smooth="yes"/>
      <point x="1165" y="173"/>
      <point x="1152" y="174"/>
      <point x="1143" y="179" type="curve" smooth="yes"/>
      <point x="1137" y="183"/>
      <point x="1144" y="198"/>
      <point x="1144" y="208" type="curve" smooth="yes"/>
      <point x="1144" y="1135" type="line"/>
      <point x="906" y="1135" type="line"/>
      <point x="906" y="322" type="line"/>
      <point x="840" y="231"/>
      <point x="750" y="156"/>
      <point x="599" y="156" type="curve" smooth="yes"/>
      <point x="509" y="156"/>
      <point x="375" y="186"/>
      <point x="375" y="390" type="curve" smooth="yes"/>
      <point x="375" y="1021" type="line" smooth="yes"/>
      <point x="375" y="1061"/>
      <point x="361" y="1089"/>
      <point x="339" y="1107" type="curve" smooth="yes"/>
      <point x="319" y="1123"/>
      <point x="291" y="1134"/>
      <point x="253" y="1134" type="curve" smooth="yes"/>
      <point x="7" y="1134" type="line"/>
      <point x="7" y="908" type="line"/>
      <point x="137" y="908" type="line"/>
      <point x="137" y="367" type="line" smooth="yes"/>
      <point x="137" y="21"/>
      <point x="382" y="-71"/>
      <point x="602" y="-71" type="curve" smooth="yes"/>
      <point x="755" y="-71"/>
      <point x="856" y="-27"/>
      <point x="940" y="48" type="curve"/>
      <point x="947" y="30"/>
      <point x="956" y="15"/>
    </contour>
  </outline>
</glyph>
<glyph name="v" format="1">
  <advance width="1175"/>
  <unicode hex="0076"/>
  <outline>
    <contour>
      <point x="501" y="-51" type="line"/>
      <point x="720" y="-51" type="line"/>
      <point x="1069" y="909" type="line"/>
      <point x="1188" y="909" type="line"/>
      <point x="1188" y="1135" type="line"/>
      <point x="986" y="1135" type="line" smooth="yes"/>
      <point x="928" y="1135"/>
      <point x="883" y="1112"/>
      <point x="862" y="1047" type="curve" smooth="yes"/>
      <point x="604" y="317" type="line"/>
      <point x="313" y="1050" type="line"/>
      <point x="296" y="1104"/>
      <point x="251" y="1135"/>
      <point x="191" y="1135" type="curve" smooth="yes"/>
      <point x="-11" y="1135" type="line"/>
      <point x="-11" y="909" type="line"/>
      <point x="108" y="909" type="line"/>
    </contour>
  </outline>
</glyph>
<glyph name="w" format="1">
  <advance width="1688"/>
  <unicode hex="0077"/>
  <outline>
    <contour>
      <point x="650" y="-51" type="line"/>
      <point x="844" y="722" type="line"/>
      <point x="1037" y="-51" type="line"/>
      <point x="1294" y="-51" type="line"/>
      <point x="1580" y="909" type="line"/>
      <point x="1698" y="909" type="line"/>
      <point x="1698" y="1135" type="line"/>
      <point x="1499" y="1135" type="line" smooth="yes"/>
      <point x="1465" y="1135"/>
      <point x="1438" y="1125"/>
      <point x="1418" y="1111" type="curve" smooth="yes"/>
      <point x="1398" y="1096"/>
      <point x="1383" y="1074"/>
      <point x="1374" y="1045" type="curve" smooth="yes"/>
      <point x="1178" y="363" type="line"/>
      <point x="973" y="1135" type="line"/>
      <point x="716" y="1135" type="line"/>
      <point x="511" y="363" type="line"/>
      <point x="315" y="1048" type="line"/>
      <point x="314" y="1050" type="line" smooth="yes"/>
      <point x="303" y="1077"/>
      <point x="287" y="1098"/>
      <point x="266" y="1112" type="curve" smooth="yes"/>
      <point x="245" y="1126"/>
      <point x="220" y="1135"/>
      <point x="189" y="1135" type="curve" smooth="yes"/>
      <point x="-14" y="1135" type="line"/>
      <point x="-14" y="909" type="line"/>
      <point x="102" y="909" type="line"/>
      <point x="390" y="-51" type="line"/>
    </contour>
  </outline>
</glyph>
<glyph name="x" format="1">
  <advance width="1101"/>
  <unicode hex="0078"/>
  <outline>
    <contour>
      <point x="264" y="-52" type="line"/>
      <point x="555" y="340" type="line"/>
      <point x="873" y="-52" type="line"/>
      <point x="1152" y="-52" type="line"/>
      <point x="1157" y="-42" type="line"/>
      <point x="699" y="551" type="line"/>
      <point x="977" y="909" type="line"/>
      <point x="1109" y="909" type="line"/>
      <point x="1109" y="1135" type="line"/>
      <point x="922" y="1135" type="line" smooth="yes"/>
      <point x="870" y="1135"/>
      <point x="832" y="1113"/>
      <point x="800" y="1071" type="curve" smooth="yes"/>
      <point x="555" y="749" type="line"/>
      <point x="293" y="1072" type="line" smooth="yes"/>
      <point x="258" y="1115"/>
      <point x="223" y="1134"/>
      <point x="173" y="1134" type="curve" smooth="yes"/>
      <point x="-13" y="1134" type="line"/>
      <point x="-13" y="908" type="line"/>
      <point x="118" y="908" type="line"/>
      <point x="409" y="548" type="line"/>
      <point x="-31" y="-43" type="line"/>
      <point x="-27" y="-52" type="line"/>
    </contour>
  </outline>
</glyph>
<glyph name="y" format="1">
  <advance width="1219"/>
  <unicode hex="0079"/>
  <outline>
    <contour>
      <point x="329" y="-528" type="curve" smooth="yes"/>
      <point x="461.41718008" y="-528.0"/>
      <point x="570.7322575" y="-480.575646375"/>
      <point x="631" y="-351" type="curve" smooth="yes"/>
      <point x="649" y="-314"/>
      <point x="667" y="-268"/>
      <point x="687" y="-213" type="curve" smooth="yes"/>
      <point x="1109" y="911" type="line"/>
      <point x="1229" y="911" type="line"/>
      <point x="1229" y="1138" type="line"/>
      <point x="1021" y="1135" type="line"/>
      <point x="1022" y="1135" type="line"/>
      <point x="958" y="1135"/>
      <point x="919" y="1107"/>
      <point x="898" y="1048" type="curve" smooth="yes"/>
      <point x="631" y="296" type="line"/>
      <point x="330" y="1050" type="line" smooth="yes"/>
      <point x="308" y="1107"/>
      <point x="270" y="1135"/>
      <point x="207" y="1135" type="curve" smooth="yes"/>
      <point x="-12" y="1135" type="line"/>
      <point x="-12" y="909" type="line"/>
      <point x="116" y="909" type="line"/>
      <point x="509" y="-3" type="line"/>
      <point x="448" y="-202" type="line" smooth="yes"/>
      <point x="434.481910976" y="-247.961502681"/>
      <point x="403" y="-292"/>
      <point x="367" y="-299" type="curve" smooth="yes"/>
      <point x="310.384464731" y="-305.470346888"/>
      <point x="198.860939114" y="-268.66888115"/>
      <point x="136" y="-232" type="curve" smooth="yes"/>
      <point x="84" y="-201" type="line"/>
      <point x="2" y="-415" type="line"/>
      <point x="38" y="-437" type="line" smooth="yes"/>
      <point x="106.692071472" y="-479.427455909"/>
      <point x="247.817908218" y="-528.0"/>
    </contour>
  </outline>
</glyph>
<glyph name="z" format="1">
  <advance width="1073"/>
  <unicode hex="007A"/>
  <outline>
    <contour>
      <point x="25" y="-52" type="line"/>
      <point x="914" y="-52" type="line"/>
      <point x="991" y="-52"/>
      <point x="1026" y="-16"/>
      <point x="1026" y="63" type="curve" smooth="yes"/>
      <point x="1026" y="299" type="line"/>
      <point x="789" y="299" type="line"/>
      <point x="789" y="175" type="line"/>
      <point x="368" y="175" type="line"/>
      <point x="1003" y="964" type="line"/>
      <point x="1003" y="1135" type="line"/>
      <point x="173" y="1135" type="line" smooth="yes"/>
      <point x="96" y="1135"/>
      <point x="57" y="1097"/>
      <point x="57" y="1020" type="curve" smooth="yes"/>
      <point x="57" y="788" type="line"/>
      <point x="295" y="788" type="line"/>
      <point x="295" y="912" type="line"/>
      <point x="665" y="912" type="line"/>
      <point x="25" y="117" type="line"/>
    </contour>
  </outline>
</glyph>
<glyph name="braceleft" format="1">
  <advance width="677"/>
  <unicode hex="007B"/>
  <outline>
    <contour>
      <point x="617" y="1495" type="line"/>
      <point x="617" y="1497" type="line"/>
      <point x="619" y="1497" type="line"/>
    </contour>
    <contour>
      <point x="670" y="-183" type="line"/>
      <point x="670" y="51" type="line"/>
      <point x="617" y="49" type="line" smooth="yes"/>
      <point x="545" y="47"/>
      <point x="490" y="60"/>
      <point x="457" y="97" type="curve" smooth="yes"/>
      <point x="423" y="135"/>
      <point x="409" y="199"/>
      <point x="408" y="288" type="curve"/>
      <point x="430" y="599" type="line"/>
      <point x="430" y="601" type="line" smooth="yes"/>
      <point x="430" y="650"/>
      <point x="423" y="691"/>
      <point x="410" y="722" type="curve" smooth="yes"/>
      <point x="406" y="731"/>
      <point x="401" y="740"/>
      <point x="396" y="747" type="curve"/>
      <point x="401" y="755"/>
      <point x="406" y="764"/>
      <point x="410" y="773" type="curve" smooth="yes"/>
      <point x="423" y="804"/>
      <point x="430" y="845"/>
      <point x="430" y="894" type="curve"/>
      <point x="408" y="1207" type="line"/>
      <point x="408" y="1293"/>
      <point x="422" y="1359"/>
      <point x="457" y="1398" type="curve" smooth="yes"/>
      <point x="482" y="1426"/>
      <point x="526" y="1440"/>
      <point x="573" y="1445" type="curve"/>
      <point x="668" y="1445" type="line"/>
      <point x="668" y="1445"/>
      <point x="668" y="1546"/>
      <point x="668" y="1546" type="curve"/>
      <point x="668" y="1676" type="line"/>
      <point x="617" y="1676" type="line" smooth="yes"/>
      <point x="456" y="1676"/>
      <point x="345" y="1634"/>
      <point x="280" y="1560" type="curve" smooth="yes"/>
      <point x="215" y="1486"/>
      <point x="180" y="1374"/>
      <point x="180" y="1219" type="curve"/>
      <point x="183" y="1164"/>
      <point x="186" y="1118"/>
      <point x="188" y="1079" type="curve" smooth="yes"/>
      <point x="190" y="1041"/>
      <point x="192" y="1008"/>
      <point x="193" y="982" type="curve" smooth="yes"/>
      <point x="194" y="965"/>
      <point x="195" y="951"/>
      <point x="196" y="938" type="curve" smooth="yes"/>
      <point x="197" y="926"/>
      <point x="198" y="914"/>
      <point x="199" y="903" type="curve"/>
      <point x="198" y="888"/>
      <point x="192" y="876"/>
      <point x="179" y="870" type="curve" smooth="yes"/>
      <point x="156" y="857"/>
      <point x="129" y="850"/>
      <point x="98" y="850" type="curve" smooth="yes"/>
      <point x="47" y="850" type="line"/>
      <point x="47" y="641" type="line"/>
      <point x="98" y="641" type="line" smooth="yes"/>
      <point x="129" y="641"/>
      <point x="156" y="634"/>
      <point x="179" y="621" type="curve" smooth="yes"/>
      <point x="193" y="614"/>
      <point x="199" y="601"/>
      <point x="199" y="585" type="curve"/>
      <point x="182" y="276" type="line"/>
      <point x="182" y="119"/>
      <point x="217" y="7"/>
      <point x="282" y="-67" type="curve" smooth="yes"/>
      <point x="347" y="-141"/>
      <point x="458" y="-183"/>
      <point x="619" y="-183" type="curve" smooth="yes"/>
    </contour>
  </outline>
</glyph>
<glyph name="bar" format="1">
  <advance width="580"/>
  <unicode hex="007C"/>
  <outline>
    <contour>
      <point x="174" y="-181" type="line"/>
      <point x="406" y="-181" type="line"/>
      <point x="406" y="1676" type="line"/>
      <point x="174" y="1676" type="line"/>
    </contour>
  </outline>
</glyph>
<glyph name="braceright" format="1">
  <advance width="677"/>
  <unicode hex="007D"/>
  <outline>
    <contour>
      <point x="9" y="-181" type="curve"/>
      <point x="60" y="-181" type="line" smooth="yes"/>
      <point x="221" y="-181"/>
      <point x="332" y="-139"/>
      <point x="397" y="-65" type="curve" smooth="yes"/>
      <point x="462" y="9"/>
      <point x="497" y="121"/>
      <point x="497" y="275" type="curve"/>
      <point x="494" y="330"/>
      <point x="492" y="376"/>
      <point x="490" y="415" type="curve" smooth="yes"/>
      <point x="485.458759651" y="501.28356663"/>
      <point x="482.721964839" y="550.058386772"/>
      <point x="479" y="591" type="curve"/>
      <point x="480" y="606"/>
      <point x="486" y="618"/>
      <point x="499" y="624" type="curve" smooth="yes"/>
      <point x="522" y="637"/>
      <point x="549" y="644"/>
      <point x="579" y="644" type="curve" smooth="yes"/>
      <point x="630" y="644" type="line"/>
      <point x="630" y="853" type="line"/>
      <point x="579" y="853" type="line" smooth="yes"/>
      <point x="549" y="853"/>
      <point x="522" y="860"/>
      <point x="499" y="873" type="curve" smooth="yes"/>
      <point x="485" y="880"/>
      <point x="479" y="893"/>
      <point x="479" y="909" type="curve"/>
      <point x="495" y="1218" type="line"/>
      <point x="495" y="1376"/>
      <point x="460" y="1488"/>
      <point x="395" y="1562" type="curve" smooth="yes"/>
      <point x="330" y="1636"/>
      <point x="219" y="1678"/>
      <point x="58" y="1678" type="curve" smooth="yes"/>
      <point x="7" y="1678" type="line"/>
      <point x="7" y="1444" type="line"/>
      <point x="60" y="1446" type="line" smooth="yes"/>
      <point x="132" y="1448"/>
      <point x="187" y="1435"/>
      <point x="220" y="1398" type="curve" smooth="yes"/>
      <point x="255" y="1359"/>
      <point x="269" y="1293"/>
      <point x="269" y="1203" type="curve"/>
      <point x="248" y="897" type="line"/>
      <point x="248" y="840"/>
      <point x="262" y="796"/>
      <point x="289" y="762" type="curve" smooth="yes"/>
      <point x="293" y="757"/>
      <point x="297" y="752"/>
      <point x="301" y="747" type="curve"/>
      <point x="297" y="743"/>
      <point x="293" y="738"/>
      <point x="289" y="733" type="curve" smooth="yes"/>
      <point x="262" y="699"/>
      <point x="248" y="655"/>
      <point x="248" y="601" type="curve"/>
      <point x="269" y="289" type="line"/>
      <point x="269" y="202"/>
      <point x="255" y="137"/>
      <point x="220" y="98" type="curve" smooth="yes"/>
      <point x="187" y="62"/>
      <point x="132" y="52"/>
      <point x="60" y="52" type="curve" smooth="yes"/>
      <point x="9" y="52" type="line"/>
      <point x="9" y="52"/>
      <point x="9" y="-181"/>
    </contour>
  </outline>
</glyph>
<glyph name="asciitilde" format="1">
  <advance width="1196"/>
  <unicode hex="007E"/>
  <outline>
    <contour>
      <point x="367" y="549" type="line" smooth="yes"/>
      <point x="367.0" y="594.779421998"/>
      <point x="371.705543608" y="661.0"/>
      <point x="429" y="661" type="curve" smooth="yes"/>
      <point x="471" y="661"/>
      <point x="509" y="640"/>
      <point x="543" y="602" type="curve" smooth="yes"/>
      <point x="598" y="541"/>
      <point x="674" y="509"/>
      <point x="773" y="509" type="curve" smooth="yes"/>
      <point x="854" y="509"/>
      <point x="921" y="537"/>
      <point x="975" y="594" type="curve" smooth="yes"/>
      <point x="1026" y="647"/>
      <point x="1055" y="730"/>
      <point x="1055" y="844" type="curve" smooth="yes"/>
      <point x="1055" y="895" type="line"/>
      <point x="821" y="895" type="line"/>
      <point x="821" y="844" type="line" smooth="yes"/>
      <point x="821.0" y="799.810167325"/>
      <point x="824.941227192" y="729.0"/>
      <point x="772" y="729" type="curve" smooth="yes"/>
      <point x="739" y="729"/>
      <point x="706" y="753"/>
      <point x="671" y="791" type="curve" smooth="yes"/>
      <point x="615" y="852"/>
      <point x="532" y="885"/>
      <point x="418" y="885" type="curve" smooth="yes"/>
      <point x="336" y="885"/>
      <point x="270" y="856"/>
      <point x="218" y="799" type="curve" smooth="yes"/>
      <point x="170" y="746"/>
      <point x="142" y="664"/>
      <point x="142" y="550" type="curve" smooth="yes"/>
      <point x="142" y="518" type="line"/>
      <point x="183" y="498" type="line"/>
      <point x="367" y="498" type="line"/>
    </contour>
  </outline>
</glyph>
<glyph name="exclamdown" format="1">
  <advance width="575"/>
  <unicode hex="00A1"/>
  <outline>
    <contour>
      <point x="286" y="1353" type="curve" smooth="yes"/>
      <point x="201.317881681" y="1353.0"/>
      <point x="126.0" y="1280.29682014"/>
      <point x="126" y="1193" type="curve"/>
      <point x="126.0" y="1107.0"/>
      <point x="200.0" y="1033.0"/>
      <point x="286" y="1033" type="curve" smooth="yes"/>
      <point x="373.296820139" y="1033.0"/>
      <point x="446.0" y="1108.31788168"/>
      <point x="446" y="1193" type="curve" smooth="yes"/>
      <point x="446.0" y="1281.0"/>
      <point x="374.0" y="1353.0"/>
    </contour>
    <contour>
      <point x="395" y="975" type="line"/>
      <point x="173" y="975" type="line"/>
      <point x="143" y="-261" type="line"/>
      <point x="424" y="-261" type="line"/>
    </contour>
  </outline>
</glyph>
<glyph name="cent" format="1">
  <advance width="1108"/>
  <unicode hex="00A2"/>
  <outline>
    <contour>
      <point x="451" y="375" type="curve" smooth="yes"/>
      <point x="424" y="404"/>
      <point x="401.904753267" y="437.961060164"/>
      <point x="375" y="504" type="curve"/>
      <point x="347.591462523" y="579.373478061"/>
      <point x="339.0" y="673.060548354"/>
      <point x="339" y="762" type="curve" smooth="yes"/>
      <point x="339.0" y="902.463841657"/>
      <point x="367.577871061" y="1060.6834033"/>
      <point x="484" y="1148" type="curve" smooth="yes"/>
      <point x="505" y="1164"/>
      <point x="530" y="1175"/>
      <point x="559" y="1181" type="curve"/>
      <point x="486" y="346" type="line"/>
      <point x="473" y="354"/>
      <point x="462" y="364"/>
    </contour>
    <contour>
      <point x="632" y="-267" type="line"/>
      <point x="660" y="85" type="line"/>
      <point x="753" y="92"/>
      <point x="832" y="120"/>
      <point x="899" y="166" type="curve" smooth="yes"/>
      <point x="977" y="220"/>
      <point x="1037" y="302"/>
      <point x="1080" y="411" type="curve" smooth="yes"/>
      <point x="1099" y="461" type="line"/>
      <point x="871" y="536" type="line"/>
      <point x="853" y="490" type="line" smooth="yes"/>
      <point x="831" y="431"/>
      <point x="801" y="386"/>
      <point x="762" y="355" type="curve" smooth="yes"/>
      <point x="739" y="337"/>
      <point x="712" y="325"/>
      <point x="682" y="317" type="curve"/>
      <point x="756" y="1173" type="line"/>
      <point x="775" y="1168"/>
      <point x="794" y="1163"/>
      <point x="812" y="1156" type="curve" smooth="yes"/>
      <point x="850" y="1143"/>
      <point x="888" y="1125"/>
      <point x="928" y="1103" type="curve" smooth="yes"/>
      <point x="976" y="1077" type="line"/>
      <point x="1073" y="1291" type="line"/>
      <point x="1029" y="1313" type="line" smooth="yes"/>
      <point x="974" y="1340"/>
      <point x="921" y="1361"/>
      <point x="870" y="1376" type="curve" smooth="yes"/>
      <point x="837" y="1386"/>
      <point x="805" y="1393"/>
      <point x="774" y="1399" type="curve"/>
      <point x="806" y="1759" type="line"/>
      <point x="608" y="1759" type="line"/>
      <point x="578" y="1409" type="line"/>
      <point x="433.181279636" y="1398.89636835"/>
      <point x="327.325705549" y="1340.32570555"/>
      <point x="251" y="1264" type="curve"/>
      <point x="241" y="1268" type="line"/>
      <point x="191" y="1192" type="line" smooth="yes"/>
      <point x="148" y="1129"/>
      <point x="119" y="1057"/>
      <point x="101" y="978" type="curve" smooth="yes"/>
      <point x="84" y="901"/>
      <point x="76" y="825"/>
      <point x="76" y="748" type="curve"/>
      <point x="76" y="683"/>
      <point x="83" y="615"/>
      <point x="98" y="545" type="curve" smooth="yes"/>
      <point x="128.483375835" y="402.744246105"/>
      <point x="197" y="274"/>
      <point x="305" y="183" type="curve" smooth="yes"/>
      <point x="351" y="145"/>
      <point x="404" y="118"/>
      <point x="466" y="100" type="curve"/>
      <point x="434" y="-267" type="line"/>
    </contour>
  </outline>
</glyph>
<glyph name="sterling" format="1">
  <advance width="1255"/>
  <unicode hex="00A3"/>
  <outline>
    <contour>
      <point x="111" y="-50" type="line"/>
      <point x="1206" y="-50" type="line"/>
      <point x="1206" y="312" type="line"/>
      <point x="968" y="312" type="line"/>
      <point x="968" y="182" type="line"/>
      <point x="447" y="181" type="line"/>
      <point x="450" y="189"/>
      <point x="453" y="197"/>
      <point x="454" y="204" type="curve" smooth="yes"/>
      <point x="459" y="231"/>
      <point x="463" y="275"/>
      <point x="463" y="336" type="curve" smooth="yes"/>
      <point x="463" y="596" type="line"/>
      <point x="873" y="596" type="line"/>
      <point x="873" y="824" type="line"/>
      <point x="463" y="824" type="line"/>
      <point x="463" y="1063" type="line" smooth="yes"/>
      <point x="463.0" y="1248.6807998"/>
      <point x="533.433403622" y="1350.0"/>
      <point x="697" y="1350" type="curve" smooth="yes"/>
      <point x="827.421386912" y="1350.0"/>
      <point x="919.311568069" y="1266.62257092"/>
      <point x="958" y="1108" type="curve" smooth="yes"/>
      <point x="971" y="1058" type="line"/>
      <point x="1203" y="1117" type="line"/>
      <point x="1193" y="1165" type="line" smooth="yes"/>
      <point x="1132.38274698" y="1441.81878878"/>
      <point x="966.278359446" y="1577.0"/>
      <point x="699" y="1577" type="curve" smooth="yes"/>
      <point x="354.092558444" y="1577.0"/>
      <point x="215.0" y="1397.98566369"/>
      <point x="215" y="1065" type="curve" smooth="yes"/>
      <point x="215" y="826" type="line"/>
      <point x="27" y="826" type="line"/>
      <point x="27" y="598" type="line"/>
      <point x="215" y="598" type="line"/>
      <point x="215" y="317" type="line" smooth="yes"/>
      <point x="215" y="280"/>
      <point x="208" y="246"/>
      <point x="194" y="215" type="curve" smooth="yes"/>
      <point x="180" y="185"/>
      <point x="158" y="158"/>
      <point x="129" y="134" type="curve" smooth="yes"/>
      <point x="111" y="119" type="line"/>
    </contour>
  </outline>
</glyph>
<glyph name="currency" format="1">
  <advance width="1278"/>
  <unicode hex="00A4"/>
  <outline>
    <contour>
      <point x="1125" y="95" type="line"/>
      <point x="1292" y="261" type="line"/>
      <point x="1050" y="502" type="line"/>
      <point x="1095.39773192" y="576.069983661"/>
      <point x="1119.0" y="658.292300911"/>
      <point x="1119" y="746" type="curve" smooth="yes"/>
      <point x="1119.0" y="836.133004734"/>
      <point x="1097.1187319" y="919.180949632"/>
      <point x="1051" y="992" type="curve"/>
      <point x="1293" y="1235" type="line"/>
      <point x="1126" y="1401" type="line"/>
      <point x="886" y="1160" type="line"/>
      <point x="811.930016339" y="1205.39773192"/>
      <point x="730.1472167" y="1229.0"/>
      <point x="639" y="1229" type="curve" smooth="yes"/>
      <point x="552.27112987" y="1229.0"/>
      <point x="464.201134817" y="1203.50388473"/>
      <point x="391" y="1161" type="curve"/>
      <point x="151" y="1402" type="line"/>
      <point x="-16" y="1236" type="line"/>
      <point x="224" y="994" type="line"/>
      <point x="180.308569779" y="921.180949632"/>
      <point x="156.0" y="839.833627465"/>
      <point x="156" y="748" type="curve" smooth="yes"/>
      <point x="156.0" y="657.866995266"/>
      <point x="178.881268101" y="574.819050368"/>
      <point x="225" y="502" type="curve"/>
      <point x="-16" y="261" type="line"/>
      <point x="151" y="95" type="line"/>
      <point x="392" y="335" type="line"/>
      <point x="467.246352046" y="288.881268101"/>
      <point x="547.866995266" y="266.0"/>
      <point x="638" y="266" type="curve" smooth="yes"/>
      <point x="729.833627465" y="266.0"/>
      <point x="811.180949632" y="290.308569779"/>
      <point x="884" y="334" type="curve"/>
    </contour>
    <contour>
      <point x="851.698603817" y="871.301396183"/>
      <point x="879.0" y="812.438179992"/>
      <point x="879" y="746" type="curve" smooth="yes"/>
      <point x="879.0" y="615.410863162"/>
      <point x="767.058688992" y="505.0"/>
      <point x="637" y="505" type="curve" smooth="yes"/>
      <point x="502.270286174" y="505.0"/>
      <point x="395.0" y="611.703934611"/>
      <point x="395" y="747" type="curve" smooth="yes"/>
      <point x="395.0" y="887.888328428"/>
      <point x="511.337126009" y="990.0"/>
      <point x="636" y="990" type="curve" smooth="yes"/>
      <point x="700.0" y="990.0"/>
      <point x="760.0" y="963.0"/>
      <point x="804" y="919" type="curve" smooth="yes"/>
      <point x="806" y="917" type="line" smooth="yes"/>
    </contour>
  </outline>
</glyph>
<glyph name="yen" format="1">
  <advance width="1122"/>
  <unicode hex="00A5"/>
  <outline>
    <contour>
      <point x="430" y="-51" type="line"/>
      <point x="696" y="-51" type="line"/>
      <point x="696" y="459" type="line"/>
      <point x="1098" y="459" type="line"/>
      <point x="1098" y="655" type="line"/>
      <point x="755" y="655" type="line"/>
      <point x="802" y="760" type="line"/>
      <point x="1098" y="760" type="line"/>
      <point x="1098" y="956" type="line"/>
      <point x="888" y="956" type="line"/>
      <point x="1149" y="1546" type="line"/>
      <point x="853" y="1546" type="line"/>
      <point x="563" y="844" type="line"/>
      <point x="272" y="1546" type="line"/>
      <point x="-23" y="1546" type="line"/>
      <point x="236" y="956" type="line"/>
      <point x="31" y="956" type="line"/>
      <point x="31" y="760" type="line"/>
      <point x="324" y="760" type="line"/>
      <point x="370" y="655" type="line"/>
      <point x="29" y="655" type="line"/>
      <point x="29" y="459" type="line"/>
      <point x="430" y="459" type="line"/>
    </contour>
  </outline>
</glyph>
<glyph name="brokenbar" format="1">
  <advance width="580"/>
  <unicode hex="00A6"/>
  <outline>
    <contour>
      <point x="174" y="864" type="line"/>
      <point x="406" y="864" type="line"/>
      <point x="406" y="1676" type="line"/>
      <point x="174" y="1676" type="line"/>
    </contour>
    <contour>
      <point x="174" y="-181" type="line"/>
      <point x="406" y="-181" type="line"/>
      <point x="406" y="504" type="line"/>
      <point x="174" y="504" type="line"/>
    </contour>
  </outline>
</glyph>
<glyph name="section" format="1">
  <advance width="1079"/>
  <unicode hex="00A7"/>
  <outline>
    <contour>
      <point x="545" y="349" type="curve" smooth="yes"/>
      <point x="536" y="349"/>
      <point x="528" y="349"/>
      <point x="521" y="350" type="curve" smooth="yes"/>
      <point x="515" y="351"/>
      <point x="510" y="351"/>
      <point x="506" y="352" type="curve"/>
      <point x="407.623658156" y="400.223696982"/>
      <point x="355.0" y="450.558100295"/>
      <point x="355" y="544" type="curve" smooth="yes"/>
      <point x="355.0" y="636.747817162"/>
      <point x="422" y="705"/>
      <point x="531" y="705" type="curve" smooth="yes"/>
      <point x="539" y="705"/>
      <point x="546" y="705"/>
      <point x="552" y="704" type="curve" smooth="yes"/>
      <point x="557" y="703"/>
      <point x="562" y="703"/>
      <point x="566" y="702" type="curve"/>
      <point x="663.649703562" y="654.132498254"/>
      <point x="720.0" y="603.289708634"/>
      <point x="720" y="507" type="curve" smooth="yes"/>
      <point x="720" y="491" type="line"/>
      <point x="711.259259259" y="410.148148148"/>
      <point x="640.875" y="349.0"/>
    </contour>
    <contour>
      <point x="535" y="-551" type="curve" smooth="yes"/>
      <point x="600" y="-551"/>
      <point x="662" y="-542"/>
      <point x="717" y="-525" type="curve" smooth="yes"/>
      <point x="775" y="-507"/>
      <point x="825" y="-479"/>
      <point x="868" y="-444" type="curve" smooth="yes"/>
      <point x="911" y="-408"/>
      <point x="945" y="-365"/>
      <point x="969" y="-314" type="curve" smooth="yes"/>
      <point x="993" y="-264"/>
      <point x="1006" y="-206"/>
      <point x="1006" y="-142" type="curve" smooth="yes"/>
      <point x="1006" y="-42"/>
      <point x="979" y="38"/>
      <point x="927" y="98" type="curve" smooth="yes"/>
      <point x="896" y="135"/>
      <point x="856" y="168"/>
      <point x="809" y="199" type="curve"/>
      <point x="847" y="223"/>
      <point x="880" y="253"/>
      <point x="907" y="287" type="curve" smooth="yes"/>
      <point x="947" y="339"/>
      <point x="972" y="403"/>
      <point x="978" y="480" type="curve"/>
      <point x="984" y="481" type="line"/>
      <point x="984" y="521" type="line" smooth="yes"/>
      <point x="984" y="607"/>
      <point x="964" y="677"/>
      <point x="927" y="732" type="curve" smooth="yes"/>
      <point x="859.065703272" y="832.930955138"/>
      <point x="747.763316926" y="904.494673229"/>
      <point x="624" y="954" type="curve" smooth="yes"/>
      <point x="475.252317728" y="1016.20357622"/>
      <point x="330.0" y="1067.36931799"/>
      <point x="330" y="1208" type="curve" smooth="yes"/>
      <point x="330.0" y="1313.51749076"/>
      <point x="411.056187859" y="1376.0"/>
      <point x="546" y="1376" type="curve" smooth="yes"/>
      <point x="672.812578598" y="1376.0"/>
      <point x="751.316259241" y="1294.07683341"/>
      <point x="786" y="1138" type="curve" smooth="yes"/>
      <point x="798" y="1087" type="line"/>
      <point x="1039" y="1146" type="line"/>
      <point x="1029" y="1195" type="line" smooth="yes"/>
      <point x="1000" y="1326"/>
      <point x="944" y="1426"/>
      <point x="862" y="1497" type="curve" smooth="yes"/>
      <point x="780" y="1568"/>
      <point x="670" y="1605"/>
      <point x="533" y="1605" type="curve" smooth="yes"/>
      <point x="332.908156966" y="1605.0"/>
      <point x="171.081713272" y="1516.9236407"/>
      <point x="101" y="1368" type="curve" smooth="yes"/>
      <point x="77" y="1318"/>
      <point x="64" y="1259"/>
      <point x="64" y="1194" type="curve"/>
      <point x="64" y="1094"/>
      <point x="91" y="1014"/>
      <point x="142" y="952" type="curve" smooth="yes"/>
      <point x="172" y="915"/>
      <point x="211" y="882"/>
      <point x="258" y="851" type="curve"/>
      <point x="218" y="826"/>
      <point x="185" y="796"/>
      <point x="158" y="761" type="curve" smooth="yes"/>
      <point x="112" y="700"/>
      <point x="88" y="623"/>
      <point x="88" y="528" type="curve"/>
      <point x="88" y="443"/>
      <point x="108" y="373"/>
      <point x="145" y="318" type="curve" smooth="yes"/>
      <point x="214.544491965" y="213.683262053"/>
      <point x="325" y="149"/>
      <point x="447" y="99" type="curve" smooth="yes"/>
      <point x="593.552031943" y="39.2936166158"/>
      <point x="743.0" y="-9.91236839346"/>
      <point x="743" y="-153" type="curve" smooth="yes"/>
      <point x="743.0" y="-259.620100759"/>
      <point x="662.102363185" y="-326.0"/>
      <point x="526" y="-326" type="curve" smooth="yes"/>
      <point x="399.310665256" y="-326.0"/>
      <point x="320.572269072" y="-241.074916647"/>
      <point x="282" y="-81" type="curve" smooth="yes"/>
      <point x="269" y="-31" type="line"/>
      <point x="31" y="-90" type="line"/>
      <point x="40" y="-138" type="line" smooth="yes"/>
      <point x="65" y="-271"/>
      <point x="121" y="-372"/>
      <point x="203" y="-443" type="curve" smooth="yes"/>
      <point x="285" y="-514"/>
      <point x="396" y="-551"/>
    </contour>
  </outline>
</glyph>
<glyph name="dieresis" format="1">
  <advance width="986"/>
  <unicode hex="00A8"/>
  <outline>
    <contour>
      <point x="702" y="1288" type="curve" smooth="yes"/>
      <point x="753" y="1288" type="line"/>
      <point x="753" y="1298" type="line"/>
      <point x="809.489558634" y="1317.77134552"/>
      <point x="856.0" y="1377.52781807"/>
      <point x="856" y="1441" type="curve" smooth="yes"/>
      <point x="856.0" y="1521.0"/>
      <point x="782.0" y="1595.0"/>
      <point x="702" y="1595" type="curve" smooth="yes"/>
      <point x="622.0" y="1595.0"/>
      <point x="548.0" y="1521.0"/>
      <point x="548" y="1441" type="curve" smooth="yes"/>
      <point x="548.0" y="1361.52560437"/>
      <point x="629.783698985" y="1288.0"/>
    </contour>
    <contour>
      <point x="283" y="1287" type="curve" smooth="yes"/>
      <point x="334" y="1287" type="line"/>
      <point x="334" y="1297" type="line"/>
      <point x="389.294117647" y="1316.35294118"/>
      <point x="435.0" y="1375.76666667"/>
      <point x="435" y="1440" type="curve" smooth="yes"/>
      <point x="435.0" y="1520.67142028"/>
      <point x="364.323155391" y="1594.0"/>
      <point x="283" y="1594" type="curve" smooth="yes"/>
      <point x="203.0" y="1594.0"/>
      <point x="129.0" y="1520.0"/>
      <point x="129" y="1440" type="curve" smooth="yes"/>
      <point x="129.0" y="1360.02379118"/>
      <point x="210.756227503" y="1287.0"/>
    </contour>
  </outline>
</glyph>
<glyph name="copyright" format="1">
  <advance width="1475"/>
  <unicode hex="00A9"/>
  <outline>
    <contour>
      <point x="264.0" y="1261.78330027"/>
      <point x="440.828694499" y="1458.0"/>
      <point x="740" y="1458" type="curve" smooth="yes"/>
      <point x="1034.86609376" y="1458.0"/>
      <point x="1216.0" y="1260.16826562"/>
      <point x="1216" y="977" type="curve" smooth="yes"/>
      <point x="1216.0" y="697.0"/>
      <point x="1020.0" y="483.0"/>
      <point x="740" y="483" type="curve" smooth="yes"/>
      <point x="462.492922252" y="483.0"/>
      <point x="264.0" y="696.523205603"/>
      <point x="264" y="977" type="curve" smooth="yes"/>
      <point x="264" y="979" type="line" smooth="yes"/>
    </contour>
    <contour>
      <point x="928.658669594" y="586.0"/>
      <point x="1034.20883403" y="699.862174842"/>
      <point x="1039" y="704" type="curve" smooth="yes"/>
      <point x="1088" y="743" type="line"/>
      <point x="951" y="853" type="line"/>
      <point x="918" y="825" type="line" smooth="yes"/>
      <point x="915.330288113" y="822.686249698"/>
      <point x="871.400720343" y="756.0"/>
      <point x="755" y="756" type="curve" smooth="yes"/>
      <point x="634.057181867" y="756.0"/>
      <point x="550.0" y="857.040552015"/>
      <point x="550" y="982" type="curve" smooth="yes"/>
      <point x="550.0" y="1109.18481155"/>
      <point x="635.251704181" y="1197.0"/>
      <point x="752" y="1197" type="curve" smooth="yes"/>
      <point x="804.846157382" y="1197.0"/>
      <point x="872.254614369" y="1194.7011018"/>
      <point x="890" y="1144" type="curve" smooth="yes"/>
      <point x="906" y="1101" type="line"/>
      <point x="1063" y="1141" type="line"/>
      <point x="1052" y="1190" type="line" smooth="yes"/>
      <point x="1022.65903485" y="1311.03148126"/>
      <point x="864.563617044" y="1368.0"/>
      <point x="748" y="1368" type="curve" smooth="yes"/>
      <point x="536.195387286" y="1368.0"/>
      <point x="373.0" y="1202.26232244"/>
      <point x="373" y="984" type="curve" smooth="yes"/>
      <point x="373" y="976" type="line"/>
      <point x="374" y="973" type="line"/>
      <point x="378.113203659" y="757.056807908"/>
      <point x="536.946235274" y="586.0"/>
      <point x="753" y="586" type="curve" smooth="yes"/>
    </contour>
    <contour>
      <point x="737" y="316" type="curve" smooth="yes"/>
      <point x="1119.4707288" y="316.0"/>
      <point x="1393.0" y="605.498594951"/>
      <point x="1393" y="981" type="curve" smooth="yes"/>
      <point x="1393.0" y="1352.24124292"/>
      <point x="1156.8560741" y="1628.0"/>
      <point x="738" y="1628" type="curve" smooth="yes"/>
      <point x="334.151266179" y="1628.0"/>
      <point x="105.941217804" y="1375.43597199"/>
      <point x="85" y="1032" type="curve"/>
      <point x="82" y="1032" type="line"/>
      <point x="82" y="981" type="line" smooth="yes"/>
      <point x="82.0" y="609.0"/>
      <point x="345.0" y="316.0"/>
    </contour>
  </outline>
</glyph>
<glyph name="ordfeminine" format="1">
  <advance width="838"/>
  <unicode hex="00AA"/>
  <outline>
    <contour>
      <point x="240.000569665" y="881.384527744"/>
      <point x="237.103403588" y="979.510321845"/>
      <point x="310" y="1017" type="curve" smooth="yes"/>
      <point x="350" y="1037"/>
      <point x="408" y="1048"/>
      <point x="481" y="1052" type="curve"/>
      <point x="475" y="1003"/>
      <point x="460" y="962"/>
      <point x="435" y="929" type="curve" smooth="yes"/>
      <point x="405" y="892"/>
      <point x="367" y="872"/>
      <point x="320" y="872" type="curve" smooth="yes"/>
      <point x="301" y="872" type="line"/>
    </contour>
    <contour>
      <point x="327" y="667" type="line"/>
      <point x="327" y="671" type="line"/>
      <point x="376" y="677"/>
      <point x="420" y="692"/>
      <point x="457" y="714" type="curve" smooth="yes"/>
      <point x="476" y="726"/>
      <point x="494" y="740"/>
      <point x="511" y="755" type="curve"/>
      <point x="520" y="738"/>
      <point x="531" y="724"/>
      <point x="544" y="713" type="curve" smooth="yes"/>
      <point x="579" y="684"/>
      <point x="622" y="668"/>
      <point x="676" y="668" type="curve" smooth="yes"/>
      <point x="716.922349259" y="668.0"/>
      <point x="758.755871272" y="674.621352126"/>
      <point x="806" y="689" type="curve" smooth="yes"/>
      <point x="850" y="701" type="line"/>
      <point x="816" y="906" type="line"/>
      <point x="761" y="890" type="line" smooth="yes"/>
      <point x="750.10744349" y="887.821488698"/>
      <point x="737.636753237" y="885.0"/>
      <point x="721" y="885" type="curve"/>
      <point x="722" y="885"/>
      <point x="721" y="883"/>
      <point x="721" y="883" type="curve"/>
      <point x="719" y="887"/>
      <point x="719" y="893"/>
      <point x="719" y="899" type="curve" smooth="yes"/>
      <point x="719" y="1245" type="line" smooth="yes"/>
      <point x="719" y="1365"/>
      <point x="687" y="1447"/>
      <point x="632" y="1495" type="curve" smooth="yes"/>
      <point x="577" y="1543"/>
      <point x="500" y="1570"/>
      <point x="399" y="1570" type="curve" smooth="yes"/>
      <point x="305.904378876" y="1570.0"/>
      <point x="207.980981331" y="1547.49049067"/>
      <point x="107" y="1497" type="curve" smooth="yes"/>
      <point x="63" y="1475" type="line"/>
      <point x="148" y="1280" type="line"/>
      <point x="198" y="1309" type="line" smooth="yes"/>
      <point x="266.709230445" y="1350.22553827"/>
      <point x="331.04271802" y="1367.0"/>
      <point x="382" y="1367" type="curve" smooth="yes"/>
      <point x="453.938618524" y="1367.0"/>
      <point x="485.0" y="1333.42837411"/>
      <point x="485" y="1238" type="curve"/>
      <point x="338" y="1234"/>
      <point x="231" y="1208"/>
      <point x="162" y="1167" type="curve" smooth="yes"/>
      <point x="74" y="1114"/>
      <point x="29" y="1034"/>
      <point x="29" y="925" type="curve" smooth="yes"/>
      <point x="29.0" y="760.083885463"/>
      <point x="128.817603142" y="667.0"/>
      <point x="276" y="667" type="curve" smooth="yes"/>
    </contour>
  </outline>
</glyph>
<glyph name="guillemotleft" format="1">
  <advance width="913"/>
  <unicode hex="00AB"/>
  <outline>
    <contour>
      <point x="271" y="319" type="line"/>
      <point x="549" y="319" type="line"/>
      <point x="554" y="331" type="line"/>
      <point x="294" y="658" type="line"/>
      <point x="554" y="996" type="line"/>
      <point x="549" y="1006" type="line"/>
      <point x="270" y="1006" type="line"/>
      <point x="45" y="723" type="line"/>
      <point x="45" y="592" type="line"/>
    </contour>
    <contour>
      <point x="636" y="320" type="line"/>
      <point x="908" y="320" type="line"/>
      <point x="913" y="331" type="line"/>
      <point x="656" y="657" type="line"/>
      <point x="913" y="995" type="line"/>
      <point x="908" y="1005" type="line"/>
      <point x="635" y="1005" type="line"/>
      <point x="410" y="723" type="line"/>
      <point x="410" y="592" type="line"/>
    </contour>
  </outline>
</glyph>
<glyph name="logicalnot" format="1">
  <advance width="1196"/>
  <unicode hex="00AC"/>
  <outline>
    <contour>
      <point x="828" y="348" type="line"/>
      <point x="1052" y="348" type="line"/>
      <point x="1052" y="864" type="line"/>
      <point x="144" y="864" type="line"/>
      <point x="144" y="631" type="line"/>
      <point x="828" y="631" type="line"/>
    </contour>
  </outline>
</glyph>
<glyph name="registered" format="1">
  <advance width="1475"/>
  <unicode hex="00AE"/>
  <outline>
    <contour>
      <point x="264.0" y="1262.78330027"/>
      <point x="440.828694499" y="1459.0"/>
      <point x="740" y="1459" type="curve" smooth="yes"/>
      <point x="1034.86609376" y="1459.0"/>
      <point x="1216.0" y="1261.16826562"/>
      <point x="1216" y="978" type="curve" smooth="yes"/>
      <point x="1216.0" y="698.0"/>
      <point x="1020.0" y="484.0"/>
      <point x="740" y="484" type="curve" smooth="yes"/>
      <point x="462.492922252" y="484.0"/>
      <point x="264.0" y="697.523205603"/>
      <point x="264" y="978" type="curve" smooth="yes"/>
      <point x="264" y="980" type="line" smooth="yes"/>
    </contour>
    <contour>
      <point x="923" y="616" type="curve" smooth="yes"/>
      <point x="1064" y="616" type="line"/>
      <point x="1061" y="777" type="line"/>
      <point x="986" y="777" type="line"/>
      <point x="931" y="897" type="line" smooth="yes"/>
      <point x="926" y="910"/>
      <point x="920" y="922"/>
      <point x="912" y="932" type="curve"/>
      <point x="959.598226053" y="970.078580842"/>
      <point x="992.0" y="1033.31143116"/>
      <point x="992" y="1118" type="curve" smooth="yes"/>
      <point x="992.0" y="1275.26056145"/>
      <point x="907.158280928" y="1359.0"/>
      <point x="736" y="1359" type="curve" smooth="yes"/>
      <point x="429" y="1359" type="line"/>
      <point x="429" y="1198" type="line"/>
      <point x="488" y="1198" type="line"/>
      <point x="488" y="617" type="line"/>
      <point x="660" y="617" type="line"/>
      <point x="660" y="880" type="line"/>
      <point x="707" y="880" type="line" smooth="yes"/>
      <point x="725.333436468" y="880.0"/>
      <point x="741.687641404" y="881.874905731"/>
      <point x="752" y="875" type="curve" smooth="yes"/>
      <point x="755" y="873"/>
      <point x="757" y="871"/>
      <point x="759" y="868" type="curve" smooth="yes"/>
      <point x="763" y="864"/>
      <point x="766" y="857"/>
      <point x="769" y="849" type="curve" smooth="yes"/>
      <point x="846" y="667" type="line" smooth="yes"/>
      <point x="854" y="648"/>
      <point x="866" y="636"/>
      <point x="879" y="628" type="curve" smooth="yes"/>
      <point x="891" y="621"/>
      <point x="906" y="616"/>
    </contour>
    <contour>
      <point x="740" y="1198" type="line" smooth="yes"/>
      <point x="795.060048085" y="1198.0"/>
      <point x="825.0" y="1175.04599214"/>
      <point x="825" y="1118" type="curve" smooth="yes"/>
      <point x="825.0" y="1063.06682238"/>
      <point x="795.060048085" y="1039.0"/>
      <point x="740" y="1039" type="curve" smooth="yes"/>
      <point x="664" y="1039" type="line"/>
      <point x="664" y="1198" type="line"/>
    </contour>
    <contour>
      <point x="737" y="317" type="curve" smooth="yes"/>
      <point x="1119.4707288" y="317.0"/>
      <point x="1393.0" y="606.498594951"/>
      <point x="1393" y="982" type="curve" smooth="yes"/>
      <point x="1393.0" y="1353.24124292"/>
      <point x="1156.8560741" y="1629.0"/>
      <point x="738" y="1629" type="curve" smooth="yes"/>
      <point x="334.151266179" y="1629.0"/>
      <point x="105.941217804" y="1376.43597199"/>
      <point x="85" y="1033" type="curve"/>
      <point x="82" y="1033" type="line"/>
      <point x="82" y="982" type="line" smooth="yes"/>
      <point x="82.0" y="610.0"/>
      <point x="345.0" y="317.0"/>
    </contour>
  </outline>
</glyph>
<glyph name="macron" format="1">
  <advance width="1174"/>
  <unicode hex="00AF"/>
  <outline>
    <contour>
      <point x="178" y="1272" type="line"/>
      <point x="1016" y="1272" type="line"/>
      <point x="1016" y="1501" type="line"/>
      <point x="178" y="1501" type="line"/>
    </contour>
  </outline>
</glyph>
<glyph name="degree" format="1">
  <advance width="895"/>
  <unicode hex="00B0"/>
  <outline>
    <contour>
      <point x="453" y="668" type="curve" smooth="yes"/>
      <point x="719.0" y="668.0"/>
      <point x="868.0" y="829.0"/>
      <point x="868" y="1109" type="curve" smooth="yes"/>
      <point x="868.0" y="1394.79489615"/>
      <point x="701.352331698" y="1569.0"/>
      <point x="439" y="1569" type="curve" smooth="yes"/>
      <point x="176.562498531" y="1569.0"/>
      <point x="28.0" y="1412.93577815"/>
      <point x="28" y="1123" type="curve" smooth="yes"/>
      <point x="28.0" y="821.550346135"/>
      <point x="262.193769701" y="668.0"/>
    </contour>
    <contour>
      <point x="448" y="870" type="curve" smooth="yes"/>
      <point x="342.0" y="870.0"/>
      <point x="269.0" y="959.0"/>
      <point x="263" y="1099" type="curve"/>
      <point x="264" y="1100" type="line"/>
      <point x="264" y="1121" type="line" smooth="yes"/>
      <point x="264.0" y="1270.77962172"/>
      <point x="326.612274349" y="1363.0"/>
      <point x="443" y="1363" type="curve" smooth="yes"/>
      <point x="562.388402864" y="1363.0"/>
      <point x="633.0" y="1256.69508769"/>
      <point x="633" y="1117" type="curve" smooth="yes"/>
      <point x="633.0" y="957.970475519"/>
      <point x="575.173556474" y="870.0"/>
    </contour>
  </outline>
</glyph>
<glyph name="plusminus" format="1">
  <advance width="1196"/>
  <unicode hex="00B1"/>
  <outline>
    <contour>
      <point x="479" y="291" type="line"/>
      <point x="715" y="291" type="line"/>
      <point x="715" y="631" type="line"/>
      <point x="1050" y="631" type="line"/>
      <point x="1050" y="864" type="line"/>
      <point x="715" y="864" type="line"/>
      <point x="715" y="1202" type="line"/>
      <point x="479" y="1202" type="line"/>
      <point x="479" y="864" type="line"/>
      <point x="144" y="864" type="line"/>
      <point x="144" y="631" type="line"/>
      <point x="479" y="631" type="line"/>
    </contour>
    <contour>
      <point x="144" y="-51" type="line"/>
      <point x="1052" y="-51" type="line"/>
      <point x="1052" y="182" type="line"/>
      <point x="144" y="182" type="line"/>
    </contour>
  </outline>
</glyph>
<glyph name="uni00B3" format="1">
  <advance width="811"/>
  <unicode hex="00B3"/>
  <outline>
    <contour>
      <point x="396" y="665" type="curve" smooth="yes"/>
      <point x="609.923291103" y="665.0"/>
      <point x="732.0" y="768.011368083"/>
      <point x="732" y="949" type="curve" smooth="yes"/>
      <point x="732.0" y="1022.54065923"/>
      <point x="697.038669737" y="1093.61748785"/>
      <point x="639" y="1138" type="curve"/>
      <point x="689.515087055" y="1184.62931113"/>
      <point x="715.0" y="1245.32711018"/>
      <point x="715" y="1314" type="curve" smooth="yes"/>
      <point x="715.0" y="1490.91616464"/>
      <point x="594.739688592" y="1589.0"/>
      <point x="395" y="1589" type="curve" smooth="yes"/>
      <point x="197.0" y="1589.0"/>
      <point x="78.0" y="1467.0"/>
      <point x="78" y="1287" type="curve"/>
      <point x="78" y="1236" type="line"/>
      <point x="299" y="1236" type="line"/>
      <point x="299" y="1287" type="line" smooth="yes"/>
      <point x="299.0" y="1349.17296522"/>
      <point x="332.365094759" y="1388.0"/>
      <point x="388" y="1388" type="curve" smooth="yes"/>
      <point x="444.316879089" y="1388.0"/>
      <point x="480.0" y="1359.0789616"/>
      <point x="480" y="1312" type="curve" smooth="yes"/>
      <point x="480.0" y="1246.57526115"/>
      <point x="428.808109706" y="1219.0"/>
      <point x="339" y="1219" type="curve" smooth="yes"/>
      <point x="284" y="1220" type="line"/>
      <point x="232" y="1221" type="line"/>
      <point x="232" y="1043" type="line"/>
      <point x="344" y="1043" type="line" smooth="yes"/>
      <point x="440.25" y="1043.0"/>
      <point x="499.0" y="1018.0"/>
      <point x="499" y="948" type="curve" smooth="yes"/>
      <point x="499.0" y="891.955320522"/>
      <point x="454.990474862" y="866.0"/>
      <point x="390" y="866" type="curve" smooth="yes"/>
      <point x="326.0" y="866.0"/>
      <point x="289.0" y="905.0"/>
      <point x="289" y="969" type="curve" smooth="yes"/>
      <point x="289" y="1020" type="line"/>
      <point x="66" y="1020" type="line"/>
      <point x="66" y="969" type="line" smooth="yes"/>
      <point x="66.0" y="783.541523814"/>
      <point x="181.05438429" y="665.0"/>
    </contour>
  </outline>
</glyph>
<glyph name="acute" format="1">
  <advance width="643"/>
  <unicode hex="00B4"/>
  <outline>
    <contour>
      <point x="172" y="1206" type="line"/>
      <point x="660" y="1518" type="line"/>
      <point x="495" y="1714" type="line"/>
      <point x="50" y="1367" type="line"/>
    </contour>
  </outline>
</glyph>
<glyph name="uni00B5" format="1">
  <advance width="1440"/>
  <unicode hex="00B5"/>
  <outline>
    <contour>
      <point x="441" y="-514" type="line"/>
      <point x="441" y="-54" type="line"/>
      <point x="446" y="-56"/>
      <point x="451" y="-58"/>
      <point x="456" y="-60" type="curve" smooth="yes"/>
      <point x="496" y="-75"/>
      <point x="543" y="-83"/>
      <point x="598" y="-83" type="curve" smooth="yes"/>
      <point x="667" y="-83"/>
      <point x="738" y="-69"/>
      <point x="811" y="-41" type="curve" smooth="yes"/>
      <point x="864" y="-20"/>
      <point x="917" y="8"/>
      <point x="972" y="44" type="curve"/>
      <point x="986" y="13"/>
      <point x="1005" y="-14"/>
      <point x="1029" y="-35" type="curve" smooth="yes"/>
      <point x="1069" y="-71"/>
      <point x="1123" y="-92"/>
      <point x="1193" y="-92" type="curve" smooth="yes"/>
      <point x="1193" y="-92"/>
      <point x="1404" y="-92"/>
      <point x="1404" y="-92" type="curve"/>
      <point x="1404" y="159" type="line"/>
      <point x="1246" y="159" type="line" smooth="yes"/>
      <point x="1235" y="159"/>
      <point x="1225" y="160"/>
      <point x="1219" y="168" type="curve" smooth="yes"/>
      <point x="1210" y="179"/>
      <point x="1209" y="197"/>
      <point x="1209" y="218" type="curve" smooth="yes"/>
      <point x="1209" y="1105" type="line" smooth="yes"/>
      <point x="1209" y="1143"/>
      <point x="1197" y="1170"/>
      <point x="1179" y="1188" type="curve" smooth="yes"/>
      <point x="1173" y="1194"/>
      <point x="1166" y="1199"/>
      <point x="1158" y="1204" type="curve"/>
      <point x="1163" y="1222" type="line"/>
      <point x="946" y="1222" type="line"/>
      <point x="946" y="277" type="line"/>
      <point x="892" y="234"/>
      <point x="838" y="202"/>
      <point x="784" y="180" type="curve" smooth="yes"/>
      <point x="726" y="157"/>
      <point x="668" y="145"/>
      <point x="609" y="145" type="curve" smooth="yes"/>
      <point x="554" y="145"/>
      <point x="512" y="155"/>
      <point x="488" y="184" type="curve" smooth="yes"/>
      <point x="462" y="215"/>
      <point x="452" y="267"/>
      <point x="452" y="337" type="curve" smooth="yes"/>
      <point x="452" y="1107" type="line" smooth="yes"/>
      <point x="452" y="1146"/>
      <point x="438" y="1174"/>
      <point x="418" y="1192" type="curve" smooth="yes"/>
      <point x="400" y="1208"/>
      <point x="372" y="1220"/>
      <point x="333" y="1220" type="curve" smooth="yes"/>
      <point x="190" y="1220" type="line"/>
      <point x="190" y="-534" type="line"/>
    </contour>
  </outline>
</glyph>
<glyph name="paragraph" format="1">
  <advance width="1159"/>
  <unicode hex="00B6"/>
  <outline>
    <contour>
      <point x="533" y="-50" type="line"/>
      <point x="749" y="-50" type="line"/>
      <point x="749" y="1322" type="line"/>
      <point x="1108" y="1322" type="line"/>
      <point x="1108" y="1547" type="line"/>
      <point x="582" y="1547" type="line" smooth="yes"/>
      <point x="442" y="1547"/>
      <point x="320" y="1498"/>
      <point x="216" y="1401" type="curve" smooth="yes"/>
      <point x="111" y="1303"/>
      <point x="59" y="1183"/>
      <point x="59" y="1040" type="curve"/>
      <point x="59" y="896"/>
      <point x="111" y="775"/>
      <point x="217" y="676" type="curve" smooth="yes"/>
      <point x="309" y="589"/>
      <point x="415" y="541"/>
      <point x="534" y="530" type="curve"/>
    </contour>
    <contour>
      <point x="988" y="1305" type="line"/>
      <point x="771" y="1305" type="line"/>
      <point x="771" y="-50" type="line"/>
      <point x="988" y="-50" type="line"/>
    </contour>
  </outline>
</glyph>
<glyph name="periodcentered" format="1">
  <advance width="537"/>
  <unicode hex="00B7"/>
  <outline>
    <contour>
      <point x="245" y="467" type="line"/>
      <point x="266" y="467" type="line" smooth="yes"/>
      <point x="359.911342168" y="467.0"/>
      <point x="432.0" y="551.225761836"/>
      <point x="432" y="631" type="curve" smooth="yes"/>
      <point x="432.0" y="715.0"/>
      <point x="352.0" y="795.0"/>
      <point x="268" y="795" type="curve" smooth="yes"/>
      <point x="187.604953984" y="795.0"/>
      <point x="104.0" y="718.39637756"/>
      <point x="104" y="631" type="curve" smooth="yes"/>
      <point x="104.0" y="544.526497041"/>
      <point x="168.426229376" y="480.510538661"/>
      <point x="242" y="470" type="curve"/>
    </contour>
  </outline>
</glyph>
<glyph name="cedilla" format="1">
  <advance width="616"/>
  <unicode hex="00B8"/>
  <outline>
    <contour>
      <point x="264" y="-545" type="curve" smooth="yes"/>
      <point x="416" y="-545"/>
      <point x="524" y="-451"/>
      <point x="524" y="-303" type="curve" smooth="yes"/>
      <point x="524" y="-161"/>
      <point x="452" y="-87"/>
      <point x="314" y="-63" type="curve"/>
      <point x="340" y="51" type="line"/>
      <point x="109" y="51" type="line"/>
      <point x="50" y="-246" type="line"/>
      <point x="85" y="-247" type="line"/>
      <point x="18" y="-247" type="line"/>
      <point x="18" y="-298" type="line" smooth="yes"/>
      <point x="18" y="-453"/>
      <point x="109" y="-545"/>
    </contour>
    <contour>
      <point x="267" y="-345" type="curve" smooth="yes"/>
      <point x="240" y="-345"/>
      <point x="226" y="-324"/>
      <point x="226" y="-298" type="curve" smooth="yes"/>
      <point x="226" y="-251" type="line"/>
      <point x="261" y="-252" type="line" smooth="yes"/>
      <point x="289" y="-253"/>
      <point x="320" y="-266"/>
      <point x="320" y="-296" type="curve" smooth="yes"/>
      <point x="320" y="-327"/>
      <point x="296" y="-345"/>
    </contour>
  </outline>
</glyph>
<glyph name="ordmasculine" format="1">
  <advance width="834"/>
  <unicode hex="00BA"/>
  <outline>
    <contour>
      <point x="420" y="666" type="curve" smooth="yes"/>
      <point x="441" y="666" type="line"/>
      <point x="443" y="668" type="line"/>
      <point x="673.54843428" y="678.111773433"/>
      <point x="807.0" y="834.039357561"/>
      <point x="807" y="1109" type="curve" smooth="yes"/>
      <point x="807.0" y="1398.6131655"/>
      <point x="646.360805466" y="1569.0"/>
      <point x="407" y="1569" type="curve" smooth="yes"/>
      <point x="162.130286433" y="1569.0"/>
      <point x="25.0" y="1413.07743734"/>
      <point x="25" y="1123" type="curve" smooth="yes"/>
      <point x="25.0" y="842.322974932"/>
      <point x="176.064782737" y="666.0"/>
    </contour>
    <contour>
      <point x="416" y="871" type="curve" smooth="yes"/>
      <point x="320.645082526" y="871.0"/>
      <point x="261.0" y="970.600608953"/>
      <point x="261" y="1121" type="curve" smooth="yes"/>
      <point x="261" y="1181" type="line"/>
      <point x="271.629479215" y="1289.420688"/>
      <point x="321.255463604" y="1363.0"/>
      <point x="410" y="1363" type="curve" smooth="yes"/>
      <point x="514.456433283" y="1363.0"/>
      <point x="571.0" y="1256.76598362"/>
      <point x="571" y="1118" type="curve" smooth="yes"/>
      <point x="571.0" y="957.956849715"/>
      <point x="524.074244322" y="871.0"/>
    </contour>
  </outline>
</glyph>
<glyph name="guillemotright" format="1">
  <advance width="913"/>
  <unicode hex="00BB"/>
  <outline>
    <contour>
      <point x="364" y="319" type="line"/>
      <point x="643" y="319" type="line"/>
      <point x="868" y="602" type="line"/>
      <point x="868" y="733" type="line"/>
      <point x="642" y="1006" type="line"/>
      <point x="364" y="1006" type="line"/>
      <point x="359" y="994" type="line"/>
      <point x="619" y="667" type="line"/>
      <point x="359" y="329" type="line"/>
    </contour>
    <contour>
      <point x="5" y="320" type="line"/>
      <point x="278" y="320" type="line"/>
      <point x="503" y="602" type="line"/>
      <point x="503" y="733" type="line"/>
      <point x="277" y="1005" type="line"/>
      <point x="5" y="1005" type="line"/>
      <point x="0" y="994" type="line"/>
      <point x="257" y="668" type="line"/>
      <point x="0" y="330" type="line"/>
    </contour>
  </outline>
</glyph>
<glyph name="onequarter" format="1">
  <advance width="1690"/>
  <unicode hex="00BC"/>
  <outline>
    <contour>
      <point x="402" y="-186" type="line"/>
      <point x="635" y="-186" type="line"/>
      <point x="1154" y="1679" type="line"/>
      <point x="922" y="1679" type="line"/>
    </contour>
    <contour>
      <point x="230" y="680" type="line"/>
      <point x="465" y="680" type="line"/>
      <point x="465" y="1575" type="line"/>
      <point x="302" y="1575" type="line"/>
      <point x="33" y="1495" type="line"/>
      <point x="53" y="1302" type="line"/>
      <point x="230" y="1340" type="line"/>
    </contour>
    <contour>
      <point x="1305" y="-51" type="line"/>
      <point x="1540" y="-51" type="line"/>
      <point x="1540" y="121" type="line"/>
      <point x="1632" y="121" type="line"/>
      <point x="1632" y="309" type="line"/>
      <point x="1540" y="309" type="line"/>
      <point x="1540" y="844" type="line"/>
      <point x="1262" y="844" type="line"/>
      <point x="903" y="264" type="line"/>
      <point x="903" y="121" type="line"/>
      <point x="1305" y="121" type="line"/>
    </contour>
    <contour>
      <point x="1305" y="309" type="line"/>
      <point x="1188" y="309" type="line"/>
      <point x="1305" y="493" type="line"/>
    </contour>
  </outline>
</glyph>
<glyph name="onehalf" format="1">
  <advance width="1690"/>
  <unicode hex="00BD"/>
  <outline>
    <contour>
      <point x="382" y="-186" type="line"/>
      <point x="614" y="-186" type="line"/>
      <point x="1134" y="1679" type="line"/>
      <point x="901" y="1679" type="line"/>
    </contour>
    <contour>
      <point x="230" y="680" type="line"/>
      <point x="465" y="680" type="line"/>
      <point x="465" y="1575" type="line"/>
      <point x="302" y="1575" type="line"/>
      <point x="33" y="1495" type="line"/>
      <point x="53" y="1302" type="line"/>
      <point x="230" y="1340" type="line"/>
    </contour>
    <contour>
      <point x="970" y="-52" type="line"/>
      <point x="1629" y="-52" type="line"/>
      <point x="1629" y="148" type="line"/>
      <point x="1315" y="148" type="line"/>
      <point x="1432" y="266" type="line" smooth="yes"/>
      <point x="1555.42051601" y="393.828391579"/>
      <point x="1617.0" y="473.163537763"/>
      <point x="1617" y="583" type="curve" smooth="yes"/>
      <point x="1617.0" y="759.858141674"/>
      <point x="1502.98878362" y="858.0"/>
      <point x="1297" y="858" type="curve" smooth="yes"/>
      <point x="1097.24304232" y="858.0"/>
      <point x="980.0" y="754.307910761"/>
      <point x="980" y="558" type="curve" smooth="yes"/>
      <point x="980" y="507" type="line"/>
      <point x="1207" y="507" type="line"/>
      <point x="1207" y="558" type="line" smooth="yes"/>
      <point x="1207.0" y="613.111111111"/>
      <point x="1231.92307692" y="651.230769231"/>
      <point x="1282" y="656" type="curve"/>
      <point x="1298" y="656" type="line" smooth="yes"/>
      <point x="1352.0" y="656.0"/>
      <point x="1383.0" y="624.0"/>
      <point x="1383" y="584" type="curve" smooth="yes"/>
      <point x="1383.0" y="544.998473646"/>
      <point x="1364.09773417" y="511.533286615"/>
      <point x="1330" y="475" type="curve" smooth="yes"/>
      <point x="1313" y="457"/>
      <point x="1293" y="436"/>
      <point x="1269" y="411" type="curve" smooth="yes"/>
      <point x="970" y="112" type="line"/>
    </contour>
  </outline>
</glyph>
<glyph name="threequarters" format="1">
  <advance width="1690"/>
  <unicode hex="00BE"/>
  <outline>
    <contour>
      <point x="496" y="-186" type="line"/>
      <point x="729" y="-186" type="line"/>
      <point x="1249" y="1679" type="line"/>
      <point x="1016" y="1679" type="line"/>
    </contour>
    <contour>
      <point x="396" y="665" type="curve" smooth="yes"/>
      <point x="609.923291103" y="665.0"/>
      <point x="732.0" y="768.011368083"/>
      <point x="732" y="949" type="curve" smooth="yes"/>
      <point x="732" y="1001"/>
      <point x="716" y="1049"/>
      <point x="684" y="1092" type="curve" smooth="yes"/>
      <point x="671" y="1110"/>
      <point x="656" y="1125"/>
      <point x="639" y="1138" type="curve"/>
      <point x="652" y="1150"/>
      <point x="663" y="1163"/>
      <point x="673" y="1177" type="curve" smooth="yes"/>
      <point x="750.960784314" y="1291.15686275"/>
      <point x="716.065934066" y="1447.65934066"/>
      <point x="624" y="1521" type="curve" smooth="yes"/>
      <point x="568" y="1565"/>
      <point x="492" y="1589"/>
      <point x="395" y="1589" type="curve" smooth="yes"/>
      <point x="197.0" y="1589.0"/>
      <point x="78.0" y="1467.0"/>
      <point x="78" y="1287" type="curve"/>
      <point x="78" y="1236" type="line"/>
      <point x="299" y="1236" type="line"/>
      <point x="299" y="1287" type="line" smooth="yes"/>
      <point x="299.0" y="1349.17296522"/>
      <point x="332.365094759" y="1388.0"/>
      <point x="388" y="1388" type="curve" smooth="yes"/>
      <point x="444.316879089" y="1388.0"/>
      <point x="480.0" y="1359.0789616"/>
      <point x="480" y="1312" type="curve" smooth="yes"/>
      <point x="480.0" y="1246.57526115"/>
      <point x="428.808109706" y="1219.0"/>
      <point x="339" y="1219" type="curve" smooth="yes"/>
      <point x="284" y="1220" type="line"/>
      <point x="232" y="1221" type="line"/>
      <point x="232" y="1043" type="line"/>
      <point x="344" y="1043" type="line" smooth="yes"/>
      <point x="440.25" y="1043.0"/>
      <point x="499.0" y="1018.0"/>
      <point x="499" y="948" type="curve" smooth="yes"/>
      <point x="499.0" y="891.955320522"/>
      <point x="454.990474862" y="866.0"/>
      <point x="390" y="866" type="curve" smooth="yes"/>
      <point x="326.0" y="866.0"/>
      <point x="289.0" y="905.0"/>
      <point x="289" y="969" type="curve" smooth="yes"/>
      <point x="289" y="1020" type="line"/>
      <point x="66" y="1020" type="line"/>
      <point x="66" y="969" type="line" smooth="yes"/>
      <point x="66.0" y="783.541523814"/>
      <point x="181.05438429" y="665.0"/>
    </contour>
    <contour>
      <point x="1304" y="-52" type="line"/>
      <point x="1539" y="-52" type="line"/>
      <point x="1539" y="120" type="line"/>
      <point x="1631" y="120" type="line"/>
      <point x="1631" y="308" type="line"/>
      <point x="1539" y="308" type="line"/>
      <point x="1539" y="843" type="line"/>
      <point x="1261" y="843" type="line"/>
      <point x="902" y="263" type="line"/>
      <point x="902" y="120" type="line"/>
      <point x="1304" y="120" type="line"/>
    </contour>
    <contour>
      <point x="1304" y="308" type="line"/>
      <point x="1187" y="308" type="line"/>
      <point x="1304" y="492" type="line"/>
    </contour>
  </outline>
</glyph>
<glyph name="questiondown" format="1">
  <advance width="936"/>
  <unicode hex="00BF"/>
  <outline>
    <contour>
      <point x="523" y="932" type="curve" smooth="yes"/>
      <point x="611.0" y="932.0"/>
      <point x="685.0" y="1006.0"/>
      <point x="685" y="1092" type="curve" smooth="yes"/>
      <point x="685.0" y="1178.62636308"/>
      <point x="610.385677392" y="1252.0"/>
      <point x="523" y="1252" type="curve" smooth="yes"/>
      <point x="437.0" y="1252.0"/>
      <point x="365.0" y="1180.0"/>
      <point x="365" y="1092" type="curve" smooth="yes"/>
      <point x="365.0" y="1007.31788168"/>
      <point x="437.687198501" y="932.0"/>
    </contour>
    <contour>
      <point x="496" y="-389" type="curve" smooth="yes"/>
      <point x="566" y="-389"/>
      <point x="628" y="-378"/>
      <point x="683" y="-357" type="curve" smooth="yes"/>
      <point x="856.147484168" y="-290.171146462"/>
      <point x="951.0" y="-143.59172709"/>
      <point x="951" y="57" type="curve" smooth="yes"/>
      <point x="951" y="108" type="line"/>
      <point x="708" y="108" type="line"/>
      <point x="708" y="57" type="line" smooth="yes"/>
      <point x="708.0" y="-67.4289779069"/>
      <point x="630.611200369" y="-161.0"/>
      <point x="503" y="-161" type="curve" smooth="yes"/>
      <point x="474" y="-161" type="line"/>
      <point x="472" y="-165" type="line"/>
      <point x="451" y="-162"/>
      <point x="432" y="-158"/>
      <point x="415" y="-150" type="curve" smooth="yes"/>
      <point x="254.68481253" y="-76.5222057431"/>
      <point x="267.881258039" y="144.024835991"/>
      <point x="406" y="309" type="curve" smooth="yes"/>
      <point x="504" y="429" type="line" smooth="yes"/>
      <point x="592.027712966" y="534.633255559"/>
      <point x="633.954162401" y="669.516342508"/>
      <point x="636" y="825" type="curve" smooth="yes"/>
      <point x="637" y="877" type="line"/>
      <point x="416" y="877" type="line"/>
      <point x="415" y="827" type="line" smooth="yes"/>
      <point x="413.017453963" y="719.942514013"/>
      <point x="375.675032596" y="620.78161669"/>
      <point x="299" y="532" type="curve" smooth="yes"/>
      <point x="188" y="409" type="line" smooth="yes"/>
      <point x="92.0" y="301.0"/>
      <point x="47.0" y="177.0"/>
      <point x="47" y="51" type="curve"/>
      <point x="47.0" y="-219.0"/>
      <point x="214.0" y="-389.0"/>
    </contour>
  </outline>
</glyph>
<glyph name="AE" format="1">
  <advance width="1909"/>
  <unicode hex="00C6"/>
  <outline>
    <contour>
      <point x="873" y="657" type="line"/>
      <point x="632" y="657" type="line"/>
      <point x="873" y="1153" type="line"/>
    </contour>
    <contour>
      <point x="-20" y="-51" type="line"/>
      <point x="185" y="-51" type="line" smooth="yes"/>
      <point x="214" y="-51"/>
      <point x="240" y="-44"/>
      <point x="262" y="-31" type="curve" smooth="yes"/>
      <point x="286" y="-18"/>
      <point x="305" y="2"/>
      <point x="319" y="30" type="curve" smooth="yes"/>
      <point x="520" y="425" type="line"/>
      <point x="873" y="425" type="line"/>
      <point x="873" y="-51" type="line"/>
      <point x="1696" y="-51" type="line" smooth="yes"/>
      <point x="1734" y="-51"/>
      <point x="1761" y="-39"/>
      <point x="1780" y="-20" type="curve" smooth="yes"/>
      <point x="1799" y="-1"/>
      <point x="1811" y="26"/>
      <point x="1811" y="64" type="curve" smooth="yes"/>
      <point x="1811" y="312" type="line"/>
      <point x="1571" y="312" type="line"/>
      <point x="1571" y="182" type="line"/>
      <point x="1114" y="182" type="line"/>
      <point x="1114" y="425" type="line"/>
      <point x="1120" y="425" type="line"/>
      <point x="1114" y="524" type="line"/>
      <point x="1114" y="644" type="line"/>
      <point x="1696" y="644" type="line"/>
      <point x="1696" y="876" type="line"/>
      <point x="1114" y="876" type="line"/>
      <point x="1114" y="1315" type="line"/>
      <point x="1571" y="1315" type="line"/>
      <point x="1571" y="1185" type="line"/>
      <point x="1811" y="1185" type="line"/>
      <point x="1811" y="1433" type="line" smooth="yes"/>
      <point x="1811" y="1471"/>
      <point x="1799" y="1498"/>
      <point x="1781" y="1516" type="curve" smooth="yes"/>
      <point x="1763" y="1534"/>
      <point x="1738" y="1546"/>
      <point x="1699" y="1546" type="curve" smooth="yes"/>
      <point x="819" y="1546" type="line"/>
      <point x="139" y="181" type="line"/>
      <point x="-20" y="181" type="line"/>
    </contour>
  </outline>
</glyph>
<glyph name="multiply" format="1">
  <advance width="1196"/>
  <unicode hex="00D7"/>
  <outline>
    <contour>
      <point x="871" y="307" type="line"/>
      <point x="1040" y="470" type="line"/>
      <point x="764" y="748" type="line"/>
      <point x="1040" y="1023" type="line"/>
      <point x="871" y="1186" type="line"/>
      <point x="598" y="912" type="line"/>
      <point x="324" y="1186" type="line"/>
      <point x="159" y="1022" type="line"/>
      <point x="432" y="748" type="line"/>
      <point x="159" y="471" type="line"/>
      <point x="324" y="307" type="line"/>
      <point x="598" y="583" type="line"/>
    </contour>
  </outline>
</glyph>
<glyph name="Oslash" format="1">
  <advance width="1633"/>
  <unicode hex="00D8"/>
  <outline>
    <contour>
      <point x="241" y="754" type="curve" smooth="yes"/>
      <point x="241" y="1090"/>
      <point x="456" y="1343"/>
      <point x="814" y="1343" type="curve" smooth="yes"/>
      <point x="894" y="1343"/>
      <point x="969" y="1330"/>
      <point x="1037" y="1304" type="curve"/>
      <point x="377" y="354" type="line"/>
      <point x="292" y="453"/>
      <point x="241" y="589"/>
    </contour>
    <contour>
      <point x="814" y="167" type="curve" smooth="yes"/>
      <point x="729" y="167"/>
      <point x="649" y="182"/>
      <point x="577" y="211" type="curve"/>
      <point x="1242" y="1167" type="line"/>
      <point x="1334" y="1066"/>
      <point x="1389" y="926"/>
      <point x="1389" y="754" type="curve" smooth="yes"/>
      <point x="1389" y="424"/>
      <point x="1173" y="167"/>
    </contour>
    <contour>
      <point x="815" y="-71" type="curve" smooth="yes"/>
      <point x="1278" y="-71"/>
      <point x="1641" y="242"/>
      <point x="1641" y="753" type="curve" smooth="yes"/>
      <point x="1641" y="1002"/>
      <point x="1550" y="1223"/>
      <point x="1386" y="1374" type="curve"/>
      <point x="1479" y="1508" type="line"/>
      <point x="1276" y="1647" type="line"/>
      <point x="1180" y="1508" type="line"/>
      <point x="1073" y="1555"/>
      <point x="951" y="1581"/>
      <point x="815" y="1581" type="curve" smooth="yes"/>
      <point x="353" y="1581"/>
      <point x="-11" y="1266"/>
      <point x="-11" y="753" type="curve" smooth="yes"/>
      <point x="-11" y="511"/>
      <point x="76" y="295"/>
      <point x="233" y="146" type="curve"/>
      <point x="148" y="24" type="line"/>
      <point x="350" y="-115" type="line"/>
      <point x="435" y="8" type="line"/>
      <point x="545" y="-43"/>
      <point x="672" y="-71"/>
    </contour>
  </outline>
</glyph>
<glyph name="Thorn" format="1">
  <advance width="1252"/>
  <unicode hex="00DE"/>
  <outline>
    <contour>
      <point x="195" y="-49" type="line"/>
      <point x="443" y="-49" type="line"/>
      <point x="443" y="296" type="line"/>
      <point x="642" y="296" type="line" smooth="yes"/>
      <point x="955" y="296"/>
      <point x="1207" y="458"/>
      <point x="1207" y="781" type="curve" smooth="yes"/>
      <point x="1207" y="1091"/>
      <point x="975" y="1264"/>
      <point x="642" y="1264" type="curve" smooth="yes"/>
      <point x="444" y="1264" type="line"/>
      <point x="444" y="1548" type="line"/>
      <point x="59" y="1548" type="line"/>
      <point x="59" y="1316" type="line"/>
      <point x="195" y="1316" type="line"/>
    </contour>
    <contour>
      <point x="642" y="1032" type="line" smooth="yes"/>
      <point x="816" y="1032"/>
      <point x="955" y="967"/>
      <point x="955" y="782" type="curve" smooth="yes"/>
      <point x="955" y="602"/>
      <point x="825" y="528"/>
      <point x="642" y="528" type="curve" smooth="yes"/>
      <point x="443" y="528" type="line"/>
      <point x="444" y="1032" type="line"/>
    </contour>
  </outline>
</glyph>
<glyph name="germandbls" format="1">
  <advance width="1368"/>
  <unicode hex="00DF"/>
  <outline>
    <contour>
      <point x="1184.28332528" y="-95.8588740403"/>
      <point x="1343.0" y="90.4859459177"/>
      <point x="1343" y="373" type="curve" smooth="yes"/>
      <point x="1343.0" y="589.191441495"/>
      <point x="1246.36140583" y="734.575512163"/>
      <point x="1113" y="797" type="curve"/>
      <point x="1197.23020745" y="866.707757887"/>
      <point x="1221.0" y="980.218176936"/>
      <point x="1221" y="1119" type="curve" smooth="yes"/>
      <point x="1221.0" y="1399.70893134"/>
      <point x="1032.79622985" y="1574.0"/>
      <point x="709" y="1574" type="curve" smooth="yes"/>
      <point x="393.512842891" y="1574.0"/>
      <point x="195.0" y="1376.09915962"/>
      <point x="195" y="987" type="curve" smooth="yes"/>
      <point x="195" y="167" type="line"/>
      <point x="66" y="165" type="line"/>
      <point x="66" y="-55" type="line"/>
      <point x="340" y="-55" type="line" smooth="yes"/>
      <point x="379" y="-55"/>
      <point x="408" y="-44"/>
      <point x="427" y="-26" type="curve" smooth="yes"/>
      <point x="449" y="-6"/>
      <point x="462" y="22"/>
      <point x="462" y="60" type="curve" smooth="yes"/>
      <point x="462" y="637" type="line"/>
      <point x="782" y="640" type="line"/>
      <point x="978.885298806" y="640.0"/>
      <point x="1077.0" y="547.507570252"/>
      <point x="1077" y="389" type="curve" smooth="yes"/>
      <point x="1077.0" y="237.19656611"/>
      <point x="1012.93659179" y="151.0"/>
      <point x="892" y="151" type="curve" smooth="yes"/>
      <point x="765.27343598" y="151.0"/>
      <point x="798.556788073" y="141.853471117"/>
      <point x="685" y="228" type="curve" smooth="yes"/>
      <point x="642" y="262" type="line"/>
      <point x="505" y="57" type="line"/>
      <point x="541" y="27" type="line" smooth="yes"/>
      <point x="593" y="-15"/>
      <point x="634" y="-41"/>
      <point x="660" y="-52" type="curve" smooth="yes"/>
      <point x="686" y="-63"/>
      <point x="759" y="-73"/>
      <point x="879" y="-80" type="curve" smooth="yes"/>
    </contour>
    <contour>
      <point x="528" y="1265" type="curve" smooth="yes"/>
      <point x="570" y="1321"/>
      <point x="633" y="1347"/>
      <point x="715" y="1347" type="curve" smooth="yes"/>
      <point x="869.209051152" y="1347.0"/>
      <point x="963.0" y="1262.80953652"/>
      <point x="963" y="1107" type="curve" smooth="yes"/>
      <point x="963.0" y="953.9767955"/>
      <point x="873.055189626" y="887.0"/>
      <point x="724" y="887" type="curve" smooth="yes"/>
      <point x="463" y="887" type="line"/>
      <point x="462" y="991" type="line"/>
      <point x="462" y="1112"/>
      <point x="482" y="1204"/>
    </contour>
  </outline>
</glyph>
<glyph name="ae" format="1">
  <advance width="2039"/>
  <unicode hex="00E6"/>
  <outline>
    <contour>
      <point x="1431" y="928" type="curve" smooth="yes"/>
      <point x="1601" y="928"/>
      <point x="1730" y="830"/>
      <point x="1751" y="670" type="curve"/>
      <point x="1063" y="670" type="line"/>
      <point x="1089" y="822"/>
      <point x="1232" y="928"/>
    </contour>
    <contour>
      <point x="1446" y="-71" type="curve" smooth="yes"/>
      <point x="1632.4556345" y="-71.0"/>
      <point x="1799.83202466" y="12.6708373107"/>
      <point x="1940" y="91" type="curve" smooth="yes"/>
      <point x="1983" y="115" type="line"/>
      <point x="1878" y="315" type="line"/>
      <point x="1831" y="286" type="line" smooth="yes"/>
      <point x="1743.49208219" y="231.550628915"/>
      <point x="1583.98658879" y="151.0"/>
      <point x="1444" y="151" type="curve" smooth="yes"/>
      <point x="1242" y="151"/>
      <point x="1103" y="262"/>
      <point x="1061" y="448" type="curve"/>
      <point x="1998" y="448" type="line"/>
      <point x="1995" y="617" type="line" smooth="yes"/>
      <point x="1995" y="932"/>
      <point x="1763" y="1155"/>
      <point x="1431" y="1155" type="curve" smooth="yes"/>
      <point x="1221" y="1155"/>
      <point x="1067" y="1087"/>
      <point x="968" y="970" type="curve"/>
      <point x="898" y="1087"/>
      <point x="769" y="1155"/>
      <point x="591" y="1155" type="curve" smooth="yes"/>
      <point x="318" y="1155"/>
      <point x="134" y="1047"/>
      <point x="124" y="882" type="curve" smooth="yes"/>
      <point x="120" y="820" type="line"/>
      <point x="117" y="766" type="line"/>
      <point x="355" y="766" type="line"/>
      <point x="364" y="849" type="line" smooth="yes"/>
      <point x="372" y="920"/>
      <point x="466" y="933"/>
      <point x="580" y="933" type="curve" smooth="yes"/>
      <point x="723" y="933"/>
      <point x="791" y="867"/>
      <point x="807" y="743" type="curve"/>
      <point x="718" y="743" type="line" smooth="yes"/>
      <point x="196" y="743"/>
      <point x="32" y="609"/>
      <point x="32" y="329" type="curve"/>
      <point x="32" y="42"/>
      <point x="228" y="-70"/>
      <point x="487" y="-70" type="curve" smooth="yes"/>
      <point x="694" y="-70"/>
      <point x="857" y="17"/>
      <point x="935" y="165" type="curve"/>
      <point x="1033" y="17"/>
      <point x="1204" y="-71"/>
    </contour>
    <contour>
      <point x="492" y="159" type="curve" smooth="yes"/>
      <point x="428" y="159"/>
      <point x="272" y="165"/>
      <point x="272" y="335" type="curve" smooth="yes"/>
      <point x="272" y="515"/>
      <point x="471" y="515"/>
      <point x="720" y="515" type="curve" smooth="yes"/>
      <point x="809" y="515" type="line"/>
      <point x="795" y="282"/>
      <point x="683" y="159"/>
    </contour>
  </outline>
</glyph>
